<svg width="95" height="54" viewBox="0 0 95 54" fill="none" xmlns="http://www.w3.org/2000/svg" style="height: 100px;"><path d="M26 11.7596L51.33 51.2896L93.94 40.1296L69.28 1.03955L26 11.7596Z" fill="#E0E0E0"></path> <path d="M45.7801 53.7398C45.4401 53.7398 45.1101 53.5698 44.9101 53.2698L24.9801 22.8998L5.70008 43.7598C5.32008 44.1698 4.67008 44.2098 4.25008 43.8398L0.350082 40.4298C0.150082 40.2398 0.0200822 39.9798 8.22383e-05 39.7098C-0.0199178 39.4298 0.0800822 39.1598 0.260082 38.9498L25.2201 11.0698C25.3601 10.9098 25.5401 10.8098 25.7401 10.7498L69.0301 0.029763C69.4601 -0.070237 69.9201 0.109763 70.1601 0.479763L94.8201 39.5698C95.0001 39.8498 95.0301 40.1998 94.9101 40.5098C94.7901 40.8198 94.5301 41.0498 94.2101 41.1298L46.0501 53.7098C45.9601 53.7298 45.8701 53.7398 45.7801 53.7398ZM25.0801 20.8198C25.1101 20.8198 25.1401 20.8198 25.1701 20.8198C25.4901 20.8498 25.7801 21.0198 25.9501 21.2898L46.3001 52.1198L93.1101 39.7998L69.0401 1.64976L26.1701 11.9798L1.54008 39.5898L5.06008 42.4798L24.3201 21.1598C24.5201 20.9398 24.7901 20.8198 25.0801 20.8198Z" fill="#696969"></path></svg>