<svg width="89" height="71" viewBox="0 0 89 71" fill="none" xmlns="http://www.w3.org/2000/svg" style="height: 100px;"><path d="M36.27 68.5799L0.68998 59.7499L0.22998 50.6499L36.5 59.9999L36.27 68.5799Z" fill="#E0E0E0"></path> <path d="M45.84 53.65L10.26 44.83L9.80005 35.73L46.07 45.08L45.84 53.65Z" fill="#E0E0E0"></path> <path d="M55.6001 38.9197L20.0201 30.0897L19.5601 20.9897L55.8301 30.3397L55.6001 38.9197Z" fill="#E0E0E0"></path> <path d="M64.54 24.0401L28.96 15.2201L28.5 6.12012L64.77 15.4601L64.54 24.0401Z" fill="#E0E0E0"></path> <path d="M64.77 16.2599C64.7 16.2599 64.63 16.2499 64.56 16.2299L28.75 6.59988C28.4 6.49988 28.15 6.17988 28.16 5.80988C28.17 5.43988 28.42 5.12988 28.78 5.04988L50.87 0.0198828C50.98 -0.000117187 51.1 -0.000117187 51.21 0.0198828L87.47 7.66988C87.83 7.74988 88.09 8.04988 88.1 8.41988C88.12 8.77988 87.89 9.10988 87.54 9.21988L65 16.2299C64.93 16.2499 64.85 16.2599 64.77 16.2599ZM32.28 5.88988L64.76 14.6299L84.14 8.59988L51.06 1.61988L32.28 5.88988Z" fill="#696969"></path> <path d="M46 55.26C45.56 55.26 45.2 54.9 45.2 54.46V45.07C45.2 44.63 45.56 44.27 46 44.27C46.44 44.27 46.7999 44.63 46.7999 45.07V54.46C46.7999 54.9 46.44 55.26 46 55.26Z" fill="#696969"></path> <path d="M45.9999 55.2598C45.9299 55.2598 45.8599 55.2498 45.7899 55.2298L9.97995 45.5998C9.54995 45.4898 9.29995 45.0498 9.41995 44.6198C9.52995 44.1898 9.96995 43.9398 10.3999 44.0598L46.2099 53.6998C46.6399 53.8098 46.8899 54.2498 46.7699 54.6798C46.6799 55.0298 46.3499 55.2598 45.9999 55.2598Z" fill="#696969"></path> <path d="M10.1901 45.6297C9.75014 45.6297 9.39014 45.2697 9.39014 44.8297V35.4396C9.39014 34.9996 9.75014 34.6396 10.1901 34.6396C10.6301 34.6396 10.9901 34.9996 10.9901 35.4396V44.8297C10.9901 45.2697 10.6301 45.6297 10.1901 45.6297Z" fill="#696969"></path> <path d="M45.9999 45.8797C45.9299 45.8797 45.8599 45.8697 45.7899 45.8497L9.97995 36.2097C9.54995 36.0997 9.29995 35.6597 9.41995 35.2297C9.52995 34.7997 9.97995 34.5597 10.3999 34.6697L46.2099 44.3097C46.6399 44.4197 46.8899 44.8597 46.7699 45.2897C46.6799 45.6397 46.3499 45.8797 45.9999 45.8797Z" fill="#696969"></path> <path d="M46.0002 45.8798C45.7202 45.8798 45.4502 45.7398 45.3102 45.4798C45.0902 45.0998 45.2202 44.6098 45.6002 44.3898L54.9902 38.9698C55.3702 38.7498 55.8602 38.8798 56.0802 39.2598C56.3002 39.6398 56.1702 40.1298 55.7902 40.3498L46.4002 45.7698C46.2702 45.8398 46.1402 45.8798 46.0002 45.8798Z" fill="#696969"></path> <path d="M55.3901 40.4597C55.3201 40.4597 55.2501 40.4497 55.1801 40.4297L19.3701 30.7897C18.9401 30.6797 18.6901 30.2397 18.8101 29.8097C18.9301 29.3797 19.3701 29.1397 19.7901 29.2497L55.6001 38.8897C56.0301 38.9997 56.2801 39.4397 56.1601 39.8697C56.0601 40.2197 55.7401 40.4597 55.3901 40.4597Z" fill="#696969"></path> <path d="M10.1901 36.2397C9.91011 36.2397 9.64012 36.0997 9.50012 35.8397C9.28012 35.4597 9.41012 34.9697 9.79012 34.7497L19.1801 29.3297C19.5601 29.1097 20.0501 29.2397 20.2701 29.6197C20.4901 29.9997 20.3601 30.4897 19.9801 30.7097L10.5901 36.1297C10.4601 36.2097 10.3201 36.2397 10.1901 36.2397Z" fill="#696969"></path> <path d="M19.57 30.8201C19.13 30.8201 18.77 30.4601 18.77 30.0201V20.6301C18.77 20.1901 19.13 19.8301 19.57 19.8301C20.01 19.8301 20.37 20.1901 20.37 20.6301V30.0201C20.37 30.4601 20.01 30.8201 19.57 30.8201Z" fill="#696969"></path> <path d="M55.3901 31.0699C55.3201 31.0699 55.2501 31.0599 55.1801 31.0399L19.3701 21.4099C18.9401 21.2999 18.6901 20.8599 18.8101 20.4299C18.9301 19.9999 19.3701 19.7499 19.7901 19.8699L55.6001 29.4999C56.0301 29.6099 56.2801 30.0499 56.1601 30.4799C56.0601 30.8299 55.7401 31.0699 55.3901 31.0699Z" fill="#696969"></path> <path d="M55.3901 40.4597C54.9501 40.4597 54.5901 40.0997 54.5901 39.6597V30.2697C54.5901 29.8297 54.9501 29.4697 55.3901 29.4697C55.8301 29.4697 56.1901 29.8297 56.1901 30.2697V39.6597C56.1901 40.0997 55.8301 40.4597 55.3901 40.4597Z" fill="#696969"></path> <path d="M55.3901 31.0698C55.1101 31.0698 54.8401 30.9298 54.7001 30.6698C54.4801 30.2898 54.6101 29.7998 54.9901 29.5798L64.3801 24.1598C64.7601 23.9398 65.2501 24.0698 65.4701 24.4498C65.6901 24.8298 65.5601 25.3198 65.1801 25.5398L55.7901 30.9598C55.6601 31.0398 55.5201 31.0698 55.3901 31.0698Z" fill="#696969"></path> <path d="M64.77 25.65C64.7 25.65 64.63 25.64 64.56 25.62L28.75 15.99C28.32 15.88 28.07 15.44 28.19 15.01C28.31 14.58 28.75 14.33 29.17 14.45L64.98 24.08C65.41 24.19 65.66 24.63 65.54 25.06C65.45 25.42 65.13 25.65 64.77 25.65Z" fill="#696969"></path> <path d="M19.57 21.4296C19.29 21.4296 19.02 21.2896 18.88 21.0296C18.66 20.6496 18.79 20.1596 19.17 19.9396L28.56 14.5196C28.94 14.2996 29.43 14.4296 29.65 14.8096C29.87 15.1896 29.74 15.6796 29.36 15.8996L19.97 21.3196C19.85 21.3996 19.71 21.4296 19.57 21.4296Z" fill="#696969"></path> <path d="M64.77 25.6497C64.33 25.6497 63.97 25.2897 63.97 24.8497V15.4597C63.97 15.0197 64.33 14.6597 64.77 14.6597C65.21 14.6597 65.57 15.0197 65.57 15.4597V24.8497C65.57 25.2897 65.21 25.6497 64.77 25.6497Z" fill="#696969"></path> <path d="M28.9602 16.0198C28.5202 16.0198 28.1602 15.6598 28.1602 15.2198V5.82978C28.1602 5.38978 28.5202 5.02979 28.9602 5.02979C29.4002 5.02979 29.7602 5.38978 29.7602 5.82978V15.2198C29.7602 15.6598 29.4002 16.0198 28.9602 16.0198Z" fill="#696969"></path> <path d="M36.6101 70.0701C36.1701 70.0701 35.8101 69.7101 35.8101 69.2701V59.8801C35.8101 59.4401 36.1701 59.0801 36.6101 59.0801C37.0501 59.0801 37.4101 59.4401 37.4101 59.8801V69.2701C37.4101 69.7101 37.0601 70.0701 36.6101 70.0701Z" fill="#696969"></path> <path d="M36.6101 70.0696C36.5401 70.0696 36.4701 70.0596 36.4001 70.0396L0.590055 60.3996C0.160055 60.2896 -0.0899453 59.8496 0.0300547 59.4196C0.150055 58.9896 0.590055 58.7396 1.01005 58.8596L36.8201 68.4896C37.2501 68.5996 37.5001 69.0396 37.3801 69.4696C37.2901 69.8296 36.9701 70.0696 36.6101 70.0696Z" fill="#696969"></path> <path d="M0.8 60.4601C0.36 60.4601 0 60.1001 0 59.6601V50.4201C0 49.9801 0.36 49.6201 0.8 49.6201C1.24 49.6201 1.6 49.9801 1.6 50.4201V59.6601C1.6 60.1001 1.24 60.4601 0.8 60.4601Z" fill="#696969"></path> <path d="M36.6101 60.6798C36.5401 60.6798 36.4701 60.6698 36.4001 60.6498L0.590055 51.0198C0.160055 50.9098 -0.0899453 50.4698 0.0300547 50.0398C0.150055 49.6098 0.590055 49.3598 1.01005 49.4798L36.8201 59.1098C37.2501 59.2198 37.5001 59.6598 37.3801 60.0898C37.2901 60.4398 36.9701 60.6798 36.6101 60.6798Z" fill="#696969"></path> <path d="M36.61 60.6796C36.33 60.6796 36.06 60.5396 35.92 60.2796C35.7 59.8996 35.83 59.4096 36.21 59.1896L45.6 53.7696C45.98 53.5496 46.47 53.6796 46.69 54.0596C46.91 54.4396 46.78 54.9296 46.4 55.1496L37.01 60.5696C36.89 60.6496 36.75 60.6796 36.61 60.6796Z" fill="#696969"></path> <path d="M0.799978 51.0498C0.519978 51.0498 0.249978 50.9098 0.109978 50.6498C-0.110022 50.2698 0.0199784 49.7798 0.399978 49.5598L9.78998 44.1398C10.17 43.9198 10.66 44.0498 10.88 44.4298C11.1 44.8098 10.97 45.2998 10.59 45.5198L1.19998 50.9398C1.06998 51.0098 0.939978 51.0498 0.799978 51.0498Z" fill="#696969"></path> <path d="M36.6102 70.0697C36.2602 70.0697 35.9402 69.8397 35.8402 69.4897C35.7202 69.0697 35.9702 68.6197 36.3902 68.4997L86.5002 54.4297V9.5397L65.0002 16.2297C64.5802 16.3597 64.1302 16.1197 64.0002 15.6997C63.8702 15.2797 64.1002 14.8297 64.5302 14.6997L87.0702 7.6897C87.3102 7.6097 87.5702 7.6597 87.7802 7.8097C87.9802 7.9597 88.1102 8.1997 88.1102 8.4497V55.0297C88.1102 55.3897 87.8702 55.6997 87.5302 55.7997L36.8302 70.0297C36.7602 70.0597 36.6902 70.0697 36.6102 70.0697Z" fill="#696969"></path></svg>