<svg width="62" height="97" viewBox="0 0 62 97" fill="none" xmlns="http://www.w3.org/2000/svg" style="height: 100px;"><path d="M7.75 8.2201L8.25 82.8501L8.06 88.8601L18.43 88.9401L52.92 96.1801L53.68 7.8501L7.75 8.2201Z" fill="#E0E0E0"></path> <path d="M53.6799 95.9901V7.8501L18.4299 18.4301V88.9401L53.6799 95.9901Z" fill="#F2F2F3"></path> <path d="M60.74 96.79H53.69C53.25 96.79 52.89 96.43 52.89 95.99V8.65H8.65V95.99C8.65 96.43 8.29 96.79 7.85 96.79H0.8C0.36 96.79 0 96.43 0 95.99V0.8C0 0.36 0.36 0 0.8 0H60.74C61.18 0 61.54 0.36 61.54 0.8V95.99C61.54 96.43 61.18 96.79 60.74 96.79ZM54.48 95.19H59.93V1.6H1.6V95.19H7.05V7.85C7.05 7.41 7.41 7.05 7.85 7.05H53.68C54.12 7.05 54.48 7.41 54.48 7.85V95.19Z" fill="#696969"></path> <path d="M53.6801 96.7898C53.6301 96.7898 53.5801 96.7898 53.5201 96.7698L18.2601 89.7198C17.8901 89.6498 17.6201 89.3198 17.6201 88.9398V18.4298C17.6201 18.0798 17.8501 17.7598 18.1901 17.6598L53.4501 7.0798C53.6901 7.0098 53.9501 7.0498 54.1601 7.1998C54.3601 7.3498 54.4801 7.5898 54.4801 7.8398V95.9798C54.4801 96.2198 54.3701 96.4498 54.1901 96.5998C54.0501 96.7298 53.8701 96.7898 53.6801 96.7898ZM19.2301 88.2798L52.8901 95.0098V8.9298L19.2301 19.0298V88.2798Z" fill="#696969"></path> <path d="M28.9999 47.4301H25.4699C25.0299 47.4301 24.6699 47.0701 24.6699 46.6301C24.6699 46.1901 25.0299 45.8301 25.4699 45.8301H28.9999C29.4399 45.8301 29.7999 46.1901 29.7999 46.6301C29.7999 47.0701 29.4499 47.4301 28.9999 47.4301Z" fill="#696969"></path></svg>