<svg width="108" height="90" viewBox="0 0 108 90" fill="none" xmlns="http://www.w3.org/2000/svg" style="height: 100px;"><path d="M7.16988 38.3197L6.97988 70.0397L43.3199 79.6198L43.0499 47.6097L41.2299 47.8897L22.5599 19.7397L6.87988 36.7197L7.16988 38.3197Z" fill="none"></path> <path d="M23.4897 10.6299L46.3997 46.3599L84.9098 36.2699L62.6097 0.939941L23.4897 10.6299Z" fill="#E0E0E0"></path> <path d="M43.0498 47.6101L43.3198 79.6201L79.3998 70.1001L79.2698 37.8101L43.0498 47.6101Z" fill="#E0E0E0"></path> <path d="M43.32 80.5599C43.24 80.5599 43.16 80.5499 43.08 80.5299L6.47002 70.8799C6.05002 70.7699 5.77002 70.3899 5.77002 69.9599L6.11002 36.0999C6.11002 35.5799 6.53002 35.1699 7.05002 35.1699H7.06002C7.58002 35.1699 7.99002 35.5999 7.99002 36.1199L7.66002 69.2499L43.56 78.7099C44.06 78.8399 44.36 79.3599 44.23 79.8599C44.12 80.2799 43.74 80.5599 43.32 80.5599Z" fill="#696969"></path> <path d="M41.3798 48.5698C41.0698 48.5698 40.7698 48.4098 40.5998 48.1498L22.5798 20.6998L5.14982 39.5498C4.79982 39.9198 4.21982 39.9498 3.83982 39.6198L0.319821 36.5398C0.129821 36.3798 0.0198206 36.1398 -0.000179445 35.8898C-0.0201794 35.6398 0.0698206 35.3898 0.239821 35.2098L22.7998 9.99984C22.9298 9.85984 23.0898 9.75984 23.2698 9.70984L62.3898 0.0198417C62.7798 -0.0701583 63.1898 0.0898417 63.4098 0.429842L85.6998 35.7698C85.8598 36.0198 85.8898 36.3398 85.7798 36.6198C85.6698 36.8998 85.4298 37.1098 85.1398 37.1798L41.6198 48.5398C41.5398 48.5598 41.4598 48.5698 41.3798 48.5698ZM22.6998 18.2398C22.7298 18.2398 22.7498 18.2398 22.7798 18.2398C23.0698 18.2598 23.3298 18.4198 23.4898 18.6598L41.7998 46.5598L83.4298 35.6898L62.1798 2.00984L23.9998 11.4698L2.26982 35.7498L4.38982 37.6098L22.0098 18.5398C22.1898 18.3498 22.4398 18.2398 22.6998 18.2398Z" fill="#696969"></path> <path d="M43.3196 80.56C43.1196 80.56 42.9196 80.49 42.7496 80.37C42.5196 80.19 42.3796 79.92 42.3796 79.63L42.1196 47.62C42.1196 47.19 42.3996 46.82 42.8096 46.71L79.0196 36.92C79.2996 36.84 79.5996 36.9 79.8296 37.08C80.0596 37.26 80.1996 37.53 80.1996 37.82L80.3296 70.11C80.3296 70.54 80.0396 70.91 79.6296 71.02L43.5496 80.54C43.4796 80.55 43.3996 80.56 43.3196 80.56ZM43.9996 48.33L44.2496 78.41L78.4596 69.39L78.3396 39.05L43.9996 48.33Z" fill="#696969"></path> <path d="M30.9 65.4896C30.82 65.4896 30.75 65.4796 30.67 65.4596L16.93 62.0196C16.5 61.9096 16.21 61.5196 16.22 61.0796L16.62 47.5996C16.63 47.3196 16.76 47.0596 16.98 46.8896C17.2 46.7196 17.48 46.6496 17.76 46.7096L31.24 49.6196C31.68 49.7096 31.98 50.0996 31.98 50.5496L31.85 64.5596C31.85 64.8496 31.71 65.1196 31.49 65.2896C31.3 65.4196 31.1 65.4896 30.9 65.4896ZM18.11 60.3896L29.97 63.3496L30.08 51.2996L18.45 48.7896L18.11 60.3896Z" fill="#696969"></path> <path d="M42.6799 80.25C43.2377 80.25 43.6899 79.7978 43.6899 79.24C43.6899 78.6822 43.2377 78.23 42.6799 78.23C42.1221 78.23 41.6699 78.6822 41.6699 79.24C41.6699 79.7978 42.1221 80.25 42.6799 80.25Z" fill="#6A6A6A"></path> <path d="M107.18 60.1598C107.08 59.7398 106.81 59.3998 106.47 59.1898C106.13 58.9798 105.7 58.8998 105.28 58.9998L102.63 59.6398L99.9997 60.2698C100.05 59.7398 100.12 59.1398 100.2 58.5198C100.28 57.9098 100.37 57.2798 100.46 56.6898C100.53 56.2598 100.41 55.8398 100.17 55.5098C99.9297 55.1798 99.5697 54.9498 99.1497 54.8898C98.7197 54.8198 98.2997 54.9398 97.9797 55.1798C97.6597 55.4198 97.4197 55.7798 97.3497 56.2098C97.2197 56.9998 97.0997 57.8498 96.9997 58.6898C96.8997 59.5298 96.8197 60.3398 96.7797 61.0398L94.8597 61.4998L92.9397 61.9598C93.0197 61.5498 93.1197 61.1098 93.2297 60.6498C93.3397 60.1898 93.4497 59.7298 93.5697 59.2698C93.7097 59.0898 93.8097 58.8898 93.8597 58.6798C93.9097 58.4598 93.9197 58.2298 93.8697 57.9998C93.8097 57.6998 93.6597 57.4298 93.4497 57.2298C93.2497 57.0298 92.9897 56.8798 92.7097 56.8098C92.6997 56.8098 92.6897 56.7998 92.6797 56.7998C92.6697 56.7998 92.6597 56.7898 92.6497 56.7898C92.6397 56.7898 92.6197 56.7898 92.6097 56.7898C92.5997 56.7898 92.5797 56.7898 92.5697 56.7898C92.4597 56.7598 92.3497 56.7398 92.2297 56.7398C92.1197 56.7298 91.9997 56.7398 91.8797 56.7598C91.3297 56.8798 90.7397 56.9898 90.1597 57.0998C89.5797 57.1998 89.0197 57.2998 88.5297 57.3798L89.0797 55.5598L89.6297 53.7398C90.3397 53.7498 91.1697 53.7198 92.0397 53.6698C92.8997 53.6198 93.7997 53.5498 94.6197 53.4698C95.0497 53.4298 95.4297 53.2198 95.6897 52.9098C95.9497 52.5998 96.0897 52.1898 96.0497 51.7598C96.0097 51.3298 95.7997 50.9498 95.4897 50.6898C95.1797 50.4298 94.7697 50.2898 94.3397 50.3398C93.7097 50.3998 93.0397 50.4498 92.3997 50.4898C91.7497 50.5298 91.1297 50.5698 90.5897 50.5898L91.4297 47.7898L92.2697 44.9898C92.3997 44.5698 92.3397 44.1498 92.1497 43.7898C91.9597 43.4398 91.6297 43.1498 91.2197 43.0298C90.7997 42.8998 90.3797 42.9598 90.0197 43.1498C89.6697 43.3398 89.3797 43.6698 89.2597 44.0798L88.4197 46.8698L87.5797 49.6598C87.1397 49.3398 86.6297 48.9698 86.1197 48.5798C85.6097 48.1898 85.0797 47.7798 84.5897 47.3898C84.2497 47.1198 83.8297 47.0098 83.4297 47.0498C83.0297 47.0898 82.6497 47.2898 82.3697 47.6298C82.0997 47.9698 81.9897 48.3898 82.0297 48.7898C82.0697 49.1898 82.2697 49.5698 82.6097 49.8498C83.2597 50.3698 83.9597 50.9198 84.6597 51.4398C85.3497 51.9598 86.0297 52.4398 86.6297 52.8198L86.0997 54.5998L85.5697 56.3798C85.1997 56.0498 84.7997 55.6798 84.3997 55.2998C83.9997 54.9198 83.5997 54.5198 83.2197 54.1398C83.1197 54.0398 82.9997 53.9498 82.8797 53.8898C82.7597 53.8298 82.6297 53.7798 82.4997 53.7498C82.4497 53.7298 82.4097 53.7198 82.3597 53.7098C82.3097 53.6998 82.2597 53.6998 82.2097 53.6898C82.1797 53.6898 82.1497 53.6898 82.1197 53.6898C82.0897 53.6898 82.0597 53.6898 82.0297 53.6898C81.9597 53.6898 81.8897 53.6798 81.8197 53.6698C81.7497 53.6598 81.6797 53.6598 81.6097 53.6798C81.3397 53.7398 81.0997 53.8698 80.8997 54.0498C80.6997 54.2298 80.5497 54.4598 80.4697 54.7198C80.2997 55.2498 80.0997 55.8098 79.9097 56.3498C79.7197 56.8898 79.5197 57.4198 79.3397 57.8798L78.0797 56.5298L76.8197 55.1798C77.1797 54.5698 77.5797 53.8298 77.9697 53.0498C78.3597 52.2698 78.7497 51.4598 79.0897 50.7098C79.2697 50.3098 79.2797 49.8798 79.1397 49.5098C78.9997 49.1298 78.7197 48.8098 78.3197 48.6298C77.9397 48.4498 77.5097 48.4498 77.1297 48.5898C76.7497 48.7298 76.4197 49.0098 76.2397 49.4098C75.9797 49.9798 75.6897 50.5898 75.3997 51.1698C75.1097 51.7498 74.8297 52.3098 74.5797 52.7898L72.6197 50.6898L70.6597 48.5898C70.3597 48.2698 69.9697 48.1098 69.5597 48.0898C69.1597 48.0798 68.7497 48.2098 68.4297 48.5098C68.1097 48.8098 67.9397 49.1998 67.9297 49.6098C67.9197 50.0098 68.0597 50.4198 68.3497 50.7398L70.3097 52.8398L72.2697 54.9398C71.7697 55.1698 71.1997 55.4198 70.6097 55.6698C70.0197 55.9198 69.3997 56.1698 68.8097 56.3998C68.3997 56.5598 68.0997 56.8598 67.9397 57.2298C67.7797 57.5998 67.7597 58.0298 67.9097 58.4298C67.9997 58.6698 68.1397 58.8698 68.3197 59.0298C68.4897 59.1898 68.6997 59.3098 68.9297 59.3698C69.0897 59.4198 69.2597 59.4398 69.4397 59.4398C69.6097 59.4298 69.7897 59.3998 69.9597 59.3298C70.7297 59.0298 71.5597 58.6998 72.3497 58.3498C73.1397 58.0098 73.8997 57.6598 74.5297 57.3398L75.7997 58.6998L77.0697 60.0598C76.5797 60.2198 76.0297 60.3998 75.4697 60.5598C74.9097 60.7298 74.3297 60.8898 73.7697 61.0298C73.4997 61.0998 73.2697 61.2298 73.0697 61.4198C72.8797 61.5998 72.7297 61.8398 72.6497 62.0998C72.5697 62.3598 72.5597 62.6398 72.6197 62.8998C72.6797 63.1598 72.7997 63.3998 72.9897 63.6098C73.3797 64.0398 73.7797 64.4998 74.1597 64.9498C74.5397 65.3998 74.9097 65.8398 75.2197 66.2398L73.3997 66.6798L71.5797 67.1198C71.2297 66.4998 70.7997 65.7998 70.3197 65.0698C69.8497 64.3498 69.3397 63.6098 68.8597 62.9398C68.6097 62.5898 68.2397 62.3698 67.8397 62.2998C67.4397 62.2298 67.0197 62.3098 66.6597 62.5698C66.3097 62.8198 66.0897 63.1898 66.0197 63.5898C65.9497 63.9898 66.0397 64.4098 66.2897 64.7598C66.6597 65.2798 67.0397 65.8298 67.3997 66.3698C67.7597 66.9098 68.0997 67.4298 68.3897 67.8898L65.5997 68.5598L62.8097 69.2298C62.3897 69.3298 62.0497 69.5998 61.8397 69.9398C61.6297 70.2798 61.5497 70.7098 61.6497 71.1298C61.7197 71.4098 61.8597 71.6598 62.0397 71.8498C62.2297 72.0398 62.4597 72.1898 62.7197 72.2698C62.8497 72.3098 62.9797 72.3298 63.1197 72.3398C63.2597 72.3398 63.3997 72.3298 63.5397 72.2998L66.3197 71.6298L69.0997 70.9598C69.0497 71.4998 68.9797 72.1298 68.8997 72.7698C68.8197 73.4098 68.7297 74.0698 68.6297 74.6898C68.5697 75.0798 68.6597 75.4598 68.8597 75.7698C69.0597 76.0798 69.3597 76.3198 69.7297 76.4298C69.7697 76.4398 69.7997 76.4498 69.8397 76.4598C69.8797 76.4698 69.9097 76.4798 69.9497 76.4798C70.3797 76.5498 70.7897 76.4298 71.1197 76.1898C71.4397 75.9498 71.6797 75.5898 71.7497 75.1598C71.8697 74.3398 71.9997 73.4498 72.0997 72.5898C72.1997 71.7298 72.2797 70.8898 72.3197 70.1798L74.1097 69.7498L75.8997 69.3198C75.7997 69.8098 75.6697 70.3598 75.5397 70.9198C75.4097 71.4798 75.2597 72.0498 75.1097 72.5798C75.0397 72.8398 75.0397 73.1198 75.0997 73.3798C75.1597 73.6398 75.2897 73.8798 75.4797 74.0798C75.5297 74.1298 75.5897 74.1698 75.6497 74.1998C75.7097 74.2298 75.7797 74.2598 75.8397 74.2998C75.8697 74.3198 75.8897 74.3398 75.9197 74.3498C75.9497 74.3698 75.9797 74.3798 75.9997 74.3998C76.0297 74.4098 76.0597 74.4398 76.0897 74.4598C76.1197 74.4798 76.1497 74.4998 76.1797 74.5098C76.1997 74.5098 76.2097 74.5098 76.2297 74.5098C76.2497 74.5098 76.2597 74.5098 76.2797 74.5098C76.4097 74.5498 76.5397 74.5798 76.6697 74.5998C76.7997 74.6098 76.9397 74.6098 77.0797 74.5798C77.6097 74.4698 78.1697 74.3598 78.7097 74.2598C79.2597 74.1598 79.7997 74.0698 80.2797 73.9898L79.6997 75.9198L79.1197 77.8498C78.4097 77.8398 77.5797 77.8698 76.7097 77.9198C75.8497 77.9698 74.9497 78.0398 74.1297 78.1198C73.6997 78.1598 73.3197 78.3698 73.0597 78.6798C72.7997 78.9898 72.6597 79.3998 72.6997 79.8298C72.7397 80.2598 72.9497 80.6398 73.2597 80.8998C73.5697 81.1598 73.9797 81.2998 74.4097 81.2598C75.0397 81.1998 75.7097 81.1498 76.3497 81.1098C76.9997 81.0698 77.6197 81.0298 78.1597 81.0098L77.3597 83.6698L76.5597 86.3298C76.4297 86.7498 76.4897 87.1698 76.6797 87.5298C76.8697 87.8898 77.1997 88.1698 77.6097 88.2898C78.0297 88.4198 78.4497 88.3598 78.8097 88.1698C79.1597 87.9798 79.4497 87.6498 79.5697 87.2398L80.3697 84.5898L81.1697 81.9398C81.6097 82.2598 82.1197 82.6298 82.6297 83.0198C83.1397 83.4098 83.6697 83.8198 84.1597 84.2098C84.2397 84.2798 84.3297 84.3298 84.4197 84.3798C84.5097 84.4298 84.5997 84.4598 84.6997 84.4898C84.9997 84.5798 85.3097 84.5798 85.6097 84.4898C85.8997 84.3998 86.1797 84.2298 86.3797 83.9698C86.6497 83.6298 86.7597 83.2098 86.7197 82.8098C86.6797 82.4098 86.4797 82.0298 86.1397 81.7598C85.4897 81.2398 84.7897 80.6898 84.0897 80.1698C83.3997 79.6498 82.7197 79.1698 82.1197 78.7898L82.7097 76.8398L83.2997 74.8898C83.6797 75.2298 84.0997 75.6098 84.5197 76.0098C84.9397 76.4098 85.3597 76.8198 85.7597 77.2198C85.8597 77.3198 85.9797 77.4098 86.1097 77.4798C86.2397 77.5498 86.3697 77.5998 86.5097 77.6298C86.5197 77.6298 86.5297 77.6398 86.5397 77.6498C86.5497 77.6598 86.5597 77.6598 86.5697 77.6698C86.8397 77.7498 87.1197 77.7598 87.3897 77.6898C87.6597 77.6298 87.9197 77.4898 88.1297 77.2798C88.2997 77.1098 88.4197 76.9098 88.4897 76.6998C88.5597 76.4898 88.5897 76.2698 88.5697 76.0398C88.7197 75.5898 88.8897 75.1298 89.0497 74.6898C89.2097 74.2498 89.3697 73.8198 89.5197 73.4398L90.8697 74.8898L92.2197 76.3398C91.8697 76.9398 91.4897 77.6698 91.1097 78.4198C90.7297 79.1698 90.3597 79.9598 90.0297 80.6798C89.8497 81.0798 89.8397 81.5098 89.9797 81.8798C90.1197 82.2598 90.3997 82.5798 90.7997 82.7598C90.8297 82.7798 90.8697 82.7898 90.8997 82.7998C90.9297 82.8098 90.9697 82.8198 90.9997 82.8398C91.3697 82.9498 91.7597 82.9198 92.0897 82.7698C92.4297 82.6198 92.7097 82.3498 92.8797 81.9898C93.1297 81.4398 93.4097 80.8698 93.6797 80.3098C93.9497 79.7498 94.2197 79.2098 94.4697 78.7498L96.3297 80.7398L98.1897 82.7298C98.2897 82.8298 98.3997 82.9198 98.5197 82.9998C98.6397 83.0698 98.7597 83.1298 98.8897 83.1698C99.1497 83.2498 99.4197 83.2598 99.6897 83.1998C99.9497 83.1398 100.21 83.0098 100.42 82.8198C100.74 82.5198 100.91 82.1298 100.92 81.7198C100.93 81.3198 100.79 80.9098 100.5 80.5898L98.6097 78.5598L96.7197 76.5298C97.2297 76.2998 97.8197 76.0398 98.4297 75.7798C99.0497 75.5198 99.6997 75.2598 100.31 75.0098C100.72 74.8498 101.02 74.5498 101.18 74.1798C101.34 73.8098 101.36 73.3798 101.21 72.9798C101.05 72.5698 100.74 72.2698 100.37 72.1098C99.9997 71.9498 99.5697 71.9298 99.1697 72.0798C98.3697 72.3898 97.5097 72.7398 96.6997 73.0898C95.8797 73.4398 95.1097 73.7998 94.4797 74.1298L93.1397 72.6898L91.7997 71.2498C92.2897 71.0898 92.8397 70.9098 93.3997 70.7498C93.9597 70.5798 94.5397 70.4198 95.0997 70.2798C95.3697 70.2098 95.5997 70.0798 95.7997 69.8898C95.9897 69.7098 96.1397 69.4698 96.2097 69.2098C96.2897 68.9498 96.2997 68.6698 96.2397 68.4098C96.1797 68.1498 96.0597 67.9098 95.8697 67.6998C95.4797 67.2698 95.0797 66.8098 94.6997 66.3598C94.3197 65.9098 93.9497 65.4698 93.6397 65.0698L95.5597 64.6098L97.4797 64.1498C97.8197 64.7698 98.2697 65.4998 98.7597 66.2498C99.2497 66.9998 99.7697 67.7598 100.27 68.4498C100.38 68.5998 100.5 68.7198 100.64 68.8198C100.78 68.9198 100.94 68.9898 101.1 69.0398C101.32 69.1098 101.56 69.1198 101.79 69.0898C102.02 69.0598 102.25 68.9598 102.46 68.8198C102.81 68.5698 103.03 68.1998 103.1 67.7998C103.17 67.3998 103.08 66.9798 102.83 66.6298C102.44 66.0898 102.05 65.4998 101.67 64.9398C101.3 64.3798 100.95 63.8398 100.66 63.3798L103.36 62.7298L106.06 62.0798C106.48 61.9798 106.82 61.7198 107.03 61.3698C107.21 60.9998 107.29 60.5798 107.18 60.1598ZM78.4897 65.4398C78.2997 65.1598 78.0797 64.8398 77.8197 64.4998C77.5597 64.1598 77.2697 63.7898 76.9397 63.3898C77.4297 63.2398 77.8797 63.0898 78.2797 62.9498C78.6797 62.8098 79.0397 62.6698 79.3497 62.5398L80.3697 63.6398L81.3897 64.7398L79.9297 65.0898L78.4897 65.4398ZM81.2397 70.6598C80.8997 70.6798 80.5197 70.7198 80.1097 70.7698C79.6997 70.8198 79.2297 70.8898 78.7297 70.9698C78.8397 70.4798 78.9397 70.0298 79.0097 69.6198C79.0897 69.2098 79.1497 68.8398 79.1897 68.5098L80.6397 68.1598L82.0897 67.8098L81.6597 69.2298L81.2397 70.6598ZM83.6797 62.5598L82.6597 61.4698L81.6397 60.3798C81.7897 60.0798 81.9397 59.7398 82.1097 59.3498C82.2697 58.9698 82.4397 58.5398 82.6197 58.0698C82.9897 58.4198 83.3397 58.7298 83.6597 58.9998C83.9797 59.2698 84.2797 59.5098 84.5497 59.7198L84.1197 61.1398L83.6797 62.5598ZM87.5397 60.6498C87.8697 60.6298 88.2497 60.5998 88.6597 60.5598C89.0797 60.5098 89.5397 60.4498 90.0497 60.3598C89.9397 60.8398 89.8497 61.2698 89.7697 61.6698C89.6997 62.0698 89.6397 62.4298 89.5997 62.7598L88.1497 63.1098L86.6997 63.4598L87.1197 62.0498L87.5397 60.6498ZM86.1997 73.1598C85.8197 72.8098 85.4697 72.4998 85.1497 72.2298C84.8297 71.9598 84.5397 71.7298 84.2597 71.5298L84.6797 70.1198L85.0997 68.7098L86.1197 69.7998L87.1397 70.8898C86.9897 71.1898 86.8397 71.5198 86.6797 71.8998C86.5397 72.2798 86.3797 72.6998 86.1997 73.1598ZM89.4297 68.7298L88.4097 67.6298L87.3897 66.5298L88.8497 66.1798L90.3097 65.8298C90.4997 66.1098 90.7197 66.4298 90.9797 66.7698C91.2397 67.1098 91.5297 67.4798 91.8597 67.8798C91.3697 68.0298 90.9197 68.1798 90.5197 68.3198C90.1097 68.4598 89.7497 68.5998 89.4297 68.7298Z" fill="#F2F2F3"></path> <path d="M78.0599 88.8097C77.8599 88.8097 77.6599 88.7797 77.4599 88.7197C76.9299 88.5597 76.4899 88.1997 76.2299 87.7197C75.9699 87.2297 75.9099 86.6697 76.0699 86.1397L77.4599 81.4997C77.1099 81.5197 76.7399 81.5397 76.3699 81.5597C75.7299 81.5997 75.0599 81.6497 74.4399 81.7097C73.8799 81.7597 73.3499 81.5897 72.9199 81.2397C72.4899 80.8897 72.2299 80.3897 72.1799 79.8397C72.1299 79.2897 72.2999 78.7497 72.6499 78.3197C72.9999 77.8897 73.4999 77.6297 74.0499 77.5797C74.8799 77.4997 75.7799 77.4297 76.6499 77.3797C77.4299 77.3397 78.1199 77.3097 78.7099 77.3097L79.5299 74.5797C79.2799 74.6197 79.0199 74.6697 78.7599 74.7197C78.2199 74.8197 77.6599 74.9297 77.1399 75.0397C76.9599 75.0797 76.7699 75.0897 76.5699 75.0697C76.4399 75.0597 76.2999 75.0297 76.1499 74.9897C76.0999 74.9897 76.0399 74.9797 75.9799 74.9597C75.8799 74.9297 75.7999 74.8797 75.7399 74.8297L75.6199 74.7597C75.5699 74.7297 75.5299 74.7097 75.4999 74.6797L75.3699 74.6197C75.2799 74.5697 75.1699 74.4997 75.0699 74.3997C74.8299 74.1397 74.6499 73.8197 74.5699 73.4797C74.4799 73.1397 74.4899 72.7697 74.5799 72.4297C74.7199 71.9097 74.8699 71.3397 74.9999 70.7897C75.0699 70.5097 75.1299 70.2397 75.1899 69.9797L72.7499 70.5697C72.7099 71.1597 72.6499 71.8497 72.5499 72.6397C72.4499 73.5097 72.3199 74.3997 72.1899 75.2297C72.1099 75.7797 71.8099 76.2597 71.3699 76.5897C70.9199 76.9197 70.3699 77.0497 69.8299 76.9697C69.7799 76.9597 69.7299 76.9497 69.6799 76.9397C69.6399 76.9297 69.5899 76.9197 69.5399 76.8997C69.0699 76.7597 68.6599 76.4497 68.3899 76.0297C68.1199 75.6097 68.0099 75.0997 68.0899 74.5997C68.1799 73.9897 68.2799 73.3297 68.3599 72.6897C68.4099 72.3097 68.4499 71.9497 68.4899 71.5997L63.6099 72.7697C63.4199 72.8097 63.2399 72.8297 63.0599 72.8197C62.8799 72.8097 62.6999 72.7897 62.5299 72.7297C62.1899 72.6297 61.8799 72.4397 61.6299 72.1797C61.3799 71.9197 61.1999 71.5897 61.1099 71.2297C60.9799 70.6897 61.0699 70.1297 61.3599 69.6597C61.6499 69.1897 62.1099 68.8597 62.6399 68.7297L67.5399 67.5497C67.3499 67.2597 67.1499 66.9497 66.9399 66.6297C66.5799 66.0997 66.2099 65.5497 65.8399 65.0297C65.5199 64.5797 65.3899 64.0297 65.4899 63.4797C65.5799 62.9297 65.8799 62.4597 66.3399 62.1397C66.7899 61.8197 67.3399 61.6897 67.8899 61.7897C68.4299 61.8797 68.9099 62.1897 69.2299 62.6397C69.7099 63.3197 70.2199 64.0597 70.6999 64.7897C71.1199 65.4397 71.4899 66.0197 71.7899 66.5397L74.2999 65.9397C74.1199 65.7297 73.9399 65.4997 73.7499 65.2797C73.3699 64.8297 72.9799 64.3697 72.5899 63.9497C72.3499 63.6897 72.1799 63.3697 72.1099 63.0197C72.0299 62.6797 72.0499 62.3097 72.1499 61.9697C72.2499 61.6297 72.4399 61.3197 72.6999 61.0697C72.9599 60.8197 73.2699 60.6497 73.6199 60.5597C74.1599 60.4197 74.7399 60.2597 75.2999 60.0897C75.5899 60.0097 75.8699 59.9197 76.1399 59.8297L74.3899 57.9497C73.8599 58.2097 73.2299 58.4997 72.5199 58.8097C71.7199 59.1497 70.8899 59.4897 70.1099 59.7897C69.8899 59.8797 69.6599 59.9197 69.4299 59.9297C69.2099 59.9397 68.9799 59.9097 68.7599 59.8397C68.4599 59.7497 68.1899 59.5897 67.9599 59.3897C67.7199 59.1697 67.5399 58.9097 67.4199 58.6097C67.2199 58.0897 67.2299 57.5297 67.4599 57.0197C67.6799 56.5097 68.0899 56.1197 68.6099 55.9197C69.1899 55.6897 69.8099 55.4397 70.3999 55.1897C70.7499 55.0397 71.0899 54.8997 71.4199 54.7497L67.9799 51.0697C67.5999 50.6597 67.3999 50.1297 67.4199 49.5797C67.4399 49.0297 67.6699 48.5097 68.0799 48.1397C68.4799 47.7597 69.0099 47.5697 69.5699 47.5797C70.1199 47.5997 70.6399 47.8297 71.0099 48.2397L74.4399 51.9097C74.5999 51.5997 74.7599 51.2697 74.9299 50.9297C75.2099 50.3497 75.4999 49.7497 75.7599 49.1797C75.9899 48.6797 76.4099 48.2997 76.9299 48.0997C77.4499 47.9097 78.0099 47.9297 78.5099 48.1597C79.0099 48.3897 79.3899 48.8097 79.5899 49.3197C79.7799 49.8397 79.7599 50.3997 79.5299 50.9097C79.1799 51.6697 78.7899 52.4797 78.3999 53.2597C78.0499 53.9597 77.7199 54.5797 77.4299 55.0897L79.1499 56.9297C79.2399 56.6797 79.3399 56.4197 79.4299 56.1597C79.6199 55.6197 79.8199 55.0697 79.9899 54.5397C80.0999 54.1997 80.2999 53.8997 80.5599 53.6597C80.8199 53.4197 81.1399 53.2497 81.4899 53.1697C81.6399 53.1297 81.7699 53.1397 81.8599 53.1497L81.9999 53.6897L81.9699 53.1897H81.9899L82.3999 53.2197C82.4799 53.2297 82.5499 53.2497 82.6199 53.2797C82.7599 53.3097 82.9199 53.3697 83.0699 53.4497C83.2499 53.5397 83.3999 53.6597 83.5399 53.7897C83.9099 54.1597 84.3099 54.5597 84.7099 54.9397C84.8999 55.1297 85.0999 55.3097 85.2899 55.4797L86.0199 53.0397C85.5299 52.7097 84.9599 52.3097 84.3399 51.8497C83.6399 51.3297 82.9299 50.7697 82.2799 50.2497C81.8499 49.8997 81.5799 49.4097 81.5199 48.8597C81.4599 48.3097 81.6199 47.7697 81.9599 47.3397C82.3099 46.9097 82.7999 46.6397 83.3499 46.5797C83.9099 46.5197 84.4399 46.6797 84.8699 47.0297C85.3499 47.4197 85.8799 47.8297 86.3899 48.2097C86.6899 48.4397 86.9899 48.6597 87.2699 48.8697L88.7499 43.9597C88.9099 43.4297 89.2699 42.9897 89.7499 42.7297C90.2399 42.4697 90.7999 42.4097 91.3299 42.5697C91.8599 42.7297 92.2999 43.0897 92.5599 43.5697C92.8199 44.0597 92.8799 44.6197 92.7199 45.1497L91.2399 50.0697C91.5899 50.0497 91.9599 50.0297 92.3299 49.9997C92.9699 49.9597 93.6399 49.9097 94.2599 49.8497C94.7999 49.7897 95.3499 49.9597 95.7699 50.3197C96.1999 50.6797 96.4599 51.1697 96.5099 51.7297C96.5599 52.2797 96.3899 52.8197 96.0399 53.2497C95.6899 53.6797 95.1899 53.9397 94.6299 53.9897C93.7999 54.0697 92.8999 54.1397 92.0299 54.1897C91.2499 54.2297 90.5599 54.2597 89.9699 54.2597L89.2199 56.7697C89.4899 56.7197 89.7699 56.6797 90.0499 56.6197C90.6199 56.5197 91.2099 56.3997 91.7599 56.2897C91.9099 56.2597 92.0699 56.2497 92.2399 56.2597C92.3799 56.2697 92.5199 56.2997 92.6599 56.3297L92.8799 56.3797C93.1899 56.4497 93.5199 56.6397 93.7899 56.9097C94.0699 57.1897 94.2599 57.5397 94.3399 57.9297C94.3999 58.2297 94.3999 58.5397 94.3199 58.8397C94.2599 59.0897 94.1499 59.3197 93.9999 59.5297C93.8899 59.9497 93.7799 60.3797 93.6799 60.8097C93.6399 60.9897 93.5999 61.1597 93.5599 61.3297L96.2699 60.6797C96.3099 60.0997 96.3799 59.4297 96.4699 58.6697C96.5699 57.8297 96.6899 56.9697 96.8199 56.1697C96.8999 55.6197 97.1999 55.1397 97.6399 54.8097C98.0899 54.4797 98.6299 54.3497 99.1799 54.4297C99.6999 54.4997 100.2 54.7897 100.53 55.2397C100.86 55.6897 101 56.2397 100.92 56.7897C100.83 57.3797 100.74 57.9997 100.67 58.6097C100.62 58.9597 100.58 59.3097 100.55 59.6397L105.15 58.5297C105.69 58.3997 106.24 58.4897 106.72 58.7797C107.19 59.0697 107.53 59.5297 107.66 60.0597C107.79 60.5997 107.7 61.1597 107.41 61.6297C107.12 62.0997 106.66 62.4297 106.13 62.5597L101.41 63.6997C101.61 64.0097 101.82 64.3297 102.04 64.6697C102.41 65.2297 102.8 65.7997 103.19 66.3397C103.51 66.7897 103.64 67.3397 103.54 67.8897C103.45 68.4397 103.14 68.9097 102.69 69.2297C102.43 69.4097 102.13 69.5397 101.81 69.5897C101.51 69.6397 101.19 69.6097 100.89 69.5297C100.67 69.4697 100.47 69.3697 100.28 69.2297C100.09 69.0997 99.9299 68.9297 99.7899 68.7397C99.2899 68.0397 98.7599 67.2697 98.2699 66.5197C97.8299 65.8397 97.4599 65.2397 97.1599 64.7297L94.4599 65.3797C94.6399 65.5897 94.8199 65.8197 95.0099 66.0397C95.3899 66.4897 95.7899 66.9497 96.1699 67.3697C96.4099 67.6297 96.5699 67.9497 96.6499 68.2997C96.7299 68.6497 96.7099 69.0097 96.6099 69.3497C96.5099 69.6897 96.3199 69.9997 96.0599 70.2497C95.8099 70.4997 95.4899 70.6697 95.1399 70.7597C94.5999 70.8997 94.0199 71.0597 93.4599 71.2297C93.1699 71.3097 92.8899 71.3997 92.6199 71.4897L94.4999 73.5097C95.0399 73.2397 95.6799 72.9497 96.4199 72.6297C97.2399 72.2697 98.1099 71.9197 98.9099 71.6097C99.4199 71.4097 99.9799 71.4197 100.49 71.6397C101 71.8597 101.39 72.2697 101.59 72.7897C101.79 73.3097 101.78 73.8697 101.55 74.3797C101.33 74.8897 100.92 75.2797 100.4 75.4797C99.7899 75.7197 99.1399 75.9797 98.5299 76.2397C98.1599 76.3997 97.7999 76.5497 97.4599 76.6997L100.77 80.2497C101.15 80.6597 101.35 81.1797 101.33 81.7397C101.31 82.2897 101.08 82.8097 100.67 83.1797C100.4 83.4297 100.07 83.6097 99.7099 83.6897C99.3599 83.7697 98.9999 83.7497 98.6599 83.6497C98.4899 83.5997 98.3199 83.5297 98.1699 83.4297C98.0099 83.3297 97.8699 83.2097 97.7399 83.0797L94.5099 79.6197C94.3599 79.9197 94.2099 80.2297 94.0499 80.5397C93.7799 81.0897 93.5099 81.6697 93.2599 82.2097C93.0499 82.6697 92.6799 83.0297 92.2199 83.2297C91.7699 83.4297 91.2599 83.4697 90.7799 83.3197L90.5099 83.2197C90.0099 82.9897 89.6199 82.5697 89.4299 82.0497C89.2399 81.5297 89.2599 80.9697 89.4899 80.4597C89.8299 79.7297 90.1999 78.9397 90.5799 78.1797C90.9199 77.4897 91.2399 76.8997 91.5199 76.3897L89.6099 74.3397C89.5499 74.4997 89.4899 74.6597 89.4299 74.8297C89.2799 75.2397 89.1299 75.6597 88.9899 76.0797C88.9999 76.3397 88.9599 76.5897 88.8799 76.8297C88.7799 77.1197 88.6199 77.3797 88.3999 77.5997C88.1299 77.8697 87.7899 78.0497 87.4299 78.1397C87.0699 78.2297 86.6999 78.2097 86.3499 78.1097L86.2299 78.0597C86.1099 78.0297 85.9499 77.9697 85.8099 77.8897C85.6399 77.7997 85.4799 77.6797 85.3399 77.5397C84.9499 77.1397 84.5299 76.7297 84.1099 76.3397C83.8999 76.1397 83.6899 75.9397 83.4899 75.7597L82.6499 78.5397C83.1399 78.8697 83.7099 79.2697 84.3299 79.7297C85.0299 80.2497 85.7399 80.7997 86.3899 81.3297C86.8199 81.6697 87.0899 82.1697 87.1499 82.7197C87.2099 83.2697 87.0499 83.8097 86.7099 84.2397C86.4499 84.5697 86.0899 84.8097 85.6899 84.9297C85.2999 85.0497 84.8799 85.0497 84.4899 84.9297C84.3699 84.8897 84.2399 84.8397 84.1299 84.7797C84.0099 84.7197 83.8999 84.6397 83.7899 84.5597C83.2999 84.1697 82.7799 83.7597 82.2699 83.3797C81.9699 83.1497 81.6699 82.9297 81.3899 82.7197L79.9999 87.3497C79.8399 87.8797 79.4799 88.3197 78.9999 88.5797C78.7299 88.7297 78.3999 88.8097 78.0599 88.8097ZM78.8199 80.4497L77.0199 86.4297C76.9399 86.6997 76.9699 86.9997 77.0999 87.2497C77.2299 87.4997 77.4599 87.6897 77.7399 87.7697C78.0199 87.8497 78.3099 87.8197 78.5599 87.6897C78.8099 87.5497 78.9999 87.3297 79.0799 87.0497L80.8699 81.0797L81.4399 81.4897C81.8899 81.8097 82.3999 82.1797 82.9199 82.5797C83.4399 82.9697 83.9699 83.3897 84.4599 83.7797C84.5199 83.8197 84.5799 83.8597 84.6399 83.8997C84.6999 83.9297 84.7599 83.9597 84.8299 83.9797C85.0299 84.0397 85.2499 84.0397 85.4499 83.9797C85.6599 83.9197 85.8399 83.7897 85.9799 83.6197C86.1599 83.3997 86.2399 83.1197 86.2099 82.8297C86.1799 82.5397 86.0399 82.2897 85.8199 82.1097C85.1799 81.5897 84.4799 81.0497 83.7899 80.5297C83.0399 79.9797 82.3899 79.5197 81.8499 79.1697L81.5299 78.9697L83.0399 73.9597L83.6199 74.4797C83.9999 74.8197 84.4299 75.2097 84.8499 75.6097C85.2699 76.0097 85.6999 76.4297 86.0999 76.8397C86.1699 76.9097 86.2399 76.9597 86.3299 77.0097C86.4199 77.0597 86.5099 77.0897 86.6099 77.1197L86.7599 77.1797C86.9299 77.2197 87.0899 77.2197 87.2499 77.1797C87.4399 77.1297 87.6099 77.0397 87.7499 76.8997C87.8599 76.7897 87.9399 76.6597 87.9899 76.5197C88.0399 76.3797 88.0599 76.2197 88.0499 76.0597L88.0399 75.9597L88.0699 75.8597C88.2199 75.3997 88.3899 74.9397 88.5499 74.4997C88.7099 74.0497 88.8699 73.6297 89.0199 73.2397L89.3099 72.4997L92.8199 76.2597L92.6299 76.5797C92.3099 77.1197 91.9399 77.8097 91.5299 78.6297C91.1499 79.3797 90.7899 80.1597 90.4499 80.8797C90.3299 81.1397 90.3199 81.4297 90.4199 81.6997C90.5199 81.9697 90.7199 82.1797 90.9799 82.2997V82.8297L91.1199 82.3497C91.3699 82.4197 91.6299 82.4097 91.8699 82.2997C92.1099 82.1897 92.2999 82.0097 92.4099 81.7697C92.6599 81.2197 92.9399 80.6397 93.2099 80.0797C93.4899 79.5197 93.7599 78.9797 93.9999 78.4997L94.3299 77.8697L98.5299 82.3697C98.5899 82.4397 98.6699 82.4997 98.7499 82.5497C98.8299 82.5997 98.9099 82.6397 98.9999 82.6597C99.1799 82.7097 99.3699 82.7197 99.5499 82.6797C99.7299 82.6397 99.9099 82.5497 100.05 82.4197C100.26 82.2197 100.38 81.9597 100.39 81.6697C100.4 81.3797 100.3 81.1097 100.1 80.8997L95.8499 76.3397L96.4799 76.0497C96.9899 75.8097 97.5799 75.5497 98.2099 75.2897C98.8299 75.0297 99.4799 74.7597 100.11 74.5197C100.38 74.4197 100.59 74.2097 100.7 73.9497C100.82 73.6897 100.82 73.3997 100.72 73.1297C100.62 72.8597 100.41 72.6497 100.15 72.5397C99.8899 72.4197 99.5899 72.4197 99.3299 72.5197C98.5399 72.8297 97.6799 73.1697 96.8699 73.5197C95.9899 73.8997 95.2499 74.2497 94.6799 74.5497L94.3399 74.7297L90.8599 70.9997L91.5999 70.7497C92.0899 70.5897 92.6399 70.4097 93.2199 70.2397C93.7899 70.0697 94.3799 69.9097 94.9299 69.7597C95.1099 69.7097 95.2699 69.6197 95.3999 69.4997C95.5299 69.3697 95.6299 69.2097 95.6799 69.0297C95.7299 68.8497 95.7399 68.6697 95.6999 68.4897C95.6599 68.3097 95.5699 68.1397 95.4499 68.0097C95.0599 67.5697 94.6599 67.1097 94.2699 66.6497C93.8899 66.1897 93.5199 65.7497 93.1999 65.3597L92.7099 64.7497L97.6799 63.5497L97.8599 63.8797C98.1699 64.4397 98.5899 65.1397 99.1199 65.9397C99.5999 66.6797 100.13 67.4397 100.62 68.1297C100.69 68.2297 100.78 68.3197 100.87 68.3797C100.97 68.4497 101.07 68.4997 101.18 68.5297C101.33 68.5797 101.5 68.5897 101.66 68.5597C101.82 68.5297 101.98 68.4697 102.11 68.3797C102.35 68.2097 102.5 67.9697 102.55 67.6797C102.6 67.3997 102.53 67.1097 102.37 66.8797C101.98 66.3297 101.58 65.7497 101.2 65.1797C100.82 64.6197 100.47 64.0697 100.18 63.5997L99.8099 63.0097L105.89 61.5497C106.17 61.4797 106.41 61.3097 106.56 61.0697C106.71 60.8297 106.75 60.5397 106.69 60.2597C106.62 59.9797 106.45 59.7397 106.21 59.5897C105.97 59.4397 105.67 59.3897 105.4 59.4597L99.4299 60.8997L99.4999 60.1997C99.5499 59.6597 99.6199 59.0597 99.6999 58.4397C99.7799 57.8197 99.8699 57.1897 99.9599 56.5897C99.9999 56.3097 99.9299 56.0197 99.7599 55.7797C99.5899 55.5497 99.3399 55.3997 99.0799 55.3597C98.7899 55.3197 98.4999 55.3797 98.2699 55.5497C98.0399 55.7197 97.8899 55.9697 97.8399 56.2497C97.7199 57.0297 97.5999 57.8897 97.4999 58.7197C97.3899 59.6297 97.3199 60.4097 97.2799 61.0397L97.2599 61.4097L92.2799 62.6097L92.4399 61.8397C92.5299 61.4297 92.6299 60.9797 92.7299 60.5197C92.8399 60.0597 92.9599 59.5897 93.0799 59.1297L93.1699 58.9497C93.2699 58.8197 93.3399 58.6797 93.3699 58.5397C93.4099 58.3897 93.4099 58.2397 93.3799 58.0897C93.3399 57.8897 93.2399 57.7097 93.0999 57.5697C92.9599 57.4297 92.7799 57.3297 92.5899 57.2797L92.4799 57.2597C92.3599 57.2297 92.2699 57.2197 92.1899 57.2097C92.1099 57.1997 92.0399 57.2097 91.9799 57.2197C91.4299 57.3397 90.8299 57.4497 90.2499 57.5597C89.6699 57.6597 89.1099 57.7597 88.6099 57.8397L87.8299 57.9597L89.2599 53.1997L89.6399 53.2097C90.2899 53.2197 91.0799 53.1997 92.0099 53.1497C92.8699 53.0997 93.7499 53.0297 94.5699 52.9497C94.8599 52.9197 95.1099 52.7897 95.2999 52.5697C95.4799 52.3497 95.5699 52.0697 95.5399 51.7797C95.5099 51.4897 95.3799 51.2297 95.1499 51.0497C94.9299 50.8697 94.6499 50.7797 94.3699 50.8097C93.7399 50.8697 93.0599 50.9197 92.4099 50.9597C91.7599 50.9997 91.1299 51.0397 90.5899 51.0597L89.8899 51.0897L91.7699 44.8297C91.8499 44.5597 91.8199 44.2697 91.6899 44.0097C91.5599 43.7497 91.3299 43.5697 91.0499 43.4897C90.7699 43.4097 90.4799 43.4397 90.2299 43.5697C89.9799 43.7097 89.7899 43.9297 89.7099 44.2097L87.8299 50.4697L87.2599 50.0597C86.8099 49.7397 86.2999 49.3597 85.7899 48.9697C85.2699 48.5797 84.7399 48.1597 84.2499 47.7697C84.0299 47.5897 83.7399 47.5097 83.4599 47.5397C83.1699 47.5697 82.9199 47.7097 82.7399 47.9397C82.5599 48.1597 82.4799 48.4397 82.5099 48.7297C82.5399 49.0097 82.6799 49.2697 82.9099 49.4497C83.5499 49.9697 84.2499 50.5097 84.9399 51.0297C85.6799 51.5797 86.3399 52.0397 86.8799 52.3897L87.1999 52.5897L85.7999 57.2597L85.2099 56.7397C84.8399 56.4097 84.4299 56.0297 84.0299 55.6397C83.6199 55.2497 83.2199 54.8597 82.8399 54.4697C82.7799 54.4097 82.7099 54.3597 82.6299 54.3097C82.5499 54.2697 82.4599 54.2397 82.3499 54.2097L82.2499 54.1797L82.1899 53.6697L82.0899 54.1697C81.9399 54.1697 81.8899 54.1597 81.8299 54.1597L81.7099 54.1497C81.5299 54.1897 81.3699 54.2797 81.2299 54.3997C81.0899 54.5197 80.9899 54.6797 80.9399 54.8597C80.7699 55.3897 80.5699 55.9597 80.3699 56.5097C80.1699 57.0597 79.9799 57.5897 79.7999 58.0497L79.5099 58.7997L76.1899 55.2397L76.3799 54.9197C76.7099 54.3597 77.0899 53.6597 77.5099 52.8297C77.8999 52.0597 78.2799 51.2497 78.6199 50.5097C78.7399 50.2497 78.7499 49.9597 78.6499 49.6897C78.5499 49.4197 78.3499 49.2097 78.0899 49.0897C77.8399 48.9697 77.5499 48.9597 77.2799 49.0597C77.0099 49.1597 76.7899 49.3597 76.6699 49.6197C76.3999 50.1897 76.1099 50.7997 75.8299 51.3897C75.5399 51.9797 75.2599 52.5397 75.0099 53.0197L74.6799 53.6397L70.2899 48.9297C70.0899 48.7197 69.8299 48.5997 69.5399 48.5897C69.2699 48.5897 68.9799 48.6797 68.7699 48.8797C68.5599 49.0797 68.4399 49.3397 68.4299 49.6297C68.4199 49.9197 68.5199 50.1897 68.7199 50.3997L73.1099 55.0997L72.4799 55.3897C71.9799 55.6197 71.3999 55.8697 70.7999 56.1197C70.1999 56.3697 69.5799 56.6197 68.9899 56.8597C68.7199 56.9597 68.5099 57.1697 68.3999 57.4297C68.2799 57.6897 68.2799 57.9797 68.3799 58.2497C68.4399 58.4097 68.5399 58.5397 68.6599 58.6597C68.7799 58.7697 68.9199 58.8497 69.0799 58.8897C69.1899 58.9197 69.2999 58.9397 69.4299 58.9297C69.5499 58.9297 69.6699 58.8997 69.7799 58.8597C70.5399 58.5597 71.3699 58.2297 72.1499 57.8897C72.9999 57.5297 73.7199 57.1897 74.2999 56.8897L74.6399 56.7197L77.9699 60.2897L77.2299 60.5397C76.7399 60.6997 76.1799 60.8797 75.6099 61.0497C75.0399 61.2197 74.4499 61.3797 73.8999 61.5297C73.7199 61.5797 73.5599 61.6697 73.4199 61.7897C73.2899 61.9197 73.1899 62.0797 73.1399 62.2497C73.0899 62.4297 73.0799 62.6097 73.1199 62.7897C73.1599 62.9697 73.2499 63.1397 73.3699 63.2697C73.7599 63.7097 74.1599 64.1697 74.5499 64.6297C74.9299 65.0897 75.2999 65.5297 75.6199 65.9197L76.1099 66.5297L71.3299 67.6797L71.1499 67.3497C70.8299 66.7797 70.4199 66.0997 69.9099 65.3397C69.4399 64.6197 68.9399 63.8897 68.4599 63.2197C68.2899 62.9897 68.0499 62.8297 67.7599 62.7797C67.4799 62.7297 67.1899 62.7997 66.9599 62.9597C66.7199 63.1297 66.5699 63.3697 66.5199 63.6597C66.4699 63.9397 66.5399 64.2297 66.6999 64.4597C67.0699 64.9797 67.4499 65.5397 67.8199 66.0797C68.1799 66.6197 68.5199 67.1497 68.8099 67.6097L69.1799 68.1997L62.9199 69.7097C62.6399 69.7797 62.3999 69.9497 62.2499 70.1897C62.0999 70.4297 62.0599 70.7197 62.1199 70.9997C62.1599 71.1897 62.2599 71.3597 62.3899 71.4897C62.5199 71.6197 62.6799 71.7197 62.8499 71.7697C62.9399 71.7997 63.0299 71.8097 63.1199 71.8197C63.2199 71.8197 63.3099 71.8097 63.4099 71.7897L69.6599 70.2897L69.5899 70.9897C69.5399 71.5397 69.4699 72.1697 69.3799 72.8097C69.2999 73.4597 69.2099 74.1197 69.1099 74.7397C69.0699 74.9997 69.1299 75.2597 69.2699 75.4797C69.4099 75.6997 69.6199 75.8597 69.8599 75.9297L69.9299 76.4597L70.0099 75.9697C70.2999 76.0097 70.5799 75.9397 70.8099 75.7697C71.0399 75.5997 71.1899 75.3497 71.2399 75.0697C71.3599 74.2597 71.4899 73.3697 71.5899 72.5197C71.6999 71.5797 71.7699 70.7897 71.7999 70.1497L71.8199 69.7697L76.5299 68.6397L76.3699 69.4097C76.2699 69.9097 76.1399 70.4597 76.0099 71.0297C75.8699 71.5897 75.7299 72.1697 75.5799 72.6997C75.5299 72.8797 75.5299 73.0597 75.5699 73.2397C75.6099 73.4197 75.6999 73.5797 75.8299 73.7197L75.6399 74.1797L75.9299 73.7697C75.9799 73.7997 76.0399 73.8197 76.0899 73.8597L75.9199 74.3397L76.1499 73.9997C76.1599 73.9997 76.1599 73.9997 76.1699 73.9997L76.2099 73.9497C76.2399 73.9597 76.2699 73.9797 76.2999 73.9997C76.3199 73.9997 76.3399 74.0097 76.3599 74.0097C76.5099 74.0597 76.5999 74.0797 76.6899 74.0897C76.7799 74.0997 76.8699 74.0997 76.9499 74.0797C77.4799 73.9697 78.0499 73.8597 78.5999 73.7597C79.1499 73.6597 79.6899 73.5697 80.1799 73.4897L80.9699 73.3597L79.4699 78.3397L79.0899 78.3297C78.4399 78.3197 77.6399 78.3397 76.7199 78.3897C75.8599 78.4397 74.9799 78.5097 74.1599 78.5797C73.8699 78.6097 73.6199 78.7397 73.4299 78.9597C73.2499 79.1797 73.1599 79.4597 73.1899 79.7397C73.2199 80.0297 73.3499 80.2797 73.5699 80.4697C73.7899 80.6497 74.0699 80.7397 74.3599 80.7097C74.9899 80.6497 75.6599 80.5997 76.3099 80.5597C76.9599 80.5197 77.5899 80.4797 78.1299 80.4597L78.8199 80.4497ZM86.4099 74.0297L85.8599 73.5197C85.4899 73.1697 85.1399 72.8697 84.8299 72.6097C84.5199 72.3497 84.2299 72.1297 83.9699 71.9297L83.6799 71.7197L84.8799 67.7297L87.7499 70.8097L87.5999 71.1197C87.4599 71.4097 87.3099 71.7297 87.1599 72.0997C86.9999 72.4697 86.8399 72.8797 86.6699 73.3297L86.4099 74.0297ZM84.8499 71.3397C85.0499 71.4897 85.2599 71.6597 85.4799 71.8397C85.6499 71.9797 85.8199 72.1297 86.0099 72.2897C86.0899 72.0897 86.1699 71.8897 86.2499 71.7097C86.3599 71.4497 86.4699 71.2097 86.5699 70.9897L85.3599 69.6897L84.8499 71.3397ZM78.0699 71.5897L78.2399 70.8597C78.3499 70.3797 78.4499 69.9397 78.5199 69.5297C78.5999 69.1297 78.6499 68.7697 78.6899 68.4397L78.7299 68.0997L82.8199 67.1197L81.6099 71.1297L81.2599 71.1497C80.9299 71.1697 80.5599 71.2097 80.1599 71.2597C79.7499 71.3097 79.2999 71.3797 78.7999 71.4597L78.0699 71.5897ZM79.6399 68.9197C79.5999 69.1697 79.5599 69.4397 79.5099 69.7197C79.4699 69.9297 79.4299 70.1397 79.3799 70.3697C79.6099 70.3397 79.8399 70.2997 80.0499 70.2797C80.3399 70.2397 80.6099 70.2097 80.8699 70.1897L81.3799 68.5097L79.6399 68.9197ZM89.3099 69.3297L86.4399 66.2597L90.5299 65.2797L90.7199 65.5697C90.8999 65.8497 91.1199 66.1497 91.3699 66.4797C91.6199 66.8097 91.9099 67.1797 92.2399 67.5697L92.7199 68.1497L91.9999 68.3697C91.5099 68.5197 91.0799 68.6597 90.6799 68.7997C90.2899 68.9397 89.9399 69.0697 89.6399 69.1997L89.3099 69.3297ZM88.3399 66.8197L89.5599 68.1297C89.7999 68.0297 90.0599 67.9397 90.3399 67.8397C90.5499 67.7697 90.7699 67.6897 90.9999 67.6197C90.8499 67.4297 90.7099 67.2497 90.5799 67.0697C90.3999 66.8297 90.2399 66.6097 90.0899 66.3997L88.3399 66.8197ZM78.2699 66.0097L78.0799 65.7197C77.8999 65.4397 77.6799 65.1397 77.4299 64.8097C77.1799 64.4797 76.8899 64.1097 76.5599 63.7197L76.0799 63.1397L76.7999 62.9197C77.2899 62.7697 77.7299 62.6297 78.1199 62.4897C78.5099 62.3497 78.8599 62.2197 79.1599 62.0897L79.4799 61.9497L82.3499 65.0297L78.2699 66.0097ZM77.7899 63.6497C77.9399 63.8397 78.0799 64.0197 78.2199 64.1997C78.3999 64.4397 78.5599 64.6597 78.7099 64.8697L80.4599 64.4497L79.2399 63.1397C78.9999 63.2397 78.7399 63.3297 78.4599 63.4297C78.2399 63.4997 78.0299 63.5797 77.7899 63.6497ZM85.9599 64.1597L87.1599 60.1697L87.5099 60.1497C87.8399 60.1297 88.1999 60.1097 88.5999 60.0597C89.0099 60.0097 89.4599 59.9497 89.9599 59.8697L90.6999 59.7497L90.5299 60.4797C90.4199 60.9497 90.3299 61.3797 90.2599 61.7697C90.1899 62.1597 90.1299 62.5097 90.0899 62.8297L90.0499 63.1697L85.9599 64.1597ZM87.9199 61.1297L87.4199 62.7797L89.1499 62.3597C89.1899 62.1197 89.2299 61.8597 89.2799 61.5797C89.3199 61.3797 89.3599 61.1797 89.3999 60.9597C89.1599 60.9897 88.9299 61.0197 88.7099 61.0497C88.4299 61.0897 88.1699 61.1097 87.9199 61.1297ZM83.9099 63.5397L81.0399 60.4597L81.1899 60.1497C81.3399 59.8597 81.4899 59.5197 81.6399 59.1497C81.7999 58.7697 81.9699 58.3497 82.1399 57.8897L82.3999 57.1897L82.9499 57.6997C83.3199 58.0397 83.6599 58.3497 83.9699 58.6197C84.2799 58.8897 84.5699 59.1197 84.8299 59.3197L85.1099 59.5297L83.9099 63.5397ZM82.2399 60.2797L83.4499 61.5797L83.9599 59.8997C83.7599 59.7397 83.5499 59.5697 83.3299 59.3797C83.1699 59.2397 82.9999 59.0897 82.8199 58.9297C82.7399 59.1397 82.6499 59.3497 82.5699 59.5397C82.4499 59.8097 82.3399 60.0497 82.2399 60.2797Z" fill="#696969"></path> <path d="M77.57 88.3395C77.14 88.2095 76.79 87.9195 76.58 87.5295C76.37 87.1395 76.32 86.6895 76.45 86.2595L78.01 81.0795C77.51 81.0995 76.93 81.1295 76.34 81.1695C75.67 81.2095 75 81.2695 74.4 81.3195C73.95 81.3595 73.52 81.2295 73.18 80.9395C72.84 80.6595 72.63 80.2495 72.58 79.8095C72.54 79.3695 72.67 78.9295 72.96 78.5895C73.25 78.2495 73.65 78.0395 74.09 77.9995C75 77.9195 75.87 77.8495 76.67 77.7995C77.58 77.7495 78.37 77.7295 79.01 77.7295L80.1 74.0895C79.66 74.1595 79.17 74.2495 78.69 74.3295C78.11 74.4395 77.56 74.5395 77.06 74.6495C76.92 74.6795 76.77 74.6895 76.62 74.6695C76.49 74.6595 76.35 74.6295 76.21 74.5795C76.12 74.5895 76.05 74.5495 75.99 74.5095C75.96 74.4895 75.94 74.4695 75.92 74.4595C75.88 74.4395 75.85 74.4195 75.82 74.4095C75.79 74.3895 75.76 74.3695 75.73 74.3495C75.7 74.3295 75.66 74.3095 75.62 74.2895L75.55 74.2595C75.49 74.2295 75.42 74.1895 75.36 74.1195C75.16 73.9095 75.02 73.6595 74.96 73.3795C74.89 73.0995 74.9 72.8095 74.97 72.5395C75.11 72.0295 75.26 71.4595 75.4 70.8895C75.52 70.3795 75.64 69.8795 75.73 69.4395L72.37 70.2495C72.34 70.8895 72.27 71.6695 72.16 72.5895C72.07 73.3695 71.95 74.2295 71.81 75.1595C71.74 75.5995 71.51 75.9895 71.15 76.2495C70.79 76.5095 70.35 76.6195 69.91 76.5495C69.87 76.5395 69.83 76.5395 69.79 76.5295C69.36 76.4195 68.99 76.1695 68.75 75.7995C68.53 75.4595 68.45 75.0495 68.51 74.6495C68.6 74.0395 68.7 73.3795 68.78 72.7295C68.86 72.1295 68.92 71.5595 68.97 71.0595L63.53 72.3695C63.38 72.3995 63.23 72.4195 63.09 72.4095C62.66 72.3995 62.24 72.2095 61.94 71.8995C61.74 71.6895 61.59 71.4195 61.52 71.1295C61.42 70.6995 61.49 70.2495 61.72 69.8695C61.95 69.4895 62.32 69.2195 62.75 69.1195L68.21 67.8095C67.93 67.3695 67.62 66.8895 67.3 66.4095C66.93 65.8595 66.55 65.2995 66.19 64.7995C65.93 64.4395 65.83 63.9895 65.91 63.5595C65.98 63.1195 66.23 62.7395 66.59 62.4795C66.95 62.2195 67.4 62.1195 67.84 62.1995C68.28 62.2695 68.66 62.5195 68.92 62.8795C69.45 63.6295 69.94 64.3395 70.38 65.0095C70.88 65.7695 71.29 66.4395 71.61 66.9995L75.04 66.1695C74.74 65.7995 74.41 65.3995 74.07 64.9995C73.66 64.5195 73.27 64.0695 72.9 63.6595C72.71 63.4495 72.57 63.1895 72.51 62.9095C72.45 62.6295 72.46 62.3395 72.54 62.0695C72.62 61.7995 72.77 61.5495 72.98 61.3495C73.19 61.1495 73.44 61.0095 73.72 60.9395C74.26 60.7995 74.83 60.6395 75.41 60.4695C75.92 60.3195 76.42 60.1595 76.87 60.0095L74.47 57.4395C73.9 57.7295 73.18 58.0595 72.35 58.4195C71.62 58.7295 70.82 59.0595 69.96 59.3995C69.78 59.4695 69.6 59.5095 69.41 59.5095C68.98 59.5195 68.55 59.3695 68.23 59.0795C68.04 58.9095 67.89 58.6895 67.8 58.4495C67.64 58.0295 67.65 57.5795 67.83 57.1695C68.01 56.7595 68.34 56.4495 68.75 56.2895C69.33 56.0695 69.95 55.8095 70.55 55.5595C71.1 55.3295 71.63 55.0995 72.09 54.8895L68.27 50.7895C67.97 50.4595 67.81 50.0395 67.82 49.5895C67.84 49.1395 68.02 48.7295 68.35 48.4295C68.67 48.1295 69.1 47.9695 69.55 47.9795C70 47.9995 70.41 48.1795 70.71 48.5095L74.53 52.5995C74.77 52.1495 75.03 51.6295 75.29 51.0995C75.58 50.4995 75.87 49.8995 76.13 49.3395C76.32 48.9395 76.65 48.6295 77.08 48.4795C77.5 48.3295 77.95 48.3395 78.35 48.5295C78.75 48.7195 79.06 49.0495 79.22 49.4695C79.37 49.8895 79.36 50.3395 79.17 50.7495C78.77 51.6095 78.4 52.3995 78.05 53.0895C77.64 53.9095 77.26 54.6095 76.94 55.1595L79.31 57.6995C79.48 57.2695 79.65 56.7895 79.82 56.3095C80.03 55.7295 80.22 55.1795 80.38 54.6795C80.47 54.4095 80.63 54.1595 80.84 53.9695C81.05 53.7795 81.31 53.6395 81.59 53.5795C81.68 53.5595 81.77 53.5595 81.83 53.5695C81.86 53.5695 81.89 53.5795 81.92 53.5795C81.96 53.5795 82 53.5895 82.04 53.5895C82.06 53.5895 82.09 53.5895 82.13 53.5895L82.28 53.5995C82.31 53.5995 82.34 53.6095 82.37 53.6095C82.42 53.6195 82.48 53.6295 82.53 53.6495C82.67 53.6895 82.81 53.7395 82.93 53.7995C83.07 53.8695 83.19 53.9595 83.3 54.0695C83.67 54.4395 84.08 54.8395 84.48 55.2195C84.84 55.5595 85.2 55.8995 85.54 56.1995L86.55 52.8495C86.01 52.4995 85.36 52.0495 84.63 51.4995C83.98 51.0195 83.29 50.4795 82.58 49.9095C82.23 49.6295 82.01 49.2295 81.97 48.7895C81.92 48.3495 82.05 47.9095 82.33 47.5595C82.61 47.2095 83.01 46.9895 83.45 46.9495C83.89 46.8995 84.33 47.0295 84.68 47.3095C85.16 47.6995 85.69 48.1095 86.21 48.4995C86.69 48.8695 87.16 49.2095 87.56 49.4995L89.2 44.0395C89.33 43.6095 89.62 43.2595 90.01 43.0495C90.4 42.8395 90.85 42.7895 91.28 42.9195C91.71 43.0495 92.06 43.3395 92.27 43.7295C92.48 44.1195 92.53 44.5695 92.4 44.9995L90.76 50.4695C91.27 50.4495 91.84 50.4195 92.43 50.3795C93.1 50.3395 93.77 50.2795 94.37 50.2295C94.81 50.1895 95.24 50.3195 95.59 50.5995C95.93 50.8795 96.14 51.2895 96.19 51.7295C96.23 52.1695 96.1 52.6095 95.81 52.9495C95.53 53.2895 95.12 53.4995 94.68 53.5395C93.78 53.6195 92.89 53.6895 92.1 53.7395C91.19 53.7895 90.41 53.8095 89.76 53.8095L88.73 57.2295C89.2 57.1595 89.7 57.0695 90.21 56.9795C90.81 56.8695 91.4 56.7595 91.93 56.6395C92.05 56.6195 92.17 56.6095 92.3 56.6195C92.41 56.6295 92.52 56.6495 92.65 56.6795C92.65 56.6795 92.66 56.6795 92.67 56.6795C92.69 56.6795 92.71 56.6795 92.73 56.6795C92.75 56.6895 92.77 56.6895 92.78 56.6995C93.1 56.7795 93.37 56.9395 93.58 57.1495C93.8 57.3695 93.96 57.6595 94.02 57.9695C94.07 58.2095 94.07 58.4595 94.01 58.6895C93.95 58.9095 93.85 59.1095 93.71 59.2995C93.59 59.7495 93.48 60.2095 93.37 60.6595C93.27 61.0695 93.19 61.4595 93.11 61.8195L96.74 60.9495C96.78 60.3195 96.85 59.5495 96.96 58.6595C97.05 57.8995 97.17 57.0695 97.3 56.1795C97.37 55.7395 97.6 55.3495 97.96 55.0895C98.32 54.8295 98.76 54.7195 99.2 54.7895C99.62 54.8395 100.02 55.0795 100.28 55.4395C100.55 55.7995 100.66 56.2495 100.59 56.6895C100.5 57.2695 100.41 57.8995 100.33 58.5195C100.26 59.0795 100.19 59.6295 100.14 60.1295L105.3 58.8895C105.73 58.7895 106.18 58.8595 106.56 59.0895C106.94 59.3195 107.21 59.6895 107.31 60.1195C107.41 60.5495 107.34 60.9995 107.11 61.3795C106.88 61.7595 106.51 62.0295 106.08 62.1295L100.81 63.3995C101.08 63.8395 101.41 64.3395 101.75 64.8495C102.14 65.4295 102.54 66.0095 102.91 66.5295C103.17 66.8895 103.27 67.3395 103.19 67.7695C103.12 68.2095 102.87 68.5895 102.51 68.8495C102.3 68.9995 102.06 69.0995 101.8 69.1395C101.38 69.2095 100.92 69.0995 100.58 68.8495C100.43 68.7395 100.29 68.6095 100.18 68.4495C99.63 67.6695 99.12 66.9195 98.67 66.2395C98.15 65.4495 97.73 64.7695 97.42 64.1995L93.8 65.0695C94.1 65.4395 94.43 65.8395 94.76 66.2395C95.16 66.7195 95.56 67.1695 95.93 67.5795C96.12 67.7895 96.26 68.0495 96.32 68.3295C96.38 68.6095 96.37 68.8995 96.29 69.1695C96.21 69.4395 96.06 69.6895 95.85 69.8895C95.64 70.0895 95.39 70.2295 95.11 70.2995C94.57 70.4395 94 70.5995 93.42 70.7695C92.91 70.9195 92.41 71.0795 91.96 71.2295L94.49 73.9395C95.06 73.6395 95.79 73.2995 96.66 72.9295C97.41 72.5995 98.25 72.2695 99.14 71.9195C99.55 71.7595 100 71.7695 100.41 71.9495C100.82 72.1295 101.14 72.4595 101.3 72.8695C101.46 73.2895 101.45 73.7395 101.27 74.1495C101.09 74.5595 100.76 74.8695 100.35 75.0295C99.75 75.2595 99.1 75.5295 98.47 75.7895C97.89 76.0295 97.35 76.2695 96.88 76.4895L100.57 80.4495C100.87 80.7795 101.03 81.1995 101.02 81.6495C101 82.0995 100.82 82.5095 100.49 82.8095C100.27 83.0095 100.01 83.1495 99.72 83.2195C99.3 83.3095 98.85 83.2395 98.48 83.0095C98.35 82.9295 98.24 82.8395 98.14 82.7295L94.52 78.8395C94.29 79.2795 94.04 79.7795 93.79 80.2795C93.51 80.8395 93.24 81.4195 92.99 81.9595C92.82 82.3295 92.52 82.6195 92.16 82.7795C91.76 82.9595 91.31 82.9695 90.89 82.8195C90.85 82.8095 90.82 82.7895 90.78 82.7695C90.38 82.5795 90.07 82.2495 89.91 81.8295C89.76 81.4095 89.77 80.9595 89.96 80.5495C90.34 79.7295 90.7 78.9695 91.04 78.2895C91.44 77.4895 91.8 76.8095 92.12 76.2595L89.56 73.5195C89.43 73.8595 89.29 74.2395 89.15 74.6295C88.99 75.0695 88.83 75.5195 88.68 75.9595C88.69 76.1895 88.66 76.4195 88.59 76.6295C88.51 76.8595 88.38 77.0695 88.2 77.2395C87.98 77.4495 87.71 77.5995 87.42 77.6795C87.13 77.7495 86.83 77.7395 86.55 77.6595C86.52 77.6495 86.5 77.6395 86.49 77.6295C86.34 77.5895 86.2 77.5395 86.08 77.4695C85.94 77.3995 85.82 77.2995 85.71 77.1995C85.33 76.8095 84.9 76.3895 84.47 75.9895C84.09 75.6295 83.71 75.2795 83.36 74.9695L82.25 78.6595C82.79 79.0095 83.44 79.4595 84.17 80.0095C84.81 80.4895 85.5 81.0195 86.22 81.5995C86.57 81.8795 86.79 82.2795 86.83 82.7195C86.88 83.1595 86.75 83.5995 86.47 83.9495C86.26 84.2095 85.97 84.4095 85.65 84.4995C85.23 84.6295 84.78 84.5795 84.39 84.3795C84.29 84.3295 84.2 84.2695 84.12 84.1995C83.64 83.8095 83.11 83.3995 82.59 83.0095C82.11 82.6495 81.65 82.2995 81.24 82.0095L79.68 87.1895C79.55 87.6195 79.26 87.9695 78.87 88.1795C78.45 88.4195 78 88.4695 77.57 88.3395ZM78.27 80.8695L76.64 86.3095C76.53 86.6895 76.57 87.0895 76.75 87.4395C76.94 87.7895 77.25 88.0395 77.63 88.1595C78.01 88.2695 78.41 88.2295 78.76 88.0495C79.11 87.8595 79.36 87.5495 79.48 87.1695L81.11 81.7395L81.22 81.8195C81.66 82.1295 82.16 82.5095 82.68 82.8995C83.2 83.2895 83.73 83.7095 84.21 84.0895C84.29 84.1495 84.37 84.1995 84.45 84.2495C84.79 84.4295 85.19 84.4695 85.56 84.3495C85.85 84.2595 86.1 84.0895 86.29 83.8595C86.54 83.5495 86.65 83.1695 86.61 82.7695C86.57 82.3795 86.37 82.0295 86.07 81.7795C85.35 81.2095 84.67 80.6695 84.03 80.1995C83.28 79.6395 82.62 79.1795 82.07 78.8195L82.01 78.7795L83.25 74.6695L83.36 74.7695C83.74 75.1095 84.16 75.4995 84.58 75.8995C85.01 76.3095 85.44 76.7295 85.82 77.1195C85.91 77.2095 86.02 77.2895 86.14 77.3595C86.25 77.4195 86.38 77.4695 86.52 77.4995C86.55 77.5095 86.57 77.5295 86.58 77.5295H86.59C86.84 77.5995 87.1 77.6095 87.35 77.5495C87.61 77.4895 87.85 77.3495 88.04 77.1595C88.19 77.0095 88.31 76.8295 88.38 76.6195C88.45 76.4295 88.47 76.2195 88.46 75.9995V75.9795L88.47 75.9595C88.62 75.5095 88.79 75.0495 88.95 74.5995C89.11 74.1595 89.27 73.7295 89.42 73.3495L89.47 73.2095L92.33 76.2795L92.29 76.3395C91.97 76.8895 91.59 77.5895 91.18 78.4195C90.84 79.0995 90.48 79.8595 90.1 80.6795C89.94 81.0395 89.92 81.4395 90.06 81.8095C90.2 82.1795 90.47 82.4795 90.83 82.6395C90.86 82.6495 90.89 82.6695 90.93 82.6795C91.29 82.8095 91.7 82.7995 92.05 82.6495C92.38 82.4995 92.64 82.2395 92.79 81.9195C93.04 81.3795 93.31 80.7995 93.59 80.2395C93.86 79.6895 94.13 79.1495 94.38 78.6695L94.44 78.5495L98.25 82.6295C98.34 82.7295 98.44 82.8095 98.56 82.8795C98.88 83.0795 99.29 83.1495 99.66 83.0595C99.91 82.9995 100.15 82.8795 100.34 82.6995C100.63 82.4295 100.8 82.0595 100.81 81.6695C100.82 81.2795 100.68 80.8995 100.41 80.6095L96.54 76.4595L96.66 76.3995C97.16 76.1695 97.75 75.9095 98.38 75.6395C99.01 75.3695 99.66 75.1095 100.27 74.8695C100.64 74.7295 100.93 74.4495 101.09 74.0895C101.25 73.7295 101.26 73.3295 101.11 72.9595C100.97 72.5895 100.69 72.2995 100.32 72.1395C99.96 71.9795 99.56 71.9695 99.19 72.1195C98.3 72.4595 97.47 72.7995 96.72 73.1295C95.83 73.5095 95.08 73.8595 94.5 74.1695L94.44 74.1995L91.61 71.1695L91.75 71.1195C92.23 70.9595 92.79 70.7795 93.35 70.6195C93.94 70.4495 94.51 70.2895 95.05 70.1395C95.3 70.0795 95.52 69.9495 95.7 69.7695C95.88 69.5895 96.02 69.3695 96.09 69.1295C96.16 68.8895 96.17 68.6295 96.12 68.3795C96.06 68.1295 95.95 67.8995 95.78 67.7195C95.41 67.3095 95.02 66.8495 94.61 66.3695C94.24 65.9295 93.87 65.4895 93.55 65.0795L93.46 64.9595L97.51 63.9895L97.54 64.0495C97.85 64.6195 98.28 65.3295 98.82 66.1395C99.27 66.8195 99.77 67.5595 100.32 68.3395C100.42 68.4795 100.54 68.5995 100.67 68.6895C100.98 68.9095 101.38 68.9995 101.75 68.9495C101.98 68.9095 102.19 68.8295 102.38 68.6895C102.7 68.4595 102.92 68.1195 102.98 67.7295C103.05 67.3395 102.96 66.9495 102.73 66.6295C102.36 66.1095 101.96 65.5195 101.57 64.9395C101.2 64.3795 100.84 63.8395 100.55 63.3695L100.48 63.2595L106.01 61.9295C106.39 61.8395 106.72 61.5995 106.93 61.2595C107.14 60.9195 107.2 60.5295 107.11 60.1395C107.02 59.7595 106.78 59.4295 106.44 59.2195C106.1 59.0095 105.71 58.9495 105.32 59.0395L99.9 60.3395L99.91 60.2095C99.96 59.6795 100.03 59.0695 100.11 58.4595C100.19 57.8395 100.28 57.1995 100.37 56.6195C100.43 56.2295 100.33 55.8395 100.09 55.5095C99.86 55.1895 99.51 54.9795 99.13 54.9295C98.74 54.8695 98.35 54.9695 98.03 55.1995C97.71 55.4295 97.5 55.7795 97.44 56.1695C97.3 57.0595 97.19 57.8995 97.1 58.6495C96.99 59.5595 96.92 60.3495 96.88 60.9895V61.0595L92.82 62.0395L92.85 61.8895C92.93 61.4895 93.03 61.0395 93.14 60.5795C93.25 60.1195 93.36 59.6595 93.48 59.1995V59.1795L93.49 59.1595C93.62 58.9895 93.71 58.7995 93.76 58.5995C93.81 58.3895 93.82 58.1795 93.77 57.9595C93.71 57.6895 93.58 57.4395 93.38 57.2395C93.19 57.0495 92.95 56.9095 92.68 56.8395C92.66 56.8295 92.65 56.8295 92.64 56.8195C92.62 56.8095 92.61 56.8095 92.6 56.8095C92.58 56.8095 92.56 56.8095 92.54 56.8095C92.41 56.7795 92.31 56.7595 92.21 56.7595C92.09 56.7495 91.99 56.7595 91.89 56.7795C91.36 56.8895 90.77 57.0095 90.17 57.1195C89.61 57.2195 89.05 57.3195 88.54 57.3995L88.39 57.4195L89.55 53.5695H89.62C90.28 53.5795 91.08 53.5595 92.02 53.4995C92.81 53.4595 93.7 53.3895 94.6 53.2995C94.99 53.2595 95.35 53.0795 95.6 52.7695C95.85 52.4695 95.97 52.0795 95.94 51.6895C95.9 51.2995 95.71 50.9395 95.41 50.6895C95.11 50.4395 94.72 50.3195 94.33 50.3595C93.73 50.4195 93.05 50.4695 92.38 50.5095C91.74 50.5495 91.11 50.5895 90.57 50.6095L90.44 50.6195L92.16 44.8995C92.27 44.5195 92.23 44.1195 92.05 43.7695C91.86 43.4195 91.55 43.1695 91.17 43.0495C90.79 42.9395 90.39 42.9795 90.04 43.1595C89.69 43.3495 89.44 43.6595 89.32 44.0395L87.6 49.7495L87.49 49.6695C87.06 49.3595 86.55 48.9895 86.03 48.5895C85.51 48.1995 84.98 47.7795 84.5 47.3995C84.19 47.1495 83.81 47.0395 83.41 47.0795C83.02 47.1195 82.66 47.3195 82.42 47.6195C82.17 47.9295 82.06 48.3095 82.1 48.7095C82.14 49.0995 82.34 49.4495 82.64 49.6995C83.34 50.2595 84.05 50.8095 84.68 51.2795C85.43 51.8395 86.09 52.2995 86.64 52.6595L86.7 52.6995L85.57 56.4695L85.46 56.3695C85.09 56.0395 84.69 55.6695 84.29 55.2795C83.89 54.8995 83.48 54.4995 83.11 54.1195C83.02 54.0295 82.92 53.9495 82.79 53.8895C82.68 53.8395 82.56 53.7895 82.42 53.7495C82.37 53.7295 82.33 53.7195 82.29 53.7195C82.26 53.7195 82.23 53.7095 82.2 53.7095L82.07 53.6995C82.04 53.6995 82.02 53.6995 81.99 53.6995C81.93 53.6995 81.89 53.6895 81.85 53.6895L81.77 53.6795C81.69 53.6695 81.64 53.6695 81.59 53.6895C81.34 53.7495 81.11 53.8695 80.93 54.0395C80.74 54.2095 80.6 54.4295 80.53 54.6695C80.36 55.1795 80.18 55.7295 79.97 56.3095C79.78 56.8395 79.58 57.3695 79.4 57.8395L79.35 57.9795L76.68 55.1195L76.72 55.0595C77.05 54.4995 77.44 53.7895 77.86 52.9395C78.21 52.2495 78.59 51.4595 78.98 50.5995C79.15 50.2395 79.16 49.8395 79.02 49.4695C78.88 49.0995 78.61 48.7995 78.25 48.6395C77.9 48.4795 77.5 48.4595 77.13 48.5995C76.75 48.7395 76.46 49.0095 76.29 49.3695C76.03 49.9195 75.74 50.5295 75.45 51.1295C75.17 51.7095 74.88 52.2695 74.63 52.7495L74.57 52.8695L70.57 48.5795C70.3 48.2895 69.94 48.1295 69.54 48.1095C69.14 48.0995 68.77 48.2395 68.48 48.5095C68.19 48.7795 68.02 49.1495 68.01 49.5395C68 49.9295 68.14 50.3095 68.41 50.5995L72.41 54.8895L72.29 54.9395C71.8 55.1695 71.22 55.4195 70.62 55.6695C70.02 55.9195 69.39 56.1795 68.82 56.3995C68.45 56.5395 68.16 56.8195 68 57.1795C67.84 57.5395 67.83 57.9395 67.97 58.3095C68.05 58.5295 68.18 58.7095 68.35 58.8695C68.63 59.1295 69.02 59.2695 69.4 59.2495C69.57 59.2395 69.73 59.2095 69.88 59.1495C70.74 58.8195 71.54 58.4895 72.27 58.1795C73.13 57.8095 73.86 57.4695 74.44 57.1695L74.5 57.1395L77.19 60.0295L77.05 60.0795C76.56 60.2395 76.01 60.4195 75.45 60.5795C74.86 60.7495 74.29 60.9095 73.75 61.0595C73.5 61.1195 73.28 61.2495 73.1 61.4295C72.92 61.6095 72.78 61.8295 72.71 62.0695C72.64 62.3095 72.63 62.5695 72.68 62.8195C72.74 63.0695 72.85 63.2995 73.02 63.4895C73.39 63.8995 73.78 64.3495 74.19 64.8395C74.56 65.2795 74.92 65.7195 75.25 66.1295L75.34 66.2495L71.48 67.1795L71.44 67.1195C71.12 66.5495 70.7 65.8595 70.19 65.0795C69.75 64.4095 69.26 63.6995 68.74 62.9495C68.51 62.6295 68.17 62.4095 67.78 62.3395C67.39 62.2695 67 62.3595 66.68 62.5895C66.36 62.8195 66.14 63.1595 66.08 63.5495C66.01 63.9395 66.1 64.3295 66.33 64.6495C66.68 65.1495 67.07 65.7095 67.44 66.2595C67.79 66.7895 68.13 67.3095 68.43 67.7795L68.5 67.8895L62.79 69.2595C62.41 69.3495 62.08 69.5895 61.87 69.9295C61.66 70.2695 61.6 70.6595 61.69 71.0495C61.75 71.3095 61.88 71.5395 62.06 71.7295C62.33 71.9995 62.7 72.1695 63.08 72.1795C63.21 72.1795 63.34 72.1695 63.47 72.1395L69.16 70.7695L69.15 70.8995C69.1 71.4295 69.03 72.0595 68.95 72.7095C68.87 73.3595 68.78 74.0195 68.68 74.6295C68.63 74.9795 68.7 75.3495 68.89 75.6495C69.1 75.9795 69.43 76.2095 69.81 76.2995C69.84 76.3095 69.88 76.3095 69.91 76.3195C70.3 76.3795 70.69 76.2795 71.01 76.0495C71.33 75.8195 71.54 75.4695 71.6 75.0795C71.74 74.1495 71.86 73.2895 71.95 72.5095C72.06 71.5595 72.14 70.7595 72.17 70.1095V70.0395L75.96 69.1295L75.93 69.2795C75.83 69.7695 75.71 70.3195 75.57 70.8895C75.43 71.4595 75.28 72.0395 75.14 72.5495C75.07 72.7895 75.07 73.0495 75.13 73.2995C75.19 73.5495 75.32 73.7695 75.49 73.9595C75.53 73.9995 75.59 74.0395 75.64 74.0595L75.7 74.0895C75.74 74.1095 75.79 74.1295 75.83 74.1595C75.86 74.1795 75.89 74.1995 75.91 74.2095C75.94 74.2295 75.96 74.2395 75.99 74.2595C76.02 74.2695 76.05 74.2995 76.08 74.3195C76.11 74.3395 76.13 74.3595 76.15 74.3595C76.19 74.3595 76.22 74.3595 76.25 74.3595C76.39 74.3995 76.51 74.4295 76.63 74.4495C76.76 74.4595 76.89 74.4595 77.01 74.4295C77.51 74.3195 78.07 74.2195 78.65 74.1095C79.19 74.0095 79.73 73.9195 80.22 73.8395L80.37 73.8195L79.15 77.8895H79.08C78.43 77.8795 77.62 77.8995 76.68 77.9595C75.88 78.0095 75.01 78.0695 74.1 78.1595C73.71 78.1995 73.35 78.3795 73.1 78.6895C72.85 78.9895 72.73 79.3795 72.76 79.7695C72.8 80.1595 72.99 80.5195 73.29 80.7695C73.59 81.0195 73.98 81.1395 74.37 81.1095C74.97 81.0495 75.64 80.9995 76.31 80.9595C76.96 80.9195 77.59 80.8795 78.12 80.8595L78.27 80.8695ZM78.61 71.0895L78.64 70.9495C78.75 70.4695 78.85 70.0195 78.92 69.6095C78.99 69.2195 79.05 68.8395 79.1 68.4995L79.11 68.4395L82.24 67.6895L81.32 70.7595H81.25C80.91 70.7795 80.53 70.8195 80.12 70.8695C79.7 70.9195 79.24 70.9895 78.74 71.0695L78.61 71.0895ZM79.28 68.5895C79.24 68.9195 79.18 69.2695 79.11 69.6395C79.04 70.0195 78.95 70.4295 78.86 70.8495C79.31 70.7795 79.72 70.7195 80.1 70.6695C80.49 70.6195 80.85 70.5895 81.17 70.5595L81.96 67.9295L79.28 68.5895ZM86.24 73.3195L86.14 73.2195C85.77 72.8795 85.42 72.5695 85.09 72.2895C84.78 72.0295 84.49 71.7995 84.21 71.5995L84.16 71.5595L85.07 68.5195L87.27 70.8795L87.24 70.9395C87.09 71.2395 86.94 71.5695 86.79 71.9395C86.63 72.3195 86.46 72.7395 86.3 73.1895L86.24 73.3195ZM84.38 71.4995C84.64 71.6995 84.92 71.9195 85.22 72.1595C85.52 72.4095 85.84 72.6895 86.17 72.9995C86.32 72.5995 86.47 72.2195 86.62 71.8795C86.77 71.5295 86.91 71.2095 87.05 70.9295L85.17 68.9095L84.38 71.4995ZM89.41 68.8395L87.21 66.4795L90.35 65.7295L90.39 65.7895C90.58 66.0695 90.8 66.3895 91.05 66.7195C91.31 67.0595 91.6 67.4295 91.93 67.8195L92.02 67.9295L91.88 67.9695C91.39 68.1195 90.94 68.2695 90.54 68.4095C90.14 68.5495 89.78 68.6895 89.47 68.8195L89.41 68.8395ZM87.57 66.5895L89.46 68.6195C89.76 68.4895 90.1 68.3595 90.48 68.2295C90.84 68.0995 91.25 67.9695 91.69 67.8295C91.4 67.4795 91.13 67.1395 90.9 66.8295C90.66 66.5095 90.45 66.2195 90.27 65.9395L87.57 66.5895ZM78.45 65.5495L78.41 65.4895C78.22 65.2095 78 64.8895 77.75 64.5595C77.5 64.2195 77.2 63.8495 76.87 63.4595L76.78 63.3495L76.92 63.3095C77.41 63.1595 77.86 63.0195 78.26 62.8695C78.66 62.7295 79.01 62.5895 79.33 62.4595L79.39 62.4295L81.59 64.7895L78.45 65.5495ZM77.11 63.4495C77.4 63.8095 77.67 64.1395 77.9 64.4495C78.14 64.7695 78.35 65.0595 78.53 65.3395L81.22 64.6895L79.33 62.6595C79.03 62.7895 78.69 62.9195 78.31 63.0495C77.95 63.1795 77.54 63.3095 77.11 63.4495ZM86.56 63.5995L87.47 60.5595H87.54C87.88 60.5395 88.26 60.5095 88.66 60.4695C89.08 60.4195 89.55 60.3595 90.04 60.2695L90.18 60.2495L90.15 60.3895C90.04 60.8595 89.95 61.2995 89.87 61.6995C89.8 62.0895 89.74 62.4595 89.7 62.7895L89.69 62.8495L86.56 63.5995ZM87.61 60.7395L86.83 63.3295L89.51 62.6795C89.55 62.3695 89.61 62.0195 89.68 61.6495C89.75 61.2895 89.83 60.8895 89.93 60.4695C89.48 60.5395 89.06 60.5995 88.67 60.6395C88.29 60.6895 87.94 60.7195 87.61 60.7395ZM83.72 62.7495L81.52 60.3895L81.55 60.3295C81.7 60.0195 81.86 59.6795 82.01 59.3095C82.17 58.9195 82.34 58.4895 82.51 58.0295L82.56 57.8995L82.66 57.9995C83.03 58.3395 83.38 58.6595 83.7 58.9295C84.01 59.1995 84.31 59.4395 84.58 59.6395L84.63 59.6795L83.72 62.7495ZM81.75 60.3595L83.63 62.3795L84.42 59.7495C84.16 59.5495 83.88 59.3195 83.58 59.0695C83.29 58.8195 82.97 58.5395 82.64 58.2295C82.49 58.6395 82.33 59.0295 82.18 59.3795C82.04 59.7295 81.9 60.0595 81.75 60.3595Z" fill="#BADBE7"></path> <path d="M78.0599 89.0096C77.8399 89.0096 77.6199 88.9796 77.3999 88.9096C76.8199 88.7396 76.3399 88.3496 76.0499 87.8096C75.7599 87.2696 75.6999 86.6596 75.8799 86.0796L77.1899 81.7096C76.9299 81.7296 76.6499 81.7396 76.3799 81.7596C75.7099 81.7996 75.0499 81.8596 74.4599 81.9096C73.8499 81.9696 73.2699 81.7796 72.7999 81.3996C72.3299 81.0096 72.0499 80.4696 71.9899 79.8596C71.9299 79.2596 72.1199 78.6696 72.4999 78.1996C72.8899 77.7296 73.4299 77.4496 74.0399 77.3896C74.9599 77.2996 75.8399 77.2396 76.6399 77.1896C77.3599 77.1496 78.0099 77.1296 78.5699 77.1196L79.2599 74.8296C79.1099 74.8596 78.9599 74.8796 78.7999 74.9096C78.2199 75.0096 77.6799 75.1196 77.1799 75.2296C76.9799 75.2696 76.7799 75.2796 76.5599 75.2596C76.4099 75.2396 76.2699 75.2196 76.1199 75.1696C75.9499 75.1596 75.7799 75.0896 75.6299 74.9796L75.5199 74.9196C75.4699 74.8896 75.4299 74.8596 75.3899 74.8296L75.2999 74.7996C75.1899 74.7396 75.0699 74.6696 74.9399 74.5396C74.6699 74.2596 74.4799 73.9096 74.3899 73.5296C74.2999 73.1496 74.2999 72.7596 74.4099 72.3796C74.5499 71.8696 74.6899 71.3096 74.8299 70.7396C74.8699 70.5696 74.9099 70.3996 74.9499 70.2396L72.9499 70.7196C72.9099 71.2796 72.8499 71.9296 72.7599 72.6496C72.6699 73.4296 72.5499 74.3096 72.3999 75.2396C72.3099 75.8396 71.9799 76.3696 71.4999 76.7296C71.0099 77.0896 70.4199 77.2396 69.8199 77.1396C69.7699 77.1296 69.7099 77.1196 69.6599 77.1096C69.0599 76.9596 68.5699 76.6096 68.2499 76.1196C67.9499 75.6496 67.8399 75.0996 67.9199 74.5596C68.0099 73.9596 68.0999 73.2996 68.1799 72.6596C68.2199 72.3796 68.2499 72.1096 68.2799 71.8496L63.6699 72.9596C63.4699 73.0096 63.2599 73.0296 63.0699 73.0196C62.4899 72.9996 61.9199 72.7496 61.5099 72.3296C61.2299 72.0396 61.0299 71.6796 60.9399 71.2896C60.7999 70.6996 60.8899 70.0896 61.2099 69.5696C61.5299 69.0496 62.0199 68.6896 62.6099 68.5496L67.2399 67.4296C67.0899 67.2096 66.9399 66.9796 66.7899 66.7496C66.4199 66.1996 66.0399 65.6496 65.6899 65.1596C65.3399 64.6696 65.1999 64.0596 65.2999 63.4696C65.3999 62.8696 65.7299 62.3496 66.2199 61.9996C66.7099 61.6496 67.3099 61.5096 67.9199 61.6096C68.5099 61.7096 69.0399 62.0396 69.3899 62.5396C69.9199 63.2896 70.4199 64.0196 70.8599 64.6896C71.2499 65.2896 71.5899 65.8296 71.8799 66.3196L73.9399 65.8196C73.8199 65.6796 73.7099 65.5396 73.5899 65.3996C73.1899 64.9196 72.7999 64.4796 72.4399 64.0696C72.1799 63.7796 71.9999 63.4296 71.9099 63.0496C71.8299 62.6696 71.8399 62.2796 71.9499 61.8996C72.0599 61.5296 72.2699 61.1896 72.5499 60.9196C72.8299 60.6496 73.1799 60.4596 73.5499 60.3596C74.0799 60.2196 74.6399 60.0596 75.2199 59.8896C75.3999 59.8396 75.5799 59.7796 75.7599 59.7296L74.3199 58.1796C73.8099 58.4296 73.2299 58.6996 72.5699 58.9796C71.8299 59.2996 71.0199 59.6296 70.1599 59.9596C69.9199 60.0496 69.6699 60.1096 69.4199 60.1096C68.8399 60.1296 68.2499 59.9196 67.8199 59.5196C67.5599 59.2796 67.3599 58.9896 67.2299 58.6596C67.0099 58.0896 67.0199 57.4796 67.2699 56.9196C67.5099 56.3696 67.9599 55.9396 68.5199 55.7196C69.0899 55.4996 69.7099 55.2496 70.2999 54.9996C70.5599 54.8896 70.8199 54.7796 71.0599 54.6696L67.8099 51.1896C67.3999 50.7496 67.1799 50.1696 67.1999 49.5596C67.2199 48.9496 67.4799 48.3896 67.9199 47.9796C68.3599 47.5696 68.9399 47.3596 69.5499 47.3696C70.1599 47.3896 70.7199 47.6496 71.1299 48.0896L74.3699 51.5596C74.4899 51.3196 74.6099 51.0796 74.7299 50.8296C75.0199 50.2396 75.3099 49.6396 75.5599 49.0896C75.8099 48.5396 76.2699 48.1196 76.8399 47.9096C77.4199 47.6996 78.0299 47.7196 78.5699 47.9796C79.1199 48.2296 79.5299 48.6896 79.7399 49.2496C79.9499 49.8196 79.9299 50.4296 79.6699 50.9896C79.2699 51.8496 78.8899 52.6496 78.5399 53.3496C78.2099 53.9996 77.9099 54.5796 77.6299 55.0696L79.0399 56.5796C79.0999 56.4196 79.1599 56.2696 79.2099 56.1096C79.4199 55.5396 79.5999 54.9996 79.7599 54.4996C79.8799 54.1296 80.0899 53.7996 80.3799 53.5396C80.6599 53.2796 81.0199 53.0896 81.3999 52.9996C81.5799 52.9596 81.7299 52.9696 81.8299 52.9796L81.9299 52.9896L81.9799 53.5996L82.0899 52.9996L82.4099 53.0396C82.4899 53.0496 82.5699 53.0696 82.6499 53.0996C82.7899 53.1296 82.9699 53.1996 83.1399 53.2896C83.3299 53.3896 83.4999 53.5096 83.6499 53.6696C84.0199 54.0396 84.4199 54.4396 84.8099 54.8096C84.9299 54.9196 85.0399 55.0296 85.1599 55.1396L85.7599 53.1396C85.2899 52.8296 84.7699 52.4496 84.1899 52.0196C83.5399 51.5296 82.8399 50.9996 82.1199 50.4196C81.6499 50.0396 81.3499 49.4996 81.2899 48.8996C81.2199 48.2996 81.3899 47.7096 81.7799 47.2296C82.1599 46.7596 82.6999 46.4596 83.2999 46.3896C83.9099 46.3296 84.4999 46.4996 84.9699 46.8796C85.4499 47.2596 85.9699 47.6696 86.4799 48.0596C86.6999 48.2296 86.9299 48.3996 87.1399 48.5596L88.5399 43.9096C88.7099 43.3296 89.1099 42.8496 89.6399 42.5696C90.1699 42.2796 90.7899 42.2196 91.3699 42.3996C91.9499 42.5696 92.4299 42.9596 92.7099 43.4996C92.9999 44.0296 93.0599 44.6496 92.8899 45.2296L91.4899 49.8796C91.7499 49.8696 92.0299 49.8496 92.3099 49.8296C92.9699 49.7896 93.6399 49.7296 94.2299 49.6796C94.8299 49.6196 95.4199 49.7996 95.8899 50.1896C96.3499 50.5796 96.6399 51.1196 96.6999 51.7296C96.7599 52.3296 96.5699 52.9196 96.1899 53.3896C95.7999 53.8596 95.2599 54.1396 94.6499 54.1996C93.7499 54.2796 92.8499 54.3496 92.0499 54.3996C91.3299 54.4396 90.6799 54.4596 90.1199 54.4696L89.4999 56.5396C89.6699 56.5096 89.8399 56.4796 90.0199 56.4496C90.6099 56.3396 91.1999 56.2296 91.7199 56.1196C91.8899 56.0796 92.0699 56.0696 92.2599 56.0896C92.3799 56.0996 92.4999 56.1196 92.6399 56.1496L92.7699 56.1696C92.8299 56.1896 92.8699 56.1996 92.8999 56.2096C93.2999 56.3196 93.6499 56.5196 93.9399 56.8096C94.2499 57.1196 94.4599 57.4996 94.5499 57.9296C94.6199 58.2596 94.6099 58.5996 94.5299 58.9296C94.4699 59.1796 94.3599 59.4296 94.2099 59.6496C94.0999 60.0596 93.9999 60.4796 93.8999 60.8896C93.8799 60.9596 93.8699 61.0296 93.8499 61.0996L96.1199 60.5496C96.1599 59.9996 96.2199 59.3796 96.3099 58.6696C96.3999 57.9096 96.5199 57.0696 96.6599 56.1696C96.7499 55.5696 97.0699 55.0396 97.5599 54.6796C98.0499 54.3196 98.6499 54.1796 99.2499 54.2696C99.8199 54.3396 100.36 54.6696 100.73 55.1596C101.1 55.6596 101.24 56.2596 101.15 56.8596C101.06 57.4296 100.98 58.0596 100.9 58.6796C100.87 58.9296 100.84 59.1896 100.81 59.4296L105.14 58.3896C105.72 58.2496 106.33 58.3396 106.85 58.6596C107.37 58.9796 107.73 59.4796 107.87 60.0696C108.01 60.6596 107.92 61.2696 107.6 61.7896C107.29 62.3096 106.79 62.6696 106.2 62.8096L101.75 63.8796C101.9 64.1196 102.07 64.3596 102.23 64.6096C102.61 65.1896 103.01 65.7596 103.38 66.2796C103.73 66.7796 103.87 67.3796 103.77 67.9696C103.67 68.5696 103.34 69.0896 102.84 69.4396C102.55 69.6396 102.23 69.7796 101.88 69.8296C101.29 69.9196 100.69 69.7796 100.22 69.4396C100.01 69.2896 99.8299 69.1096 99.6799 68.8996C99.1199 68.1096 98.6099 67.3596 98.1599 66.6696C97.7499 66.0496 97.3999 65.4896 97.1099 64.9896L94.8599 65.5296C94.9799 65.6696 95.0899 65.8096 95.2099 65.9496C95.6099 66.4196 95.9999 66.8696 96.3599 67.2796C96.6199 67.5596 96.7999 67.9196 96.8899 68.2996C96.9699 68.6796 96.9599 69.0796 96.8499 69.4496C96.7399 69.8196 96.5299 70.1596 96.2499 70.4296C95.9699 70.6996 95.6199 70.8996 95.2399 70.9896C94.7099 71.1296 94.1499 71.2896 93.5699 71.4596C93.3899 71.5096 93.2099 71.5696 93.0299 71.6196L94.5999 73.3096C95.1099 73.0596 95.7099 72.7796 96.3999 72.4896C97.1599 72.1596 97.9999 71.8196 98.8999 71.4696C99.4599 71.2496 100.07 71.2596 100.63 71.5096C101.19 71.7496 101.62 72.1996 101.84 72.7696C102.06 73.3396 102.05 73.9496 101.8 74.5096C101.56 75.0596 101.11 75.4896 100.55 75.7096C99.9499 75.9396 99.3099 76.1996 98.6899 76.4696C98.4099 76.5896 98.1399 76.7096 97.8699 76.8196L100.99 80.1696C101.4 80.6096 101.62 81.1896 101.6 81.7996C101.58 82.3996 101.32 82.9696 100.88 83.3796C100.59 83.6596 100.22 83.8496 99.8299 83.9296C99.2599 84.0596 98.6399 83.9596 98.1399 83.6496C97.9699 83.5396 97.8099 83.4196 97.6699 83.2696L94.6299 80.0096C94.5199 80.2296 94.4099 80.4496 94.2999 80.6796C94.0299 81.2396 93.7499 81.8096 93.5099 82.3396C93.2799 82.8396 92.8799 83.2396 92.3799 83.4596C91.8399 83.6996 91.2399 83.7196 90.6699 83.5196L90.5199 83.4596C89.9599 83.1996 89.5499 82.7496 89.3399 82.1796C89.1299 81.6096 89.1499 80.9996 89.4099 80.4496C89.7899 79.6196 90.1599 78.8496 90.4999 78.1696C90.8099 77.5396 91.1099 76.9796 91.3799 76.4996L89.7799 74.7896C89.7599 74.8496 89.7299 74.9196 89.7099 74.9796C89.5699 75.3796 89.4199 75.7896 89.2799 76.1996C89.2799 76.4696 89.2399 76.7296 89.1499 76.9796C89.0399 77.2996 88.8599 77.5796 88.6199 77.8196C88.3199 78.1096 87.9599 78.3196 87.5499 78.4096C87.1599 78.4996 86.7599 78.4896 86.3699 78.3796L86.2299 78.3196C86.0699 78.2696 85.9199 78.2096 85.7799 78.1396C85.5899 78.0396 85.4199 77.9096 85.2699 77.7596C84.8899 77.3796 84.4699 76.9596 84.0499 76.5596C83.9199 76.4396 83.7899 76.3096 83.6599 76.1896L82.9499 78.5396C83.4199 78.8596 83.9499 79.2296 84.5199 79.6596C85.1699 80.1396 85.8599 80.6796 86.5899 81.2596C87.0599 81.6396 87.3599 82.1796 87.4299 82.7796C87.4999 83.3796 87.3199 83.9796 86.9399 84.4496C86.6499 84.8096 86.2599 85.0696 85.8299 85.1996C85.2599 85.3696 84.6399 85.3096 84.1199 85.0396C83.9899 84.9696 83.8699 84.8896 83.7599 84.7996C83.2799 84.4196 82.7599 84.0096 82.2399 83.6196C82.0199 83.4496 81.7899 83.2796 81.5799 83.1296L80.2699 87.4996C80.0999 88.0796 79.7099 88.5596 79.1699 88.8496C78.7899 88.9196 78.4299 89.0096 78.0599 89.0096ZM79.0899 80.2396L77.2099 86.4896C77.1399 86.7096 77.1699 86.9496 77.2799 87.1596C77.3899 87.3696 77.5799 87.5196 77.7999 87.5796C78.0299 87.6496 78.2599 87.6196 78.4699 87.5096C78.6799 87.3996 78.8299 87.2096 78.8899 86.9896L80.7699 80.7496L81.5599 81.3096C81.9999 81.6296 82.5099 81.9996 83.0399 82.3996C83.5699 82.7996 84.0999 83.2096 84.5799 83.5996C84.6199 83.6396 84.6699 83.6696 84.7199 83.6896C84.9199 83.7996 85.1599 83.8196 85.3799 83.7496C85.5499 83.6996 85.6999 83.5996 85.8099 83.4596C85.9599 83.2796 86.0199 83.0496 85.9999 82.8196C85.9699 82.5896 85.8599 82.3796 85.6799 82.2296C84.9699 81.6596 84.2899 81.1296 83.6499 80.6596C82.8999 80.0996 82.2599 79.6496 81.7199 79.3096L81.3399 79.0696L81.4099 78.5996L82.9199 73.5896L83.7299 74.3196C84.1199 74.6596 84.5399 75.0596 84.9699 75.4596C85.3999 75.8696 85.8399 76.2996 86.2199 76.6896C86.2699 76.7396 86.3299 76.7796 86.3999 76.8196C86.4699 76.8596 86.5499 76.8896 86.6299 76.9096L86.8099 76.9796C86.9299 76.9996 87.0599 76.9996 87.1799 76.9696C87.3399 76.9296 87.4799 76.8496 87.5899 76.7396C87.6799 76.6496 87.7399 76.5496 87.7799 76.4296C87.8199 76.3096 87.8399 76.1896 87.8299 76.0496L87.8199 75.9296L87.8599 75.7996C88.0199 75.3196 88.1899 74.8496 88.3499 74.4096C88.5099 73.9596 88.6699 73.5296 88.8199 73.1496L89.2199 72.1096L93.0399 76.1996L92.8199 76.5796C92.4599 77.1896 92.0999 77.8796 91.6999 78.6896C91.3599 79.3596 90.9999 80.1196 90.6299 80.9296C90.5299 81.1396 90.5199 81.3796 90.5999 81.5996C90.6799 81.8196 90.8399 81.9996 91.0599 82.0896C91.3299 82.1896 91.5799 82.1896 91.7899 82.0896C91.9799 81.9996 92.1399 81.8496 92.2299 81.6596C92.4799 81.1196 92.7599 80.5396 93.0399 79.9696C93.3099 79.4096 93.5899 78.8696 93.8399 78.3896L94.2999 77.5196L98.6799 82.2196C98.7299 82.2796 98.7899 82.3296 98.8599 82.3696C99.0499 82.4896 99.2999 82.5296 99.5199 82.4796C99.6699 82.4496 99.8099 82.3696 99.9299 82.2696C100.1 82.1096 100.2 81.8896 100.21 81.6596C100.22 81.4296 100.13 81.1996 99.9699 81.0296L95.5299 76.2796L96.3999 75.8796C96.8999 75.6496 97.4999 75.3796 98.1399 75.1196C98.7799 74.8496 99.4299 74.5796 100.04 74.3496C100.26 74.2696 100.43 74.0996 100.53 73.8796C100.62 73.6696 100.63 73.4296 100.54 73.2096C100.46 72.9896 100.29 72.8196 100.07 72.7196C99.8499 72.6296 99.6099 72.6196 99.3999 72.6996C98.5199 73.0396 97.6899 73.3796 96.9499 73.6996C96.0699 74.0796 95.3399 74.4196 94.7699 74.7196L94.3599 74.9296L93.9799 74.6296L90.5099 70.9196L91.5299 70.5796C92.0199 70.4196 92.5799 70.2396 93.1499 70.0696C93.7499 69.8896 94.3199 69.7296 94.8699 69.5896C95.0199 69.5496 95.1499 69.4796 95.2599 69.3696C95.3699 69.2696 95.4499 69.1296 95.4899 68.9896C95.5299 68.8496 95.5399 68.6896 95.5099 68.5496C95.4799 68.3996 95.4099 68.2696 95.3099 68.1596C94.9299 67.7396 94.5399 67.2796 94.1299 66.7996C93.7599 66.3596 93.3899 65.9096 93.0599 65.4996L92.3799 64.6496L97.7899 63.3496L98.0099 63.7496C98.3499 64.3696 98.7699 65.0596 99.2999 65.8696C99.7399 66.5496 100.24 67.2796 100.79 68.0496C100.85 68.1296 100.92 68.1996 101 68.2596C101.18 68.3896 101.43 68.4496 101.65 68.4096C101.79 68.3896 101.91 68.3396 102.02 68.2596C102.21 68.1196 102.34 67.9196 102.38 67.6896C102.42 67.4596 102.37 67.2296 102.23 67.0296C101.86 66.4996 101.45 65.9196 101.06 65.3296C100.68 64.7596 100.33 64.2096 100.04 63.7496L99.5299 62.9296L105.87 61.3996C106.1 61.3396 106.29 61.1996 106.41 60.9996C106.53 60.7996 106.57 60.5596 106.52 60.3296C106.46 60.0996 106.32 59.9096 106.12 59.7796C105.92 59.6596 105.68 59.6196 105.46 59.6796L99.2199 61.1796L99.3099 60.2096C99.3599 59.6696 99.4299 59.0596 99.5199 58.4396C99.5999 57.8196 99.6899 57.1696 99.7799 56.5896C99.8199 56.3596 99.7599 56.1196 99.6099 55.9296C99.4699 55.7396 99.2699 55.6196 99.0499 55.5896C98.8099 55.5496 98.5699 55.6096 98.3799 55.7496C98.1899 55.8896 98.0699 56.0896 98.0299 56.3296C97.8899 57.2096 97.7799 58.0396 97.6899 58.7896C97.5799 59.6896 97.5099 60.4696 97.4699 61.0896L97.4499 61.5396L97.0099 61.7096L92.0399 62.9096L92.2499 61.8396C92.3399 61.4296 92.4299 60.9796 92.5499 60.5096C92.6599 60.0496 92.7799 59.5796 92.8999 59.1096L92.9999 58.8696C93.0899 58.7496 93.1499 58.6296 93.1799 58.5196C93.2099 58.3996 93.2099 58.2796 93.1899 58.1496C93.1599 57.9896 93.0799 57.8396 92.9599 57.7296C92.8399 57.6096 92.6999 57.5296 92.5499 57.4996L92.4799 57.4796C92.4699 57.4796 92.4599 57.4796 92.4499 57.4796C92.3099 57.4496 92.2299 57.4396 92.1599 57.4296C92.0999 57.4296 92.0499 57.4296 91.9999 57.4396C91.4699 57.5496 90.8699 57.6696 90.2599 57.7796C89.6999 57.8796 89.1299 57.9796 88.6199 58.0596L87.5299 58.2296L89.0899 53.0296L89.5399 53.0396C90.2499 53.0496 91.0399 53.0296 91.9699 52.9796C92.7599 52.9396 93.6399 52.8696 94.5299 52.7896C94.7699 52.7696 94.9799 52.6596 95.1299 52.4796C95.2799 52.2996 95.3499 52.0696 95.3299 51.8396C95.3099 51.5996 95.1999 51.3896 95.0099 51.2396C94.8299 51.0896 94.6099 51.0196 94.3699 51.0396C93.7599 51.0996 93.0799 51.1496 92.4099 51.1996C91.7599 51.2396 91.1299 51.2796 90.5799 51.2996L89.6099 51.3396L91.5699 44.8096C91.6399 44.5896 91.6099 44.3496 91.4999 44.1396C91.3899 43.9296 91.1999 43.7796 90.9799 43.7196C90.7499 43.6496 90.5199 43.6796 90.3099 43.7896C90.0999 43.8996 89.9499 44.0896 89.8899 44.3096L87.9299 50.8296L87.1399 50.2696C86.6999 49.9596 86.1899 49.5796 85.6599 49.1796C85.1399 48.7796 84.6099 48.3696 84.1199 47.9796C83.9399 47.8296 83.6999 47.7596 83.4799 47.7896C83.2499 47.8196 83.0299 47.9296 82.8899 48.1196C82.7399 48.2996 82.6799 48.5296 82.6999 48.7696C82.7299 48.9996 82.8399 49.2096 83.0199 49.3596C83.7199 49.9196 84.4199 50.4596 85.0499 50.9296C85.7899 51.4796 86.4399 51.9396 86.9799 52.2796L87.3599 52.5196L87.2899 52.9896L85.8799 57.6696L85.0699 56.9396C84.6999 56.6096 84.2899 56.2296 83.8799 55.8396C83.4699 55.4496 83.0599 55.0496 82.6899 54.6696C82.6399 54.6196 82.5899 54.5896 82.5299 54.5496C82.4599 54.5096 82.3799 54.4896 82.2899 54.4596L82.3099 53.8496L82.2399 54.2496L82.1899 54.2396L82.1399 54.4196L82.0399 54.4096C81.9199 54.3996 81.8699 54.3996 81.8199 54.3996L81.7099 54.3896C81.5999 54.4196 81.4599 54.4896 81.3499 54.5896C81.2399 54.6896 81.1599 54.8196 81.1099 54.9596C80.9399 55.4696 80.7499 56.0296 80.5399 56.6096C80.3499 57.1496 80.1499 57.6796 79.9699 58.1596L79.5699 59.1896L75.9399 55.2996L76.1699 54.9096C76.5299 54.2996 76.9099 53.5996 77.3299 52.7696C77.6799 52.0796 78.0499 51.2996 78.4399 50.4496C78.5399 50.2396 78.5499 49.9996 78.4699 49.7796C78.3899 49.5596 78.2199 49.3796 78.0099 49.2896C77.7999 49.1896 77.5699 49.1896 77.3499 49.2696C77.1299 49.3496 76.9499 49.5096 76.8499 49.7296C76.5899 50.2896 76.2999 50.8996 76.0099 51.4996C75.7199 52.0796 75.4399 52.6496 75.1799 53.1296L74.7199 53.9896L70.1399 49.0796C69.9799 48.9096 69.7599 48.8096 69.5299 48.7996C69.3099 48.7996 69.0699 48.8796 68.8999 49.0296C68.7299 49.1896 68.6299 49.4096 68.6199 49.6396C68.6099 49.8796 68.6999 50.0996 68.8599 50.2696L73.4299 55.1696L72.5599 55.5696C72.0599 55.7996 71.4799 56.0496 70.8799 56.3096C70.2699 56.5696 69.6399 56.8196 69.0599 57.0496C68.8399 57.1296 68.6699 57.2996 68.5699 57.5196C68.4799 57.7296 68.4699 57.9696 68.5599 58.1896C68.6099 58.3196 68.6899 58.4296 68.7899 58.5196C68.9599 58.6696 69.1799 58.7596 69.4099 58.7496C69.5099 58.7496 69.6099 58.7296 69.6999 58.6896C70.5499 58.3596 71.3499 58.0296 72.0699 57.7196C72.9199 57.3596 73.6399 57.0196 74.1999 56.7296L74.5999 56.5196L74.9699 56.8196L78.2999 60.3896L77.2699 60.7296C76.7799 60.8896 76.2199 61.0696 75.6499 61.2396C75.0599 61.4196 74.4799 61.5796 73.9299 61.7196C73.7799 61.7596 73.6499 61.8296 73.5399 61.9396C73.4299 62.0396 73.3499 62.1796 73.3099 62.3196C73.2699 62.4696 73.2599 62.6196 73.2899 62.7696C73.3199 62.9196 73.3899 63.0496 73.4899 63.1596C73.8599 63.5796 74.2599 64.0396 74.6699 64.5196C75.0399 64.9596 75.4099 65.4096 75.7399 65.8196L76.4199 66.6696L71.1999 67.9296L70.9799 67.5296C70.6299 66.8996 70.2099 66.2296 69.7099 65.4596C69.2799 64.7996 68.7899 64.0896 68.2699 63.3496C68.1299 63.1596 67.9299 63.0296 67.6999 62.9896C67.4699 62.9496 67.2399 62.9996 67.0499 63.1396C66.8599 63.2796 66.7299 63.4796 66.6899 63.7096C66.6499 63.9396 66.6999 64.1696 66.8399 64.3696C67.1999 64.8696 67.5799 65.4396 67.9599 65.9996C68.3099 66.5296 68.6599 67.0596 68.9599 67.5296L69.4799 68.3496L62.9499 69.9196C62.7199 69.9696 62.5299 70.1196 62.4099 70.3196C62.2899 70.5196 62.2499 70.7596 62.3099 70.9796C62.3499 71.1296 62.4199 71.2696 62.5299 71.3796C62.6899 71.5396 62.9099 71.6396 63.1399 71.6496C63.2199 71.6496 63.2999 71.6396 63.3799 71.6296L69.8899 70.0596L69.7999 71.0296C69.7499 71.5696 69.6799 72.1996 69.5899 72.8596C69.5099 73.5096 69.4099 74.1796 69.3199 74.7996C69.2899 75.0096 69.3299 75.2296 69.4499 75.3996C69.5699 75.5896 69.7699 75.7296 70.0099 75.7896C70.2899 75.8296 70.5199 75.7796 70.7199 75.6396C70.9099 75.4996 71.0299 75.2996 71.0699 75.0596C71.2099 74.1396 71.3299 73.2796 71.4199 72.5096C71.5299 71.5796 71.5999 70.7896 71.6299 70.1496L71.6499 69.6996L72.0899 69.5196L76.7999 68.3896L76.5799 69.4596C76.4799 69.9496 76.3499 70.5096 76.2099 71.0796C76.0699 71.6596 75.9199 72.2396 75.7799 72.7596C75.7399 72.9096 75.7399 73.0596 75.7699 73.1996C75.8099 73.3496 75.8799 73.4796 75.9799 73.5896C76.0899 73.6296 76.1399 73.6596 76.1899 73.6896L76.2799 73.7496C76.3199 73.7696 76.3599 73.7896 76.3999 73.8096C76.4099 73.8096 76.4199 73.8096 76.4299 73.8196C76.5899 73.8696 76.6699 73.8896 76.7399 73.8896C76.8099 73.8896 76.8699 73.8896 76.9299 73.8796C77.4399 73.7696 77.9999 73.6596 78.5899 73.5596C79.1399 73.4596 79.6799 73.3696 80.1699 73.2896L81.2599 73.1196L79.6299 78.5296L79.1799 78.5196C78.4699 78.5096 77.6799 78.5296 76.7499 78.5796C75.9599 78.6196 75.0999 78.6896 74.1899 78.7696C73.9499 78.7896 73.7399 78.8996 73.5899 79.0796C73.4399 79.2596 73.3699 79.4896 73.3899 79.7196C73.4099 79.9496 73.5199 80.1696 73.6999 80.3196C73.8799 80.4696 74.1099 80.5396 74.3499 80.5196C74.9499 80.4596 75.6299 80.4096 76.3099 80.3696C76.9599 80.3296 77.5999 80.2896 78.1399 80.2696L79.0899 80.2396ZM86.4899 74.3696L85.7299 73.6596C85.3699 73.3296 85.0199 73.0196 84.7099 72.7596C84.4099 72.5096 84.1299 72.2896 83.8599 72.0896L83.5199 71.8396L83.5899 71.3896L84.7999 67.3496L87.9899 70.7696L87.8099 71.1396C87.6399 71.4896 87.4899 71.8196 87.3399 72.1696C87.1799 72.5396 87.0199 72.9496 86.8599 73.3896L86.4899 74.3696ZM85.0699 71.2696C85.2399 71.3996 85.4199 71.5496 85.5999 71.6996C85.6999 71.7896 85.8099 71.8796 85.9199 71.9696C85.9699 71.8596 86.0099 71.7496 86.0599 71.6396C86.1499 71.4296 86.2399 71.2196 86.3299 71.0296L85.4399 70.0696L85.0699 71.2696ZM77.8199 71.8296L78.0499 70.8196C78.1599 70.3496 78.2499 69.8996 78.3299 69.4996C78.3999 69.1196 78.4599 68.7596 78.4999 68.4296L78.5499 68.0196L78.9599 67.8596L83.1099 66.8596L81.7699 71.3296L81.3499 71.3596C80.9499 71.3896 80.5899 71.4196 80.1899 71.4696C79.7799 71.5196 79.3199 71.5896 78.8399 71.6696L77.8199 71.8296ZM79.8099 69.0796C79.7799 69.2996 79.7399 69.5196 79.6899 69.7596C79.6699 69.8796 79.6399 70.0096 79.6199 70.1396C79.7599 70.1196 79.8899 70.0996 80.0199 70.0896C80.2599 70.0596 80.4899 70.0296 80.7099 70.0096L81.0799 68.7796L79.8099 69.0796ZM89.3199 69.5296L88.9699 69.2496L86.0699 66.1396L90.6199 65.0496L90.8499 65.3996C91.0699 65.7296 91.2799 66.0296 91.5299 66.3496C91.7799 66.6796 92.0699 67.0496 92.3899 67.4296L93.0599 68.2296L92.0599 68.5396C91.5799 68.6896 91.1299 68.8296 90.7499 68.9696C90.3599 69.1096 90.0199 69.2396 89.7199 69.3696L89.3199 69.5296ZM88.7099 66.9296L89.6199 67.8996C89.8299 67.8196 90.0499 67.7396 90.2799 67.6596C90.4099 67.6196 90.5399 67.5696 90.6799 67.5196C90.5899 67.4096 90.5099 67.2896 90.4199 67.1896C90.2699 66.9896 90.1299 66.7996 89.9999 66.6196L88.7099 66.9296ZM78.1799 66.2296L77.9099 65.8296C77.7299 65.5496 77.5099 65.2496 77.2699 64.9296C77.0199 64.5996 76.7299 64.2396 76.4099 63.8496L75.7399 63.0396L76.7399 62.7396C77.2099 62.5996 77.6599 62.4496 78.0499 62.3096C78.4299 62.1796 78.7799 62.0396 79.0799 61.9096L79.4699 61.7396L79.8199 62.0196L82.7199 65.1296L78.1799 66.2296ZM78.1199 63.7496C78.2099 63.8596 78.2899 63.9796 78.3799 64.0796C78.5299 64.2796 78.6699 64.4696 78.7999 64.6496L80.0899 64.3396L79.1799 63.3696C78.9699 63.4496 78.7499 63.5296 78.5199 63.6096C78.3899 63.6596 78.2599 63.7096 78.1199 63.7496ZM85.6799 64.4196L87.0099 59.9796L87.4299 59.9596C87.8299 59.9396 88.1899 59.9096 88.5799 59.8696C88.9899 59.8196 89.4499 59.7596 89.9299 59.6796L90.9599 59.5096L90.7199 60.5196C90.6099 60.9796 90.5199 61.4196 90.4499 61.7996C90.3799 62.1796 90.3199 62.5296 90.2799 62.8496L90.2299 63.2596L89.8199 63.4196L85.6799 64.4196ZM88.0699 61.3096L87.7099 62.5096L88.9799 62.1996C89.0099 61.9896 89.0499 61.7696 89.0899 61.5496C89.1099 61.4396 89.1299 61.3196 89.1599 61.1996C89.0199 61.2196 88.8699 61.2396 88.7399 61.2496C88.5099 61.2696 88.2799 61.2996 88.0699 61.3096ZM83.9899 63.9196L80.7999 60.4996L80.9799 60.1296C81.1599 59.7696 81.3099 59.4396 81.4599 59.0796C81.6199 58.6996 81.7899 58.2796 81.9499 57.8296L82.3199 56.8496L83.0799 57.5596C83.4399 57.8996 83.7799 58.1996 84.0899 58.4696C84.3899 58.7296 84.6799 58.9596 84.9399 59.1596L85.2699 59.4096L85.1999 59.8496L83.9899 63.9196ZM82.4699 60.2396L83.3599 61.1996L83.7299 59.9696C83.5599 59.8296 83.3799 59.6796 83.1899 59.5296C83.0899 59.4496 82.9899 59.3596 82.8899 59.2596C82.8399 59.3796 82.7899 59.4996 82.7399 59.6196C82.6499 59.8296 82.5599 60.0396 82.4699 60.2396Z" fill="#696969"></path> <path d="M79.2799 68.5897C79.2399 68.9197 79.1799 69.2697 79.1099 69.6397C79.0399 70.0197 78.9499 70.4297 78.8599 70.8497C79.3099 70.7797 79.7199 70.7197 80.0999 70.6697C80.4899 70.6197 80.8499 70.5897 81.1699 70.5597L81.9599 67.9297L79.2799 68.5897Z" fill="white"></path> <path d="M78.0698 71.5899L78.2698 70.7199C78.3698 70.2999 78.4498 69.8999 78.5198 69.5299C78.5898 69.1699 78.6398 68.8199 78.6898 68.5099L78.7398 68.0999L82.8398 67.1099L81.6298 71.1399L81.2098 71.1699C80.8898 71.1899 80.5398 71.2299 80.1698 71.2699C79.7898 71.3199 79.3798 71.3799 78.9498 71.4499L78.0698 71.5899ZM79.8098 69.0799C79.7798 69.2999 79.7398 69.5199 79.6898 69.7599C79.6698 69.8799 79.6398 70.0099 79.6198 70.1399C79.7598 70.1199 79.8898 70.0999 80.0198 70.0899C80.2598 70.0599 80.4898 70.0299 80.7098 70.0099L81.0798 68.7799L79.8098 69.0799Z" fill="#696969"></path> <path d="M84.3799 71.4997C84.6399 71.6997 84.9199 71.9197 85.2199 72.1597C85.5199 72.4097 85.8399 72.6897 86.1699 72.9997C86.3199 72.5997 86.4699 72.2197 86.6199 71.8797C86.7699 71.5297 86.9099 71.2097 87.0499 70.9297L85.1699 68.9097L84.3799 71.4997Z" fill="white"></path> <path d="M86.4099 74.0395L85.7499 73.4395C85.4199 73.1395 85.1099 72.8595 84.8199 72.6195C84.5399 72.3795 84.2699 72.1695 84.0099 71.9795L83.6699 71.7295L84.8699 67.7295L87.7499 70.8095L87.5699 71.1795C87.4399 71.4595 87.2999 71.7695 87.1499 72.0995C87.0099 72.4395 86.8599 72.8095 86.7099 73.1995L86.4099 74.0395ZM85.0699 71.2695C85.2399 71.3995 85.4199 71.5495 85.5999 71.6995C85.6999 71.7895 85.8099 71.8795 85.9199 71.9695C85.9699 71.8595 86.0099 71.7495 86.0599 71.6395C86.1499 71.4295 86.2399 71.2195 86.3299 71.0295L85.4399 70.0695L85.0699 71.2695Z" fill="#696969"></path> <path d="M87.5698 66.5899L89.4598 68.6199C89.7598 68.4899 90.0998 68.3599 90.4798 68.2299C90.8398 68.0999 91.2498 67.9699 91.6898 67.8299C91.3998 67.4799 91.1298 67.1399 90.8998 66.8299C90.6598 66.5099 90.4498 66.2199 90.2698 65.9399L87.5698 66.5899Z" fill="white"></path> <path d="M89.2999 69.3298L86.4199 66.2498L90.5199 65.2598L90.7499 65.6098C90.9299 65.8698 91.1299 66.1598 91.3599 66.4698C91.5899 66.7698 91.8499 67.0998 92.1399 67.4498L92.7099 68.1398L91.8599 68.3998C91.4299 68.5298 91.0299 68.6698 90.6699 68.7898C90.2999 68.9198 89.9699 69.0398 89.6799 69.1698L89.2999 69.3298ZM88.7099 66.9298L89.6199 67.8998C89.8299 67.8198 90.0499 67.7398 90.2799 67.6598C90.4099 67.6198 90.5399 67.5698 90.6799 67.5198C90.5899 67.4098 90.5099 67.2898 90.4199 67.1898C90.2699 66.9898 90.1299 66.7998 89.9999 66.6198L88.7099 66.9298Z" fill="#696969"></path> <path d="M87.5397 60.6499C87.8697 60.6299 88.2497 60.5999 88.6597 60.5599C89.0797 60.5099 89.5397 60.4499 90.0497 60.3599C89.9397 60.8399 89.8497 61.2699 89.7697 61.6699C89.6997 62.0699 89.6397 62.4299 89.5997 62.7599L88.1497 63.1099L86.6997 63.4599L87.1197 62.0499L87.5397 60.6499Z" fill="white"></path> <path d="M85.8198 64.2896L87.0898 60.0696L87.5098 60.0496C87.8298 60.0296 88.1898 60.0096 88.5898 59.9596C88.9998 59.9096 89.4498 59.8496 89.9498 59.7696L90.8298 59.6196L90.6298 60.4896C90.5198 60.9596 90.4298 61.3896 90.3598 61.7796C90.2898 62.1696 90.2298 62.5196 90.1898 62.8296L90.1398 63.2396L85.8198 64.2896ZM87.9898 61.2196L87.5598 62.6396L89.0598 62.2796C89.0898 62.0596 89.1298 61.8196 89.1798 61.5696C89.2098 61.4096 89.2398 61.2496 89.2698 61.0896C89.0798 61.1196 88.8898 61.1396 88.7198 61.1596C88.4698 61.1796 88.2198 61.2096 87.9898 61.2196Z" fill="#696969"></path> <path d="M81.75 60.3595L83.63 62.3795L84.42 59.7495C84.16 59.5495 83.88 59.3195 83.58 59.0695C83.29 58.8195 82.97 58.5395 82.64 58.2295C82.49 58.6395 82.33 59.0295 82.18 59.3795C82.04 59.7295 81.9 60.0595 81.75 60.3595Z" fill="white"></path> <path d="M83.9098 63.5495L81.0298 60.4695L81.2098 60.0995C81.3498 59.8095 81.4898 59.4995 81.6398 59.1595C81.7898 58.8095 81.9398 58.4295 82.0898 58.0295L82.3998 57.1895L83.0598 57.7995C83.3898 58.0995 83.6998 58.3795 83.9798 58.6195C84.2698 58.8595 84.5398 59.0895 84.7898 59.2795L85.1198 59.5295L83.9098 63.5495ZM82.4698 60.2395L83.3598 61.1995L83.7298 59.9695C83.5598 59.8295 83.3798 59.6795 83.1898 59.5295C83.0898 59.4495 82.9898 59.3595 82.8898 59.2595C82.8398 59.3795 82.7898 59.4995 82.7398 59.6195C82.6498 59.8295 82.5598 60.0395 82.4698 60.2395Z" fill="#696969"></path> <path d="M78.4498 65.5497L78.4098 65.4897C78.2198 65.2097 77.9998 64.8897 77.7498 64.5597C77.4998 64.2197 77.1998 63.8497 76.8698 63.4597L76.7798 63.3497L76.9198 63.3097C77.4098 63.1597 77.8598 63.0197 78.2598 62.8697C78.6598 62.7297 79.0098 62.5897 79.3298 62.4597L79.3898 62.4297L81.5898 64.7897L78.4498 65.5497Z" fill="white"></path> <path d="M78.1797 66.2297L77.9098 65.8297C77.7298 65.5497 77.5097 65.2497 77.2697 64.9297C77.0197 64.5997 76.7298 64.2397 76.4098 63.8497L75.7397 63.0397L76.7397 62.7397C77.2097 62.5997 77.6598 62.4497 78.0498 62.3097C78.4298 62.1797 78.7798 62.0397 79.0798 61.9097L79.4697 61.7397L79.8197 62.0197L82.7197 65.1297L78.1797 66.2297ZM77.7998 63.6597C77.9498 63.8497 78.0897 64.0297 78.2197 64.1997C78.3997 64.4297 78.5597 64.6597 78.7097 64.8697L80.4398 64.4497L79.2197 63.1497C78.9697 63.2497 78.7197 63.3397 78.4497 63.4397C78.2497 63.5097 78.0298 63.5797 77.7998 63.6597Z" fill="#696969"></path> <path d="M18.1099 60.39L29.9699 63.35L30.0799 51.3L18.4499 48.79L18.1099 60.39Z" fill="white"></path></svg>