<svg width="106" height="64" viewBox="0 0 106 64" fill="none" xmlns="http://www.w3.org/2000/svg" style="height: 100px;"><path d="M104.35 63.7899H84.6999C84.2599 63.7899 83.8999 63.4299 83.8999 62.9899C83.8999 62.5499 84.2599 62.1899 84.6999 62.1899H104.35C104.79 62.1899 105.15 62.5499 105.15 62.9899C105.15 63.4299 104.79 63.7899 104.35 63.7899Z" fill="#696969"></path> <path d="M24.44 63.7899H0.8C0.36 63.7899 0 63.4299 0 62.9899C0 62.5499 0.36 62.1899 0.8 62.1899H24.44C24.88 62.1899 25.24 62.5499 25.24 62.9899C25.24 63.4299 24.89 63.7899 24.44 63.7899Z" fill="#696969"></path> <path d="M31.46 8.2201L31.96 49.8501L31.77 55.8601L42.14 55.9401L76.63 63.1801L77.39 7.8501L31.46 8.2201Z" fill="#E0E0E0"></path> <path d="M77.3899 62.9901V7.8501L42.1399 18.4301V55.9401L77.3899 62.9901Z" fill="#F2F2F3"></path> <path d="M84.44 63.79H77.39C76.95 63.79 76.59 63.43 76.59 62.99V8.65H32.36V62.99C32.36 63.43 32 63.79 31.56 63.79H24.51C24.07 63.79 23.71 63.43 23.71 62.99V0.8C23.71 0.36 24.07 0 24.51 0H84.45C84.89 0 85.25 0.36 85.25 0.8V62.99C85.24 63.43 84.88 63.79 84.44 63.79ZM78.19 62.19H83.64V1.6H25.31V62.19H30.76V7.85C30.76 7.41 31.12 7.05 31.56 7.05H77.39C77.83 7.05 78.19 7.41 78.19 7.85V62.19Z" fill="#696969"></path> <path d="M77.3901 63.7898C77.3401 63.7898 77.2901 63.7898 77.2301 63.7698L41.9701 56.7198C41.6001 56.6498 41.3301 56.3198 41.3301 55.9398V18.4298C41.3301 18.0798 41.5601 17.7598 41.9001 17.6598L77.1601 7.0798C77.4001 7.0098 77.6601 7.0498 77.8701 7.1998C78.0701 7.3498 78.1901 7.5898 78.1901 7.8398V62.9798C78.1901 63.2198 78.0801 63.4498 77.9001 63.5998C77.7501 63.7298 77.5701 63.7898 77.3901 63.7898ZM42.9401 55.2798L76.6001 62.0098V8.9298L42.9401 19.0298V55.2798Z" fill="#696969"></path></svg>