<svg width="86" height="81" viewBox="0 0 86 81" fill="none" xmlns="http://www.w3.org/2000/svg" style="height: 100px;"><path d="M6.79001 38.2699L6.61001 69.9899L42.95 79.5699L42.68 47.5599L40.86 47.8499L22.19 19.6899L6.51001 36.6799L6.79001 38.2699Z" fill="none"></path> <path d="M36.4599 77.6898L35.7299 51.7698L13.44 46.3198L12.95 71.4998L36.4599 77.6898Z" fill="white"></path> <path d="M23.49 10.6299L46.4 46.3599L84.91 36.2699L62.61 0.939941L23.49 10.6299Z" fill="#E0E0E0"></path> <path d="M43.05 47.6101L43.32 79.6201L79.4001 70.1001L79.27 37.8101L43.05 47.6101Z" fill="#E0E0E0"></path> <path d="M43.32 80.5599C43.24 80.5599 43.16 80.5499 43.08 80.5299L6.47002 70.8799C6.05002 70.7699 5.77002 70.3899 5.77002 69.9599L6.11002 36.0999C6.11002 35.5799 6.53002 35.1699 7.05002 35.1699H7.06002C7.58002 35.1699 7.99002 35.5999 7.99002 36.1199L7.66002 69.2499L43.56 78.7099C44.06 78.8399 44.36 79.3599 44.23 79.8599C44.12 80.2799 43.74 80.5599 43.32 80.5599Z" fill="#696969"></path> <path d="M41.3801 48.5698C41.0701 48.5698 40.7701 48.4098 40.6001 48.1498L22.5801 20.6998L5.15006 39.5498C4.80007 39.9198 4.22006 39.9498 3.84006 39.6198L0.320065 36.5398C0.130065 36.3798 0.0200647 36.1398 6.46953e-05 35.8898C-0.0199353 35.6398 0.0700647 35.3898 0.240065 35.2098L22.8001 9.99984C22.9301 9.85984 23.0901 9.75984 23.2701 9.70984L62.3901 0.0198417C62.7801 -0.0701583 63.1901 0.0898417 63.4101 0.429842L85.7001 35.7698C85.8601 36.0198 85.8901 36.3398 85.7801 36.6198C85.6701 36.8998 85.4301 37.1098 85.1401 37.1798L41.6201 48.5398C41.5401 48.5598 41.4601 48.5698 41.3801 48.5698ZM22.7001 18.2398C22.7301 18.2398 22.7501 18.2398 22.7801 18.2398C23.0701 18.2598 23.3301 18.4198 23.4901 18.6598L41.8001 46.5598L83.4301 35.6898L62.1801 2.00984L24.0001 11.4698L2.27006 35.7498L4.39006 37.6098L22.0101 18.5398C22.1901 18.3498 22.4401 18.2398 22.7001 18.2398Z" fill="#696969"></path> <path d="M43.3201 80.56C43.1201 80.56 42.9201 80.49 42.7501 80.37C42.5201 80.19 42.3801 79.92 42.3801 79.63L42.1201 47.62C42.1201 47.19 42.4001 46.82 42.8101 46.71L79.0201 36.92C79.3001 36.84 79.6001 36.9 79.8301 37.08C80.0601 37.26 80.2001 37.53 80.2001 37.82L80.3301 70.11C80.3301 70.54 80.0401 70.91 79.6301 71.02L43.5501 80.54C43.4801 80.55 43.4001 80.56 43.3201 80.56ZM44.0001 48.33L44.2501 78.41L78.4601 69.39L78.3401 39.05L44.0001 48.33Z" fill="#696969"></path> <path d="M36.58 78.3099C36.5 78.3099 36.43 78.2999 36.35 78.2799L11.96 71.8699C11.53 71.7599 11.24 71.3699 11.25 70.9299L11.59 45.1299C11.6 44.8499 11.73 44.5899 11.95 44.4199C12.17 44.2499 12.45 44.1799 12.73 44.2399L36.87 50.0999C37.31 50.1899 37.61 50.5799 37.61 51.0299L37.52 77.3799C37.52 77.6699 37.38 77.9399 37.16 78.1099C36.99 78.2399 36.78 78.3099 36.58 78.3099ZM13.15 70.2299L35.65 76.1699L35.73 51.7699L13.44 46.3099L13.15 70.2299Z" fill="#696969"></path> <path d="M42.6802 80.25C43.238 80.25 43.6902 79.7978 43.6902 79.24C43.6902 78.6822 43.238 78.23 42.6802 78.23C42.1224 78.23 41.6702 78.6822 41.6702 79.24C41.6702 79.7978 42.1224 80.25 42.6802 80.25Z" fill="#6A6A6A"></path> <path d="M12.6973 50.2143L12.3452 51.5693L36.1846 57.7638L36.5367 56.4087L12.6973 50.2143Z" fill="#696969"></path> <path d="M12.2466 55.412L11.8945 56.7671L35.7339 62.9615L36.086 61.6065L12.2466 55.412Z" fill="#696969"></path> <path d="M13.0953 60.7528L12.7432 62.1079L36.5825 68.3024L36.9346 66.9473L13.0953 60.7528Z" fill="#696969"></path> <path d="M12.3929 65.4389L12.0408 66.7939L35.8801 72.9884L36.2322 71.6333L12.3929 65.4389Z" fill="#696969"></path></svg>