<svg width="92" height="87" viewBox="0 0 92 87" fill="none" xmlns="http://www.w3.org/2000/svg" style="height: 100px;"><path d="M23.4897 10.6299L46.3997 46.3599L84.9098 36.2699L62.6097 0.939941L23.4897 10.6299Z" fill="#E0E0E0"></path> <path d="M43.0498 47.6101L43.3198 79.6201L79.3998 70.1001L79.2698 37.8101L43.0498 47.6101Z" fill="#E0E0E0"></path> <path d="M43.32 80.5599C43.24 80.5599 43.16 80.5499 43.08 80.5299L6.47002 70.8799C6.05002 70.7699 5.77002 70.3899 5.77002 69.9599L6.11002 36.0999C6.11002 35.5799 6.53002 35.1699 7.05002 35.1699H7.06002C7.58002 35.1699 7.99002 35.5999 7.99002 36.1199L7.66002 69.2499L43.56 78.7099C44.06 78.8399 44.36 79.3599 44.23 79.8599C44.12 80.2799 43.74 80.5599 43.32 80.5599Z" fill="#696969"></path> <path d="M41.3798 48.5698C41.0698 48.5698 40.7698 48.4098 40.5998 48.1498L22.5798 20.6998L5.14982 39.5498C4.79982 39.9198 4.21982 39.9498 3.83982 39.6198L0.319821 36.5398C0.129821 36.3798 0.0198206 36.1398 -0.000179445 35.8898C-0.0201794 35.6398 0.0698206 35.3898 0.239821 35.2098L22.7998 9.99984C22.9298 9.85984 23.0898 9.75984 23.2698 9.70984L62.3898 0.0198417C62.7798 -0.0701583 63.1898 0.0898417 63.4098 0.429842L85.6998 35.7698C85.8598 36.0198 85.8898 36.3398 85.7798 36.6198C85.6698 36.8998 85.4298 37.1098 85.1398 37.1798L41.6198 48.5398C41.5398 48.5598 41.4598 48.5698 41.3798 48.5698ZM22.6998 18.2398C22.7298 18.2398 22.7498 18.2398 22.7798 18.2398C23.0698 18.2598 23.3298 18.4198 23.4898 18.6598L41.7998 46.5598L83.4298 35.6898L62.1798 2.00984L23.9998 11.4698L2.26982 35.7498L4.38982 37.6098L22.0098 18.5398C22.1898 18.3498 22.4398 18.2398 22.6998 18.2398Z" fill="#696969"></path> <path d="M43.3196 80.56C43.1196 80.56 42.9196 80.49 42.7496 80.37C42.5196 80.19 42.3796 79.92 42.3796 79.63L42.1196 47.62C42.1196 47.19 42.3996 46.82 42.8096 46.71L79.0196 36.92C79.2996 36.84 79.5996 36.9 79.8296 37.08C80.0596 37.26 80.1996 37.53 80.1996 37.82L80.3296 70.11C80.3296 70.54 80.0396 70.91 79.6296 71.02L43.5496 80.54C43.4796 80.55 43.3996 80.56 43.3196 80.56ZM43.9996 48.33L44.2496 78.41L78.4596 69.39L78.3396 39.05L43.9996 48.33Z" fill="#696969"></path> <path d="M30.9 65.4896C30.82 65.4896 30.75 65.4796 30.67 65.4596L16.93 62.0196C16.5 61.9096 16.21 61.5196 16.22 61.0796L16.62 47.5996C16.63 47.3196 16.76 47.0596 16.98 46.8896C17.2 46.7196 17.48 46.6496 17.76 46.7096L31.24 49.6196C31.68 49.7096 31.98 50.0996 31.98 50.5496L31.85 64.5596C31.85 64.8496 31.71 65.1196 31.49 65.2896C31.3 65.4196 31.1 65.4896 30.9 65.4896ZM18.11 60.3896L29.97 63.3496L30.08 51.2996L18.45 48.7896L18.11 60.3896Z" fill="#696969"></path> <path d="M42.6799 80.25C43.2377 80.25 43.6899 79.7978 43.6899 79.24C43.6899 78.6822 43.2377 78.23 42.6799 78.23C42.1221 78.23 41.6699 78.6822 41.6699 79.24C41.6699 79.7978 42.1221 80.25 42.6799 80.25Z" fill="#6A6A6A"></path> <path d="M70.0396 59.1402C70.2696 59.9002 70.4096 60.7402 70.4696 61.6902C70.6296 64.1502 69.3296 66.2702 68.7596 67.0602C67.5596 68.8502 66.8996 70.9302 66.8196 73.0802L66.8096 73.4802C66.8096 79.8902 71.9996 85.0802 78.3796 85.0802C84.7596 85.0802 89.9496 79.8902 89.9496 73.5102L89.9396 73.0902C89.8696 70.9402 89.1996 68.8602 88.0096 67.0702C87.4296 66.2602 86.1296 64.1502 86.2896 61.6902L86.4196 60.1402C86.4896 59.7802 86.5696 59.4302 86.6796 59.0902C85.7996 59.4502 84.9896 59.9602 84.3296 60.5802L83.5596 61.3202L83.0396 60.3902C81.5496 57.7302 80.7696 54.7102 80.7696 51.6602C80.7696 50.3902 80.8996 49.1402 81.1596 47.9102C77.4796 51.5902 75.3096 56.5102 75.1196 61.7802L75.0096 64.8402L73.5696 62.1402C72.8896 60.8202 71.5896 59.7502 70.0396 59.1402Z" fill="white"></path> <path d="M78.3897 86.73C71.0997 86.73 65.1597 80.8 65.1597 73.5L65.1697 73.01C65.2497 70.56 66.0197 68.18 67.3697 66.14C67.8697 65.44 68.9397 63.72 68.8097 61.79C68.7197 60.35 68.4097 59.21 67.8797 58.29L66.9997 56.77L68.7497 57.07C70.6497 57.4 72.3997 58.3 73.6697 59.54C74.4497 53.68 77.5197 48.37 82.2897 44.74L84.6297 42.96L83.5597 45.7C82.8197 47.6 82.4397 49.61 82.4397 51.65C82.4397 54.09 82.9897 56.5 84.0397 58.69C85.1797 57.85 86.5497 57.26 87.9997 57L89.7497 56.69L88.8697 58.23C88.4897 58.9 88.2197 59.61 88.0797 60.37L87.9597 61.82C87.8397 63.73 88.8997 65.45 89.3697 66.1C90.7697 68.19 91.5297 70.57 91.6097 73.03V73.17C91.6097 73.27 91.6097 73.38 91.6097 73.49V73.51C91.6097 80.8 85.6797 86.73 78.3897 86.73ZM70.0397 59.14C70.2697 59.9 70.4097 60.74 70.4697 61.69C70.6297 64.15 69.3297 66.27 68.7597 67.06C67.5597 68.85 66.8997 70.93 66.8197 73.08L66.8097 73.48C66.8097 79.89 71.9997 85.08 78.3797 85.08C84.7597 85.08 89.9497 79.89 89.9497 73.51L89.9397 73.09C89.8697 70.94 89.1997 68.86 88.0097 67.07C87.4297 66.26 86.1297 64.15 86.2897 61.69L86.4197 60.14C86.4897 59.78 86.5697 59.43 86.6797 59.09C85.7997 59.45 84.9897 59.96 84.3297 60.58L83.5597 61.32L83.0397 60.39C81.5497 57.73 80.7697 54.71 80.7697 51.66C80.7697 50.39 80.8997 49.14 81.1597 47.91C77.4797 51.59 75.3097 56.51 75.1197 61.78L75.0097 64.84L73.5697 62.14C72.8897 60.82 71.5897 59.75 70.0397 59.14Z" fill="#48515A"></path> <path d="M78.3897 86.73C71.0997 86.73 65.1597 80.8 65.1597 73.5L65.1697 73.01C65.2497 70.56 66.0197 68.18 67.3697 66.14C67.8697 65.44 68.9397 63.72 68.8097 61.79C68.7197 60.35 68.4097 59.21 67.8797 58.29L66.9997 56.77L68.7497 57.07C70.6497 57.4 72.3997 58.3 73.6697 59.54C74.4497 53.68 77.5197 48.37 82.2897 44.74L84.6297 42.96L83.5597 45.7C82.8197 47.6 82.4397 49.61 82.4397 51.65C82.4397 54.09 82.9897 56.5 84.0397 58.69C85.1797 57.85 86.5497 57.26 87.9997 57L89.7497 56.69L88.8697 58.23C88.4897 58.9 88.2197 59.61 88.0797 60.37L87.9597 61.82C87.8397 63.73 88.8997 65.45 89.3697 66.1C90.7697 68.19 91.5297 70.57 91.6097 73.03V73.17C91.6097 73.27 91.6097 73.38 91.6097 73.49V73.51C91.6097 80.8 85.6797 86.73 78.3897 86.73ZM70.0397 59.14C70.2697 59.9 70.4097 60.74 70.4697 61.69C70.6297 64.15 69.3297 66.27 68.7597 67.06C67.5597 68.85 66.8997 70.93 66.8197 73.08L66.8097 73.48C66.8097 79.89 71.9997 85.08 78.3797 85.08C84.7597 85.08 89.9497 79.89 89.9497 73.51L89.9397 73.09C89.8697 70.94 89.1997 68.86 88.0097 67.07C87.4297 66.26 86.1297 64.15 86.2897 61.69L86.4197 60.14C86.4897 59.78 86.5697 59.43 86.6797 59.09C85.7997 59.45 84.9897 59.96 84.3297 60.58L83.5597 61.32L83.0397 60.39C81.5497 57.73 80.7697 54.71 80.7697 51.66C80.7697 50.39 80.8997 49.14 81.1597 47.91C77.4797 51.59 75.3097 56.51 75.1197 61.78L75.0097 64.84L73.5697 62.14C72.8897 60.82 71.5897 59.75 70.0397 59.14Z" fill="#696969"></path> <path d="M72.0995 62.8697C71.8795 65.2797 70.6795 67.2197 70.0995 68.0197C69.0995 69.5097 68.5295 71.2997 68.4695 73.1397L68.4595 73.5897C68.4595 78.9797 72.9095 83.4297 78.3795 83.4297C83.8495 83.4297 88.2995 78.9797 88.2995 73.5097L88.2895 73.1497C88.2295 71.2997 87.6595 69.5197 86.6395 67.9897C86.0595 67.1897 84.7895 65.1297 84.6395 62.5797L83.1595 63.9897L81.5995 61.1997C80.2295 58.7497 79.4095 56.0297 79.1795 53.2397C77.7195 55.8397 76.8895 58.7797 76.7795 61.8397L76.4495 71.0197L72.1195 62.9197C72.1195 62.8997 72.1095 62.8797 72.0995 62.8697Z" fill="#696969"></path> <path d="M18.1099 60.39L29.9699 63.35L30.0799 51.3L18.4499 48.79L18.1099 60.39Z" fill="none"></path></svg>