<svg width="112" height="87" viewBox="0 0 112 87" fill="none" xmlns="http://www.w3.org/2000/svg" style="height: 100px;"><path d="M6.96994 38.1999L6.77994 69.9199L43.1199 79.4899L42.8599 47.4799L41.0399 47.7699L22.3599 19.6099L6.68994 36.5999L6.96994 38.1999Z" fill="none"></path> <path d="M23.4897 10.6299L46.3997 46.3599L84.9098 36.2699L62.6097 0.939941L23.4897 10.6299Z" fill="#E0E0E0"></path> <path d="M43.0498 47.6101L43.3198 79.6201L79.3998 70.1001L79.2698 37.8101L43.0498 47.6101Z" fill="#E0E0E0"></path> <path d="M43.32 80.5599C43.24 80.5599 43.16 80.5499 43.08 80.5299L6.47002 70.8799C6.05002 70.7699 5.77002 70.3899 5.77002 69.9599L6.11002 36.0999C6.11002 35.5799 6.53002 35.1699 7.05002 35.1699H7.06002C7.58002 35.1699 7.99002 35.5999 7.99002 36.1199L7.66002 69.2499L43.56 78.7099C44.06 78.8399 44.36 79.3599 44.23 79.8599C44.12 80.2799 43.74 80.5599 43.32 80.5599Z" fill="#696969"></path> <path d="M41.3798 48.5698C41.0698 48.5698 40.7698 48.4098 40.5998 48.1498L22.5798 20.6998L5.14982 39.5498C4.79982 39.9198 4.21982 39.9498 3.83982 39.6198L0.319821 36.5398C0.129821 36.3798 0.0198206 36.1398 -0.000179445 35.8898C-0.0201794 35.6398 0.0698206 35.3898 0.239821 35.2098L22.7998 9.99984C22.9298 9.85984 23.0898 9.75984 23.2698 9.70984L62.3898 0.0198417C62.7798 -0.0701583 63.1898 0.0898417 63.4098 0.429842L85.6998 35.7698C85.8598 36.0198 85.8898 36.3398 85.7798 36.6198C85.6698 36.8998 85.4298 37.1098 85.1398 37.1798L41.6198 48.5398C41.5398 48.5598 41.4598 48.5698 41.3798 48.5698ZM22.6998 18.2398C22.7298 18.2398 22.7498 18.2398 22.7798 18.2398C23.0698 18.2598 23.3298 18.4198 23.4898 18.6598L41.7998 46.5598L83.4298 35.6898L62.1798 2.00984L23.9998 11.4698L2.26982 35.7498L4.38982 37.6098L22.0098 18.5398C22.1898 18.3498 22.4398 18.2398 22.6998 18.2398Z" fill="#696969"></path> <path d="M43.3196 80.56C43.1196 80.56 42.9196 80.49 42.7496 80.37C42.5196 80.19 42.3796 79.92 42.3796 79.63L42.1196 47.62C42.1196 47.19 42.3996 46.82 42.8096 46.71L79.0196 36.92C79.2996 36.84 79.5996 36.9 79.8296 37.08C80.0596 37.26 80.1996 37.53 80.1996 37.82L80.3296 70.11C80.3296 70.54 80.0396 70.91 79.6296 71.02L43.5496 80.54C43.4796 80.55 43.3996 80.56 43.3196 80.56ZM43.9996 48.33L44.2496 78.41L78.4596 69.39L78.3396 39.05L43.9996 48.33Z" fill="#696969"></path> <path d="M30.9 65.4896C30.82 65.4896 30.75 65.4796 30.67 65.4596L16.93 62.0196C16.5 61.9096 16.21 61.5196 16.22 61.0796L16.62 47.5996C16.63 47.3196 16.76 47.0596 16.98 46.8896C17.2 46.7196 17.48 46.6496 17.76 46.7096L31.24 49.6196C31.68 49.7096 31.98 50.0996 31.98 50.5496L31.85 64.5596C31.85 64.8496 31.71 65.1196 31.49 65.2896C31.3 65.4196 31.1 65.4896 30.9 65.4896ZM18.11 60.3896L29.97 63.3496L30.08 51.2996L18.45 48.7896L18.11 60.3896Z" fill="#696969"></path> <path d="M42.6799 80.25C43.2377 80.25 43.6899 79.7978 43.6899 79.24C43.6899 78.6822 43.2377 78.23 42.6799 78.23C42.1221 78.23 41.6699 78.6822 41.6699 79.24C41.6699 79.7978 42.1221 80.25 42.6799 80.25Z" fill="#6A6A6A"></path> <path d="M110.7 60.6296C110.61 60.2496 110.37 59.9496 110.07 59.7596C109.76 59.5696 109.39 59.4996 109.01 59.5896L106.66 60.1596L104.31 60.7296C104.36 60.2596 104.42 59.7196 104.49 59.1796C104.56 58.6396 104.64 58.0796 104.72 57.5496C104.78 57.1696 104.67 56.7896 104.46 56.4996C104.25 56.2096 103.92 55.9996 103.55 55.9496C103.17 55.8896 102.8 55.9896 102.51 56.1996C102.22 56.4096 102.01 56.7296 101.95 57.1196C101.84 57.8196 101.73 58.5796 101.64 59.3296C101.55 60.0696 101.48 60.7995 101.44 61.4195L99.7303 61.8296L98.0203 62.2396C98.0903 61.8796 98.1803 61.4796 98.2803 61.0796C98.3803 60.6696 98.4803 60.2596 98.5903 59.8496C98.7103 59.6896 98.8003 59.5196 98.8503 59.3196C98.9003 59.1296 98.9103 58.9196 98.8603 58.7196C98.8003 58.4496 98.6703 58.2196 98.4903 58.0396C98.3103 57.8596 98.0803 57.7295 97.8303 57.6695C97.8203 57.6695 97.8103 57.6596 97.8003 57.6596C97.7903 57.6596 97.7803 57.6496 97.7703 57.6496C97.7603 57.6496 97.7403 57.6496 97.7303 57.6496C97.7203 57.6496 97.7003 57.6496 97.6903 57.6496C97.5903 57.6296 97.4903 57.6096 97.3903 57.5996C97.2903 57.5896 97.1903 57.5996 97.0803 57.6196C96.5903 57.7196 96.0603 57.8295 95.5503 57.9195C95.0403 58.0095 94.5403 58.0995 94.1003 58.1695L94.5903 56.5496L95.0803 54.9296C95.7103 54.9396 96.4503 54.9096 97.2203 54.8696C97.9903 54.8296 98.7803 54.7596 99.5103 54.6996C99.8903 54.6596 100.23 54.4796 100.46 54.1996C100.69 53.9196 100.81 53.5596 100.78 53.1796C100.74 52.7896 100.55 52.4596 100.28 52.2296C100 51.9996 99.6403 51.8795 99.2603 51.9195C98.7003 51.9695 98.1103 52.0196 97.5303 52.0596C96.9603 52.0996 96.4003 52.1296 95.9203 52.1496L96.6703 49.6596L97.4203 47.1695C97.5303 46.7995 97.4803 46.4196 97.3103 46.1096C97.1403 45.7896 96.8503 45.5396 96.4803 45.4296C96.1103 45.3196 95.7303 45.3696 95.4103 45.5396C95.0903 45.7096 94.8403 45.9996 94.7303 46.3696L94.0003 48.8296L93.2503 51.3096C92.8603 51.0296 92.4103 50.6995 91.9503 50.3495C91.4903 49.9995 91.0303 49.6396 90.5903 49.2896C90.2903 49.0496 89.9203 48.9496 89.5603 48.9896C89.2003 49.0296 88.8603 49.1995 88.6203 49.5095C88.3803 49.8095 88.2803 50.1796 88.3203 50.5396C88.3603 50.8996 88.5303 51.2396 88.8303 51.4796C89.4003 51.9396 90.0303 52.4296 90.6503 52.8896C91.2703 53.3496 91.8703 53.7796 92.4003 54.1196L91.9203 55.6996L91.4403 57.2796C91.1103 56.9896 90.7603 56.6596 90.4003 56.3196C90.0403 55.9796 89.6903 55.6296 89.3503 55.2896C89.2603 55.1996 89.1603 55.1296 89.0503 55.0696C88.9403 55.0096 88.8303 54.9696 88.7103 54.9396C88.6703 54.9296 88.6303 54.9196 88.5803 54.9096C88.5403 54.8996 88.4903 54.8996 88.4503 54.8896C88.4203 54.8896 88.4003 54.8896 88.3703 54.8896C88.3403 54.8896 88.3203 54.8896 88.2903 54.8896C88.2303 54.8896 88.1603 54.8796 88.1003 54.8696C88.0403 54.8596 87.9703 54.8596 87.9103 54.8796C87.6703 54.9396 87.4603 55.0496 87.2803 55.2096C87.1103 55.3696 86.9703 55.5696 86.9003 55.8096C86.7503 56.2796 86.5703 56.7796 86.4003 57.2596C86.2303 57.7396 86.0503 58.2096 85.8903 58.6196L84.7703 57.4195L83.6503 56.2196C83.9703 55.6796 84.3203 55.0196 84.6703 54.3296C85.0203 53.6396 85.3603 52.9196 85.6703 52.2496C85.8303 51.8996 85.8403 51.5196 85.7103 51.1796C85.5903 50.8396 85.3303 50.5596 84.9803 50.3896C84.6403 50.2296 84.2603 50.2295 83.9203 50.3495C83.5803 50.4695 83.2903 50.7196 83.1303 51.0696C82.9003 51.5796 82.6403 52.1196 82.3903 52.6296C82.1403 53.1496 81.8903 53.6396 81.6603 54.0696L79.9203 52.2096L78.1803 50.3495C77.9203 50.0695 77.5603 49.9196 77.2103 49.9096C76.8503 49.8996 76.4903 50.0196 76.2103 50.2896C75.9303 50.5496 75.7803 50.9095 75.7703 51.2595C75.7603 51.6195 75.8803 51.9795 76.1403 52.2595L77.8803 54.1196L79.6203 55.9796C79.1803 56.1796 78.6703 56.3996 78.1403 56.6296C77.6103 56.8496 77.0603 57.0796 76.5403 57.2796C76.1803 57.4196 75.9103 57.6896 75.7703 58.0196C75.6303 58.3496 75.6103 58.7296 75.7503 59.0896C75.8303 59.2996 75.9603 59.4796 76.1103 59.6196C76.2703 59.7596 76.4503 59.8595 76.6503 59.9195C76.8003 59.9595 76.9503 59.9796 77.1003 59.9796C77.2503 59.9696 77.4103 59.9396 77.5603 59.8896C78.2403 59.6196 78.9803 59.3296 79.6803 59.0196C80.3803 58.7196 81.0603 58.4096 81.6203 58.1196L82.7503 59.3296L83.8803 60.5396C83.4503 60.6796 82.9603 60.8396 82.4603 60.9896C81.9603 61.1396 81.4403 61.2796 80.9503 61.4096C80.7103 61.4696 80.5003 61.5896 80.3303 61.7596C80.1603 61.9296 80.0303 62.1296 79.9603 62.3596C79.8903 62.5896 79.8803 62.8396 79.9303 63.0696C79.9803 63.2996 80.0903 63.5196 80.2603 63.6996C80.6003 64.0796 80.9603 64.4896 81.3003 64.8996C81.6403 65.2996 81.9603 65.6896 82.2403 66.0396L80.6203 66.4296L79.0003 66.8196C78.6903 66.2696 78.3003 65.6396 77.8803 64.9996C77.4603 64.3596 77.0103 63.7096 76.5903 63.1096C76.3703 62.7996 76.0403 62.5996 75.6803 62.5396C75.3303 62.4796 74.9503 62.5496 74.6403 62.7796C74.3203 62.9996 74.1303 63.3296 74.0703 63.6896C74.0103 64.0396 74.0803 64.4196 74.3103 64.7296C74.6403 65.1896 74.9703 65.6796 75.2903 66.1596C75.6103 66.6396 75.9103 67.0996 76.1703 67.5096L73.6903 68.1096L71.2103 68.7096C70.8303 68.7996 70.5303 69.0295 70.3403 69.3395C70.1503 69.6495 70.0803 70.0196 70.1703 70.3996C70.2303 70.6496 70.3503 70.8696 70.5203 71.0396C70.6903 71.2096 70.9003 71.3396 71.1303 71.4096C71.2403 71.4396 71.3703 71.4596 71.4903 71.4696C71.6103 71.4696 71.7403 71.4596 71.8603 71.4296L74.3303 70.8296L76.8003 70.2296C76.7503 70.7096 76.6903 71.2695 76.6203 71.8395C76.5503 72.4095 76.4703 72.9996 76.3803 73.5496C76.3303 73.8996 76.4103 74.2396 76.5803 74.5096C76.7603 74.7896 77.0303 74.9996 77.3603 75.0996C77.3903 75.1096 77.4203 75.1195 77.4503 75.1295C77.4803 75.1395 77.5103 75.1396 77.5503 75.1496C77.9303 75.2096 78.3003 75.1096 78.5903 74.8896C78.8803 74.6796 79.0903 74.3596 79.1503 73.9696C79.2603 73.2396 79.3703 72.4496 79.4603 71.6896C79.5503 70.9196 79.6203 70.1796 79.6503 69.5496L81.2403 69.1695L82.8303 68.7896C82.7403 69.2296 82.6303 69.7196 82.5103 70.2096C82.3903 70.7096 82.2603 71.2096 82.1303 71.6796C82.0703 71.9096 82.0603 72.1596 82.1203 72.3896C82.1803 72.6196 82.2903 72.8296 82.4603 73.0096C82.5003 73.0596 82.5603 73.0896 82.6103 73.1196C82.6603 73.1496 82.7203 73.1696 82.7703 73.2096C82.7903 73.2296 82.8203 73.2396 82.8403 73.2596C82.8603 73.2696 82.8903 73.2896 82.9103 73.2996C82.9403 73.3096 82.9603 73.3296 82.9903 73.3496C83.0103 73.3696 83.0403 73.3896 83.0703 73.3896C83.0803 73.3896 83.1003 73.3896 83.1103 73.3896C83.1303 73.3896 83.1403 73.3896 83.1503 73.3896C83.2603 73.4296 83.3803 73.4596 83.5003 73.4696C83.6203 73.4796 83.7403 73.4795 83.8703 73.4495C84.3403 73.3495 84.8403 73.2595 85.3203 73.1695C85.8103 73.0795 86.2903 72.9996 86.7103 72.9296L86.2003 74.6396L85.6903 76.3496C85.0603 76.3396 84.3203 76.3696 83.5503 76.4096C82.7803 76.4496 81.9903 76.5196 81.2603 76.5796C80.8803 76.6096 80.5403 76.7996 80.3103 77.0796C80.0803 77.3496 79.9603 77.7195 79.9903 78.0995C80.0303 78.4895 80.2103 78.8196 80.4903 79.0496C80.7703 79.2796 81.1303 79.3996 81.5103 79.3696C82.0703 79.3196 82.6603 79.2696 83.2403 79.2296C83.8103 79.1896 84.3703 79.1595 84.8503 79.1395L84.1403 81.4995L83.4303 83.8596C83.3203 84.2296 83.3703 84.6096 83.5403 84.9296C83.7103 85.2496 84.0003 85.4996 84.3703 85.6096C84.7403 85.7196 85.1203 85.6695 85.4403 85.4995C85.7603 85.3295 86.0103 85.0395 86.1203 84.6695L86.8303 82.3095L87.5403 79.9495C87.9303 80.2295 88.3803 80.5596 88.8403 80.9096C89.3003 81.2596 89.7603 81.6196 90.2003 81.9696C90.2703 82.0296 90.3503 82.0796 90.4303 82.1196C90.5103 82.1596 90.5903 82.1896 90.6703 82.2196C90.9303 82.2996 91.2203 82.2996 91.4803 82.2196C91.7403 82.1396 91.9803 81.9896 92.1703 81.7596C92.4103 81.4596 92.5103 81.0896 92.4703 80.7296C92.4303 80.3696 92.2603 80.0296 91.9503 79.7896C91.3803 79.3296 90.7503 78.8395 90.1303 78.3795C89.5103 77.9195 88.9103 77.4896 88.3803 77.1496L88.9003 75.4195L89.4203 73.6896C89.7603 73.9896 90.1303 74.3296 90.5003 74.6896C90.8703 75.0496 91.2503 75.4095 91.6003 75.7695C91.6903 75.8595 91.8003 75.9396 91.9103 75.9996C92.0203 76.0596 92.1403 76.0995 92.2603 76.1295C92.2703 76.1295 92.2803 76.1396 92.2803 76.1496C92.2903 76.1596 92.3003 76.1596 92.3003 76.1596C92.5403 76.2296 92.7903 76.2396 93.0303 76.1796C93.2703 76.1196 93.5003 75.9996 93.6903 75.8196C93.8403 75.6696 93.9503 75.4995 94.0103 75.3095C94.0703 75.1195 94.1003 74.9196 94.0803 74.7296C94.2203 74.3296 94.3603 73.9196 94.5003 73.5296C94.6403 73.1396 94.7803 72.7595 94.9103 72.4195L96.1103 73.7096L97.3103 74.9996C97.0003 75.5396 96.6603 76.1796 96.3203 76.8496C95.9903 77.5196 95.6603 78.2196 95.3603 78.8596C95.2003 79.2096 95.1903 79.5896 95.3203 79.9296C95.4403 80.2696 95.7003 80.5496 96.0503 80.7196C96.0803 80.7296 96.1103 80.7496 96.1403 80.7596C96.1703 80.7696 96.2003 80.7796 96.2303 80.7896C96.5603 80.8896 96.9003 80.8596 97.2003 80.7296C97.5003 80.5996 97.7503 80.3596 97.9003 80.0396C98.1203 79.5496 98.3703 79.0396 98.6103 78.5496C98.8503 78.0496 99.0903 77.5796 99.3103 77.1596L100.96 78.9296L102.61 80.6995C102.7 80.7895 102.79 80.8696 102.9 80.9396C103 80.9996 103.12 81.0495 103.23 81.0895C103.46 81.1595 103.71 81.1696 103.94 81.1196C104.17 81.0696 104.4 80.9495 104.59 80.7795C104.87 80.5195 105.02 80.1595 105.03 79.8095C105.04 79.4495 104.92 79.0895 104.66 78.8095L102.98 77.0096L101.3 75.2096C101.75 74.9996 102.27 74.7696 102.82 74.5396C103.37 74.3096 103.94 74.0696 104.49 73.8596C104.85 73.7196 105.12 73.4496 105.26 73.1196C105.4 72.7896 105.42 72.4096 105.28 72.0496C105.14 71.6896 104.86 71.4196 104.54 71.2796C104.22 71.1396 103.83 71.1196 103.47 71.2596C102.76 71.5296 102 71.8396 101.27 72.1596C100.54 72.4696 99.8503 72.7895 99.2903 73.0895L98.1003 71.8095L96.9103 70.5296C97.3403 70.3896 97.8303 70.2296 98.3303 70.0796C98.8303 69.9296 99.3503 69.7896 99.8403 69.6596C100.08 69.5996 100.29 69.4795 100.46 69.3095C100.63 69.1495 100.76 68.9396 100.83 68.7096C100.9 68.4796 100.91 68.2296 100.86 67.9996C100.81 67.7696 100.7 67.5496 100.53 67.3696C100.19 66.9896 99.8303 66.5795 99.4903 66.1695C99.1503 65.7695 98.8303 65.3796 98.5503 65.0296L100.25 64.6196L101.95 64.2096C102.25 64.7596 102.65 65.4096 103.09 66.0696C103.52 66.7296 103.99 67.4096 104.43 68.0296C104.52 68.1596 104.64 68.2696 104.76 68.3596C104.88 68.4496 105.02 68.5195 105.17 68.5595C105.37 68.6195 105.58 68.6396 105.79 68.5996C106 68.5696 106.2 68.4896 106.38 68.3596C106.7 68.1396 106.89 67.8095 106.95 67.4495C107.01 67.0995 106.94 66.7196 106.71 66.4096C106.37 65.9296 106.01 65.4096 105.68 64.9096C105.35 64.4096 105.04 63.9296 104.78 63.5196L107.18 62.9396L109.58 62.3596C109.96 62.2696 110.26 62.0396 110.45 61.7296C110.64 61.4196 110.79 61.0096 110.7 60.6296ZM85.2003 65.3296C85.0303 65.0796 84.8403 64.7996 84.6103 64.4996C84.3803 64.1996 84.1203 63.8696 83.8303 63.5196C84.2703 63.3896 84.6703 63.2596 85.0203 63.1296C85.3803 62.9996 85.6903 62.8796 85.9703 62.7596L86.8803 63.7296L87.7903 64.6995L86.5003 65.0096L85.2003 65.3296ZM87.6503 69.9696C87.3503 69.9896 87.0103 70.0196 86.6403 70.0696C86.2703 70.1196 85.8603 70.1796 85.4103 70.2496C85.5103 69.8096 85.5903 69.4196 85.6603 69.0496C85.7303 68.6896 85.7803 68.3595 85.8203 68.0595L87.1103 67.7496L88.4003 67.4396L88.0203 68.7096L87.6503 69.9696ZM89.8103 62.7696L88.9003 61.7996L87.9903 60.8296C88.1203 60.5596 88.2603 60.2595 88.4003 59.9195C88.5403 59.5795 88.6903 59.1996 88.8503 58.7796C89.1803 59.0896 89.4903 59.3596 89.7703 59.6096C90.0503 59.8496 90.3203 60.0696 90.5603 60.2496L90.1803 61.5196L89.8103 62.7696ZM93.2403 61.0696C93.5403 61.0596 93.8703 61.0296 94.2403 60.9896C94.6103 60.9496 95.0203 60.8896 95.4703 60.8196C95.3703 61.2396 95.2903 61.6296 95.2203 61.9896C95.1503 62.3496 95.1003 62.6696 95.0703 62.9596L93.7803 63.2696L92.4903 63.5796L92.8703 62.3296L93.2403 61.0696ZM92.0503 72.1896C91.7103 71.8796 91.4003 71.5996 91.1203 71.3596C90.8403 71.1196 90.5703 70.9195 90.3303 70.7395L90.7103 69.4895L91.0903 68.2395L92.0003 69.2096L92.9103 70.1796C92.7803 70.4396 92.6403 70.7396 92.5003 71.0696C92.3503 71.4096 92.2103 71.7796 92.0503 72.1896ZM94.9203 68.2496L94.0103 67.2796L93.1003 66.3095L94.4003 65.9996L95.7003 65.6896C95.8703 65.9396 96.0603 66.2195 96.2903 66.5195C96.5203 66.8195 96.7803 67.1496 97.0703 67.4996C96.6303 67.6296 96.2303 67.7596 95.8803 67.8896C95.5203 68.0096 95.2003 68.1396 94.9203 68.2496Z" fill="#F2F2F3"></path> <path d="M84.81 86.1898C84.62 86.1898 84.43 86.1598 84.25 86.1098C83.76 85.9598 83.35 85.6298 83.1 85.1798C82.86 84.7198 82.8 84.1998 82.95 83.7098L84.15 79.7098C83.88 79.7198 83.59 79.7398 83.31 79.7598C82.74 79.7998 82.15 79.8398 81.6 79.8898C81.09 79.9298 80.58 79.7798 80.19 79.4498C79.79 79.1198 79.55 78.6598 79.5 78.1398C79.45 77.6198 79.61 77.1198 79.94 76.7298C80.27 76.3298 80.73 76.0898 81.25 76.0398C81.99 75.9698 82.79 75.9098 83.56 75.8698C84.22 75.8298 84.82 75.8098 85.33 75.8098L86 73.5798C85.82 73.6098 85.64 73.6398 85.46 73.6798C84.98 73.7698 84.48 73.8598 84.02 73.9598C83.85 73.9998 83.67 74.0098 83.49 73.9898C83.37 73.9798 83.25 73.9498 83.12 73.9198H83.1L82.96 73.8898C82.84 73.8498 82.75 73.7898 82.71 73.7598L82.6 73.6998C82.57 73.6798 82.53 73.6598 82.5 73.6298L82.4 73.5798C82.31 73.5298 82.21 73.4698 82.11 73.3698C81.88 73.1298 81.72 72.8298 81.64 72.5098C81.56 72.1898 81.56 71.8498 81.65 71.5298C81.78 71.0598 81.91 70.5598 82.03 70.0698C82.08 69.8698 82.12 69.6798 82.17 69.4898L80.2 69.9598C80.16 70.4698 80.11 71.0598 80.03 71.7398C79.94 72.5098 79.82 73.3098 79.71 74.0398C79.63 74.5498 79.36 74.9998 78.94 75.3098C78.52 75.6098 78.02 75.7398 77.51 75.6598L77.25 75.5998C76.81 75.4698 76.43 75.1798 76.18 74.7898C75.93 74.3998 75.83 73.9198 75.9 73.4598C75.98 72.9098 76.07 72.3298 76.14 71.7698C76.18 71.4798 76.21 71.1998 76.24 70.9298L72.03 71.9398C71.86 71.9798 71.68 71.9998 71.52 71.9898C71.35 71.9798 71.19 71.9598 71.03 71.9098C70.71 71.8098 70.42 71.6398 70.19 71.3998C69.95 71.1598 69.78 70.8498 69.71 70.5098C69.59 70.0098 69.67 69.4898 69.94 69.0498C70.21 68.6098 70.64 68.2998 71.14 68.1798L75.38 67.1598C75.23 66.9298 75.07 66.6898 74.91 66.4498C74.59 65.9798 74.26 65.4898 73.93 65.0298C73.63 64.6098 73.51 64.0998 73.6 63.5898C73.69 63.0798 73.97 62.6398 74.39 62.3398C74.81 62.0398 75.32 61.9298 75.83 62.0098C76.34 62.0998 76.78 62.3798 77.08 62.7998C77.51 63.4098 77.96 64.0598 78.39 64.7098C78.75 65.2598 79.07 65.7698 79.33 66.2098L81.36 65.7198C81.23 65.5598 81.1 65.3998 80.96 65.2398C80.62 64.8398 80.27 64.4398 79.93 64.0598C79.71 63.8098 79.55 63.5098 79.48 63.1898C79.41 62.8698 79.42 62.5298 79.52 62.2098C79.62 61.8898 79.79 61.5998 80.03 61.3698C80.27 61.1398 80.56 60.9798 80.88 60.8898C81.36 60.7598 81.87 60.6198 82.37 60.4698C82.58 60.4098 82.78 60.3498 82.98 60.2798L81.56 58.7598C81.1 58.9898 80.56 59.2298 79.95 59.4898C79.24 59.7998 78.5 60.0998 77.81 60.3598C77.61 60.4398 77.39 60.4798 77.18 60.4898C76.97 60.4998 76.76 60.4698 76.56 60.4098C76.29 60.3298 76.03 60.1798 75.82 59.9898C75.6 59.7898 75.43 59.5398 75.32 59.2598C75.13 58.7798 75.14 58.2498 75.35 57.7798C75.56 57.3098 75.94 56.9498 76.42 56.7598C76.94 56.5598 77.48 56.3398 78.01 56.1198C78.28 56.0098 78.54 55.8898 78.8 55.7798L75.83 52.5998C75.48 52.2198 75.29 51.7298 75.31 51.2098C75.33 50.6898 75.55 50.2198 75.92 49.8598C76.3 49.5098 76.79 49.3198 77.31 49.3398C77.83 49.3598 78.3 49.5798 78.65 49.9498L81.61 53.1198C81.73 52.8798 81.86 52.6298 81.99 52.3698C82.24 51.8598 82.5 51.3198 82.73 50.8198C82.95 50.3498 83.34 49.9998 83.82 49.8198C84.3 49.6398 84.83 49.6698 85.29 49.8798C85.76 50.0898 86.11 50.4798 86.29 50.9598C86.47 51.4398 86.45 51.9698 86.23 52.4398C85.92 53.1098 85.57 53.8398 85.23 54.5398C84.93 55.1398 84.65 55.6698 84.4 56.1198L85.78 57.5998C85.85 57.4198 85.91 57.2398 85.98 57.0498C86.15 56.5698 86.32 56.0798 86.47 55.6098C86.57 55.2998 86.75 55.0098 87 54.7898C87.24 54.5698 87.54 54.4098 87.86 54.3298C88 54.2998 88.13 54.2998 88.22 54.3098L88.36 54.8598L88.33 54.3298H88.35L88.73 54.3598C88.8 54.3698 88.87 54.3898 88.94 54.4198C89.06 54.4498 89.21 54.4998 89.34 54.5698C89.51 54.6598 89.66 54.7698 89.78 54.8898C90.11 55.2198 90.46 55.5698 90.82 55.9098C90.96 56.0398 91.09 56.1698 91.23 56.2898L91.82 54.3198C91.39 54.0298 90.91 53.6898 90.38 53.2898C89.76 52.8298 89.13 52.3298 88.55 51.8698C88.15 51.5498 87.9 51.0898 87.84 50.5798C87.78 50.0698 87.93 49.5598 88.25 49.1598C88.58 48.7598 89.04 48.4998 89.55 48.4498C90.07 48.3898 90.57 48.5398 90.97 48.8698C91.4 49.2098 91.86 49.5798 92.32 49.9198C92.55 50.0998 92.78 50.2698 93 50.4298L94.28 46.1798C94.43 45.6798 94.76 45.2798 95.22 45.0298C95.68 44.7798 96.2 44.7298 96.69 44.8798C97.19 45.0298 97.59 45.3598 97.84 45.8198C98.08 46.2698 98.14 46.7998 97.99 47.2898L96.71 51.5398C96.98 51.5298 97.27 51.5098 97.55 51.4898C98.12 51.4498 98.71 51.4098 99.26 51.3498C99.77 51.2998 100.27 51.4498 100.67 51.7798C101.07 52.1098 101.31 52.5698 101.36 53.0898C101.41 53.6098 101.25 54.1098 100.92 54.5098C100.59 54.9098 100.13 55.1498 99.61 55.1998C98.87 55.2698 98.07 55.3298 97.3 55.3798C96.63 55.4198 96.04 55.4398 95.53 55.4398L94.92 57.4698C95.11 57.4398 95.31 57.3998 95.51 57.3698C96.02 57.2798 96.54 57.1798 97.02 57.0698C97.17 57.0398 97.32 57.0298 97.48 57.0398C97.61 57.0498 97.74 57.0698 97.87 57.0998C98 57.1198 98.04 57.1298 98.07 57.1498C98.36 57.2198 98.67 57.3998 98.92 57.6498C99.18 57.9098 99.36 58.2398 99.44 58.5998C99.5 58.8798 99.49 59.1698 99.42 59.4498C99.36 59.6698 99.27 59.8798 99.13 60.0798C99.03 60.4498 98.94 60.8298 98.85 61.1998C98.82 61.3098 98.8 61.4198 98.77 61.5198L100.98 60.9898C101.02 60.4898 101.07 59.9098 101.15 59.2598C101.24 58.5098 101.35 57.7398 101.46 57.0398C101.54 56.5298 101.81 56.0798 102.23 55.7698C102.65 55.4598 103.15 55.3398 103.67 55.4198C104.16 55.4798 104.62 55.7598 104.93 56.1798C105.24 56.5998 105.37 57.1098 105.29 57.6198C105.21 58.1398 105.13 58.6898 105.06 59.2398C105.03 59.5098 104.99 59.7698 104.96 60.0298L108.92 59.0798C109.42 58.9598 109.94 59.0398 110.38 59.3098C110.82 59.5798 111.13 59.9998 111.25 60.5098C111.37 61.0098 111.29 61.5298 111.02 61.9698C110.75 62.4098 110.33 62.7198 109.82 62.8398L105.75 63.8198C105.91 64.0598 106.07 64.3098 106.24 64.5698C106.57 65.0598 106.92 65.5798 107.26 66.0598C107.56 66.4798 107.68 66.9898 107.59 67.4998C107.5 68.0098 107.22 68.4498 106.8 68.7498C106.55 68.9198 106.28 69.0398 105.98 69.0798C105.7 69.1198 105.4 69.0998 105.13 69.0198C104.93 68.9598 104.74 68.8698 104.57 68.7398C104.39 68.6098 104.24 68.4598 104.11 68.2798C103.67 67.6598 103.2 66.9698 102.76 66.2998C102.38 65.7198 102.06 65.2098 101.8 64.7598L99.61 65.2898C99.74 65.4498 99.87 65.6098 100.01 65.7698C100.35 66.1698 100.7 66.5698 101.04 66.9498C101.26 67.1998 101.42 67.4998 101.49 67.8198C101.56 68.1398 101.55 68.4798 101.45 68.7998C101.35 69.1198 101.18 69.3998 100.94 69.6298C100.7 69.8598 100.41 70.0298 100.09 70.1098C99.61 70.2398 99.1 70.3798 98.6 70.5298C98.39 70.5898 98.19 70.6498 97.99 70.7198L99.52 72.3598C99.98 72.1298 100.54 71.8798 101.17 71.5998C101.9 71.2798 102.67 70.9698 103.39 70.6998C103.87 70.5098 104.39 70.5198 104.86 70.7298C105.33 70.9398 105.7 71.3198 105.89 71.7998C106.08 72.2798 106.07 72.8098 105.86 73.2798C105.65 73.7498 105.27 74.1198 104.79 74.2998C104.25 74.5098 103.68 74.7398 103.13 74.9698C102.84 75.0898 102.56 75.2098 102.3 75.3298L105.15 78.3898C105.5 78.7698 105.69 79.2598 105.67 79.7798C105.65 80.2898 105.43 80.7698 105.06 81.1298C104.81 81.3598 104.5 81.5298 104.17 81.5998C103.84 81.6698 103.5 81.6598 103.19 81.5598C103.03 81.5098 102.88 81.4398 102.73 81.3598C102.58 81.2698 102.45 81.1598 102.33 81.0298L99.54 78.0498C99.43 78.2798 99.31 78.5098 99.19 78.7598C98.95 79.2498 98.71 79.7598 98.48 80.2398C98.28 80.6598 97.94 80.9998 97.51 81.1898C97.09 81.3798 96.61 81.4098 96.17 81.2798L96.04 81.2398C96 81.2198 95.95 81.2098 95.91 81.1898C95.44 80.9798 95.09 80.5898 94.91 80.1098C94.73 79.6198 94.75 79.0998 94.97 78.6298C95.27 77.9798 95.6 77.2798 95.94 76.6098C96.23 76.0298 96.5 75.5098 96.75 75.0698L95.2 73.4098C95.16 73.5098 95.13 73.6098 95.09 73.7098C94.96 74.0698 94.83 74.4398 94.7 74.8098C94.7 75.0398 94.67 75.2698 94.59 75.4898C94.49 75.7698 94.34 76.0098 94.14 76.2098C93.89 76.4598 93.57 76.6298 93.23 76.7098C92.9 76.7898 92.55 76.7798 92.23 76.6798L92.1 76.6298C91.99 76.5998 91.85 76.5498 91.72 76.4798C91.55 76.3898 91.41 76.2798 91.28 76.1598C90.93 75.8098 90.56 75.4398 90.19 75.0898C90.04 74.9498 89.89 74.8098 89.74 74.6698L89.06 76.9398C89.49 77.2298 89.97 77.5698 90.5 77.9698C91.12 78.4298 91.75 78.9298 92.33 79.3898C92.73 79.7098 92.98 80.1698 93.04 80.6798C93.1 81.1898 92.95 81.6998 92.63 82.0998C92.38 82.4098 92.06 82.6298 91.68 82.7398C91.31 82.8498 90.93 82.8498 90.56 82.7398C90.44 82.6998 90.33 82.6598 90.22 82.5998C90.11 82.5398 90.01 82.4798 89.91 82.3998C89.48 82.0498 89.01 81.6898 88.56 81.3498C88.33 81.1698 88.1 80.9998 87.88 80.8398L86.68 84.8398C86.53 85.3298 86.2 85.7398 85.74 85.9898C85.44 86.1098 85.13 86.1898 84.81 86.1898ZM85.61 78.5698L83.98 84.0098C83.91 84.2298 83.94 84.4698 84.05 84.6698C84.16 84.8698 84.34 85.0198 84.56 85.0898C84.78 85.1598 85.02 85.1298 85.22 85.0198C85.43 84.9098 85.57 84.7298 85.64 84.5098L87.27 79.0798L87.88 79.5098C88.28 79.7898 88.73 80.1298 89.19 80.4798C89.65 80.8298 90.12 81.1998 90.56 81.5498C90.6 81.5898 90.65 81.6198 90.7 81.6398C90.75 81.6698 90.8 81.6898 90.85 81.6998C91.01 81.7498 91.18 81.7498 91.35 81.6998C91.52 81.6498 91.67 81.5498 91.78 81.4098C91.92 81.2298 91.99 80.9998 91.96 80.7798C91.93 80.5498 91.82 80.3398 91.64 80.1998C91.07 79.7398 90.45 79.2598 89.84 78.7998C89.18 78.3098 88.6 77.8998 88.12 77.5898L87.78 77.3698L89.18 72.7198L89.8 73.2798C90.14 73.5798 90.52 73.9298 90.9 74.2898C91.28 74.6498 91.66 75.0198 92.01 75.3798C92.06 75.4298 92.12 75.4798 92.19 75.5098C92.26 75.5498 92.33 75.5698 92.42 75.5998L92.57 75.6598C92.69 75.6798 92.82 75.6798 92.94 75.6498C93.09 75.6098 93.23 75.5398 93.35 75.4198C93.44 75.3298 93.5 75.2298 93.54 75.1098C93.58 74.9998 93.59 74.8698 93.58 74.7398L93.57 74.6298L93.6 74.5298C93.74 74.1198 93.88 73.7098 94.03 73.3198C94.17 72.9198 94.32 72.5398 94.45 72.1998L94.76 71.4098L98.02 74.8998L97.82 75.2398C97.54 75.7298 97.21 76.3398 96.85 77.0598C96.52 77.7298 96.19 78.4198 95.9 79.0498C95.8 79.2598 95.79 79.4998 95.87 79.7098C95.95 79.9298 96.11 80.0998 96.32 80.1998L96.43 80.2398C96.63 80.2998 96.84 80.2798 97.03 80.1998C97.22 80.1098 97.37 79.9598 97.46 79.7698C97.69 79.2798 97.93 78.7598 98.18 78.2698C98.42 77.7698 98.67 77.2898 98.89 76.8698L99.24 76.1998L103.06 80.2898C103.11 80.3498 103.17 80.3898 103.24 80.4398C103.3 80.4798 103.37 80.5098 103.44 80.5298C103.59 80.5698 103.74 80.5798 103.88 80.5498C104.03 80.5198 104.17 80.4398 104.28 80.3398C104.45 80.1798 104.55 79.9698 104.55 79.7398C104.56 79.5098 104.48 79.2898 104.32 79.1198L100.46 74.9798L101.13 74.6698C101.58 74.4598 102.11 74.2298 102.67 73.9898C103.22 73.7598 103.8 73.5198 104.36 73.2998C104.58 73.2198 104.75 73.0498 104.84 72.8398C104.93 72.6298 104.94 72.3898 104.85 72.1798C104.77 71.9598 104.6 71.7898 104.39 71.6998C104.18 71.6098 103.94 71.5998 103.73 71.6898C103.03 71.9598 102.27 72.2698 101.55 72.5798C100.76 72.9198 100.11 73.2198 99.61 73.4898L99.25 73.6798L96.03 70.2198L96.82 69.9598C97.26 69.8098 97.75 69.6598 98.26 69.5098C98.77 69.3598 99.29 69.2098 99.79 69.0798C99.93 69.0398 100.07 68.9698 100.17 68.8698C100.28 68.7698 100.36 68.6398 100.4 68.4998C100.44 68.3598 100.45 68.2098 100.42 68.0598C100.39 67.9198 100.32 67.7798 100.22 67.6698C99.87 67.2798 99.51 66.8698 99.17 66.4598C98.83 66.0498 98.5 65.6598 98.22 65.3098L97.69 64.6498L102.31 63.5398L102.51 63.8998C102.78 64.3998 103.16 65.0098 103.63 65.7298C104.06 66.3898 104.52 67.0598 104.96 67.6698C105.02 67.7498 105.09 67.8198 105.17 67.8798C105.25 67.9298 105.33 67.9798 105.42 67.9998C105.54 68.0398 105.68 68.0498 105.8 68.0298C105.93 68.0098 106.06 67.9598 106.17 67.8798C106.36 67.7498 106.48 67.5498 106.52 67.3198C106.56 67.0898 106.51 66.8598 106.37 66.6698C106.02 66.1798 105.67 65.6598 105.33 65.1598C104.99 64.6598 104.68 64.1698 104.42 63.7598L104.03 63.1298L109.55 61.7998C109.78 61.7498 109.97 61.6098 110.09 61.4098C110.21 61.2098 110.25 60.9798 110.19 60.7598C110.14 60.5398 110 60.3398 109.8 60.2198C109.6 60.0998 109.37 60.0598 109.15 60.1198L103.72 61.4298L103.8 60.6798C103.85 60.1998 103.91 59.6598 103.98 59.1098C104.05 58.5598 104.13 57.9998 104.21 57.4698C104.25 57.2398 104.19 57.0098 104.05 56.8198C103.91 56.6298 103.71 56.5098 103.5 56.4898C103.26 56.4498 103.03 56.5098 102.84 56.6498C102.65 56.7898 102.53 56.9898 102.5 57.2198C102.39 57.9098 102.29 58.6698 102.2 59.4098C102.1 60.2098 102.04 60.8998 102.01 61.4598L101.99 61.8598L97.37 62.9698L97.54 62.1498C97.62 61.7798 97.71 61.3798 97.8 60.9698C97.9 60.5598 98 60.1398 98.11 59.7298L98.2 59.5398C98.28 59.4398 98.33 59.3198 98.37 59.2098C98.4 59.0898 98.4 58.9698 98.38 58.8498C98.35 58.6898 98.27 58.5498 98.15 58.4298C98.04 58.3198 97.9 58.2398 97.74 58.1998L97.63 58.1798C97.54 58.1598 97.46 58.1398 97.39 58.1398C97.33 58.1398 97.28 58.1398 97.23 58.1498C96.74 58.2498 96.21 58.3598 95.69 58.4498C95.17 58.5398 94.67 58.6298 94.23 58.6998L93.39 58.8298L94.72 54.3998L95.12 54.4098C95.69 54.4198 96.4 54.3998 97.22 54.3498C97.98 54.3098 98.77 54.2398 99.49 54.1798C99.72 54.1598 99.93 54.0498 100.08 53.8698C100.23 53.6898 100.3 53.4698 100.28 53.2398C100.26 53.0098 100.15 52.7998 99.97 52.6498C99.79 52.4998 99.57 52.4398 99.34 52.4598C98.77 52.5098 98.18 52.5598 97.6 52.5998C97.02 52.6398 96.46 52.6698 95.98 52.6898L95.23 52.7198L96.91 46.9998C96.98 46.7798 96.95 46.5398 96.84 46.3398C96.73 46.1398 96.55 45.9898 96.33 45.9198C96.11 45.8498 95.87 45.8798 95.67 45.9898C95.47 46.0998 95.32 46.2798 95.25 46.4998L93.54 52.1798L92.93 51.7498C92.53 51.4698 92.08 51.1298 91.62 50.7798C91.16 50.4298 90.69 50.0598 90.25 49.7098C90.07 49.5598 89.85 49.4998 89.61 49.5198C89.38 49.5398 89.17 49.6598 89.03 49.8398C88.89 50.0198 88.82 50.2398 88.85 50.4698C88.88 50.6998 88.99 50.9098 89.17 51.0498C89.74 51.5098 90.36 51.9898 90.97 52.4498C91.63 52.9398 92.21 53.3498 92.69 53.6598L93.03 53.8798L91.72 58.2298L91.1 57.6698C90.77 57.3698 90.41 57.0398 90.05 56.6898C89.69 56.3498 89.33 55.9898 88.99 55.6498C88.94 55.5998 88.89 55.5598 88.82 55.5298C88.76 55.4998 88.68 55.4698 88.59 55.4498L88.6 54.8998L88.42 55.4198L88.29 55.4098C88.24 55.4098 88.18 55.3998 88.13 55.3998C87.91 55.4198 87.78 55.4998 87.67 55.5898C87.56 55.6898 87.48 55.8198 87.43 55.9598C87.28 56.4398 87.1 56.9398 86.93 57.4298C86.76 57.9198 86.58 58.3898 86.42 58.7998L86.11 59.5898L83.02 56.2698L83.23 55.9298C83.52 55.4398 83.86 54.8198 84.23 54.0698C84.57 53.3798 84.91 52.6698 85.22 52.0098C85.32 51.7998 85.33 51.5698 85.25 51.3498C85.17 51.1298 85.01 50.9598 84.8 50.8598C84.6 50.7698 84.36 50.7598 84.14 50.8398C83.92 50.9198 83.74 51.0798 83.65 51.2898C83.41 51.7998 83.16 52.3398 82.9 52.8598C82.64 53.3798 82.39 53.8798 82.17 54.3098L81.82 54.9798L77.83 50.7098C77.67 50.5398 77.46 50.4398 77.23 50.4398C76.98 50.4398 76.78 50.5098 76.61 50.6698C76.44 50.8298 76.34 51.0398 76.33 51.2698C76.32 51.4998 76.4 51.7198 76.56 51.8898L80.54 56.1598L79.87 56.4698C79.42 56.6698 78.91 56.8998 78.38 57.1198C77.85 57.3398 77.29 57.5698 76.76 57.7798C76.54 57.8598 76.37 58.0298 76.28 58.2398C76.19 58.4498 76.18 58.6898 76.27 58.8998C76.32 59.0298 76.39 59.1398 76.49 59.2298C76.58 59.3198 76.7 59.3798 76.83 59.4198C76.92 59.4498 77.02 59.4598 77.11 59.4598C77.21 59.4598 77.3 59.4398 77.39 59.3998C78.07 59.1398 78.8 58.8398 79.5 58.5398C80.25 58.2198 80.89 57.9198 81.4 57.6598L81.76 57.4698L84.86 60.7998L84.07 61.0598C83.63 61.2098 83.14 61.3598 82.63 61.5098C82.12 61.6598 81.6 61.8098 81.1 61.9398C80.96 61.9798 80.82 62.0498 80.72 62.1498C80.61 62.2498 80.53 62.3798 80.49 62.5198C80.45 62.6598 80.44 62.8098 80.47 62.9598C80.5 63.1098 80.57 63.2398 80.67 63.3498C81.02 63.7398 81.38 64.1498 81.72 64.5598C82.06 64.9598 82.39 65.3598 82.67 65.7098L83.2 66.3698L78.75 67.4398L78.55 67.0898C78.27 66.5898 77.9 65.9898 77.45 65.2998C77.03 64.6598 76.59 64.0198 76.17 63.4198C76.04 63.2298 75.84 63.1098 75.61 63.0698C75.38 63.0298 75.15 63.0798 74.97 63.2198C74.78 63.3498 74.65 63.5498 74.62 63.7798C74.58 64.0098 74.63 64.2398 74.77 64.4298C75.1 64.8998 75.44 65.3898 75.76 65.8698C76.08 66.3498 76.39 66.8198 76.64 67.2298L77.04 67.8598L71.35 69.2298C71.13 69.2798 70.94 69.4198 70.81 69.6198C70.69 69.8198 70.65 70.0498 70.71 70.2698C70.75 70.4198 70.82 70.5598 70.93 70.6698C71.03 70.7798 71.16 70.8598 71.31 70.8998C71.38 70.9198 71.46 70.9298 71.53 70.9398C71.61 70.9398 71.69 70.9298 71.76 70.9198L77.43 69.5498L77.36 70.2998C77.31 70.7898 77.25 71.3498 77.18 71.9198C77.11 72.4998 77.02 73.0898 76.94 73.6398C76.91 73.8498 76.95 74.0598 77.06 74.2298C77.17 74.4098 77.34 74.5298 77.54 74.5898L77.66 74.6198C77.89 74.6598 78.12 74.5998 78.3 74.4598C78.49 74.3198 78.61 74.1198 78.64 73.8898C78.75 73.1698 78.86 72.3898 78.95 71.6198C79.05 70.7898 79.11 70.0798 79.14 69.5198L79.16 69.1198L83.55 68.0598L83.38 68.8798C83.29 69.3298 83.18 69.8198 83.06 70.3198C82.94 70.8198 82.81 71.3298 82.68 71.8098C82.64 71.9498 82.64 72.0998 82.68 72.2498C82.72 72.3998 82.79 72.5298 82.89 72.6398C83 72.6898 83.05 72.7198 83.1 72.7398L82.94 73.2698L83.18 72.8498C83.15 72.8498 83.14 72.8498 83.13 72.8498L83.21 72.8098C83.24 72.8198 83.27 72.8398 83.3 72.8598H83.32C83.47 72.9098 83.55 72.9198 83.62 72.9298C83.69 72.9398 83.76 72.9298 83.82 72.9198C84.29 72.8198 84.8 72.7198 85.29 72.6298C85.78 72.5398 86.26 72.4598 86.69 72.3898L87.53 72.2598L86.14 76.8798L85.74 76.8698C85.16 76.8698 84.46 76.8798 83.64 76.9298C82.88 76.9698 82.09 77.0398 81.36 77.0998C81.13 77.1198 80.92 77.2298 80.78 77.4098C80.63 77.5898 80.56 77.8098 80.58 78.0398C80.6 78.2698 80.71 78.4798 80.89 78.6298C81.07 78.7798 81.29 78.8398 81.52 78.8298C82.08 78.7798 82.68 78.7298 83.26 78.6898C83.84 78.6498 84.4 78.6198 84.88 78.5998L85.61 78.5698ZM92.28 73.1198L91.7 72.5798C91.37 72.2698 91.06 72.0098 90.78 71.7698C90.51 71.5398 90.25 71.3398 90.02 71.1698L89.72 70.9498L90.85 67.1998L93.55 70.0898L93.39 70.4198C93.26 70.6798 93.13 70.9598 93 71.2898C92.86 71.6198 92.72 71.9798 92.57 72.3798L92.28 73.1198ZM90.95 70.5398C91.11 70.6698 91.28 70.7998 91.46 70.9498C91.58 71.0498 91.7 71.1598 91.83 71.2698C91.89 71.1298 91.94 70.9998 92 70.8698C92.09 70.6598 92.18 70.4598 92.26 70.2798L91.33 69.2798L90.95 70.5398ZM84.71 70.9098L84.89 70.1298C84.99 69.6998 85.07 69.3098 85.14 68.9598C85.21 68.6098 85.26 68.2898 85.29 67.9998L85.34 67.6298L89.19 66.6998L88.06 70.4798L87.69 70.4998C87.4 70.5198 87.07 70.5498 86.71 70.5898C86.34 70.6398 85.94 70.6898 85.51 70.7698L84.71 70.9098ZM86.3 68.4898C86.27 68.6998 86.23 68.9098 86.19 69.1398C86.16 69.2898 86.13 69.4398 86.1 69.5898C86.26 69.5698 86.42 69.5498 86.57 69.5298C86.81 69.4998 87.03 69.4798 87.24 69.4598L87.63 68.1698L86.3 68.4898ZM94.79 68.8898L92.09 65.9998L95.93 65.0798L96.14 65.3898C96.3 65.6298 96.49 65.8998 96.71 66.1898C96.93 66.4898 97.19 66.8098 97.48 67.1598L97.99 67.7798L97.22 68.0098C96.79 68.1398 96.4 68.2698 96.05 68.3898C95.7 68.5098 95.4 68.6298 95.13 68.7398L94.79 68.8898ZM94.12 66.6098L95.06 67.6198C95.26 67.5398 95.47 67.4598 95.7 67.3798C95.85 67.3298 96 67.2798 96.17 67.2198C96.06 67.0898 95.96 66.9598 95.87 66.8298C95.72 66.6398 95.59 66.4498 95.47 66.2798L94.12 66.6098ZM84.96 65.9398L84.75 65.6298C84.59 65.3898 84.4 65.1198 84.18 64.8298C83.96 64.5298 83.7 64.2098 83.41 63.8598L82.9 63.2398L83.67 62.9998C84.1 62.8698 84.49 62.7398 84.84 62.6198C85.18 62.4998 85.49 62.3798 85.76 62.2698L86.1 62.1198L88.8 65.0098L84.96 65.9398ZM84.73 63.7898C84.84 63.9198 84.94 64.0498 85.03 64.1798C85.18 64.3698 85.31 64.5598 85.43 64.7298L86.77 64.4098L85.83 63.3998C85.63 63.4798 85.42 63.5598 85.19 63.6398C85.05 63.6798 84.89 63.7298 84.73 63.7898ZM91.71 64.3098L92.84 60.5598L93.22 60.5398C93.51 60.5298 93.83 60.4998 94.18 60.4598C94.54 60.4198 94.94 60.3598 95.39 60.2898L96.18 60.1598L96 60.9398C95.9 61.3598 95.82 61.7398 95.76 62.0898C95.7 62.4298 95.65 62.7498 95.61 63.0298L95.56 63.3998L91.71 64.3098ZM93.64 61.5798L93.26 62.8398L94.59 62.5198C94.62 62.3198 94.66 62.1098 94.7 61.8898C94.73 61.7498 94.75 61.6098 94.78 61.4598C94.61 61.4798 94.45 61.4998 94.29 61.5198C94.06 61.5498 93.85 61.5698 93.64 61.5798ZM90.05 63.8098L87.35 60.9198L87.51 60.5898C87.64 60.3298 87.77 60.0398 87.91 59.7098C88.05 59.3798 88.2 58.9998 88.35 58.5898L88.63 57.8398L89.22 58.3898C89.54 58.6898 89.85 58.9598 90.13 59.1998C90.41 59.4298 90.66 59.6398 90.89 59.8198L91.19 60.0398L90.05 63.8098ZM88.63 60.7298L89.56 61.7298L89.95 60.4398C89.79 60.3098 89.61 60.1698 89.43 60.0098C89.31 59.9098 89.19 59.8098 89.07 59.6998C89.01 59.8498 88.95 59.9898 88.9 60.1298C88.81 60.3398 88.72 60.5398 88.63 60.7298Z" fill="#696969"></path> <path d="M84.3801 85.6795C84.0001 85.5695 83.6901 85.3095 83.5001 84.9595C83.3101 84.6095 83.2701 84.2095 83.3901 83.8295L84.7701 79.2195C84.3201 79.2395 83.8101 79.2695 83.2801 79.2995C82.6801 79.3395 82.0901 79.3895 81.5601 79.4395C81.1601 79.4795 80.7801 79.3595 80.4801 79.0995C80.1801 78.8495 79.9901 78.4895 79.9501 78.0995C79.9101 77.7095 80.0301 77.3195 80.2901 77.0195C80.5401 76.7195 80.9001 76.5295 81.2901 76.4895C82.1001 76.4095 82.8701 76.3595 83.5901 76.3195C84.4001 76.2695 85.1001 76.2495 85.6701 76.2595L86.6401 73.0195C86.2501 73.0795 85.8101 73.1595 85.3801 73.2395C84.8601 73.3295 84.3801 73.4295 83.9301 73.5195C83.8001 73.5495 83.6701 73.5495 83.5401 73.5395C83.4201 73.5295 83.3001 73.4995 83.1701 73.4595C83.0901 73.4695 83.0301 73.4395 82.9801 73.3995C82.9501 73.3795 82.9401 73.3695 82.9201 73.3595C82.8901 73.3395 82.8601 73.3295 82.8401 73.3095C82.8101 73.2895 82.7901 73.2795 82.7601 73.2595C82.7301 73.2395 82.7001 73.2295 82.6701 73.2095L82.6101 73.1795C82.5601 73.1495 82.4901 73.1095 82.4401 73.0595C82.2701 72.8795 82.1401 72.6495 82.0801 72.3995C82.0201 72.1495 82.0201 71.8895 82.0901 71.6495C82.2101 71.1895 82.3501 70.6895 82.4701 70.1795C82.5801 69.7295 82.6801 69.2895 82.7601 68.8895L79.7701 69.6095C79.7401 70.1795 79.6801 70.8795 79.5801 71.6895C79.5001 72.3795 79.3901 73.1495 79.2601 73.9795C79.2001 74.3695 78.9901 74.7195 78.6701 74.9495C78.3501 75.1795 77.9601 75.2795 77.5701 75.2195C77.5301 75.2095 77.5001 75.2095 77.4701 75.1995C77.0801 75.1095 76.7601 74.8795 76.5501 74.5495C76.3601 74.2495 76.2801 73.8795 76.3401 73.5295C76.4201 72.9895 76.5001 72.3995 76.5801 71.8295C76.6501 71.2995 76.7101 70.7895 76.7501 70.3395L71.9201 71.4995C71.7901 71.5295 71.6601 71.5395 71.5301 71.5395C71.1501 71.5295 70.7801 71.3595 70.5101 71.0895C70.3301 70.8995 70.2001 70.6695 70.1401 70.4095C70.0501 70.0195 70.1101 69.6295 70.3201 69.2895C70.5301 68.9495 70.8501 68.7195 71.2401 68.6195L76.0901 67.4495C75.8401 67.0595 75.5601 66.6295 75.2801 66.1995C74.9501 65.7095 74.6101 65.2095 74.3001 64.7695C74.0701 64.4495 73.9801 64.0495 74.0501 63.6595C74.1201 63.2695 74.3301 62.9295 74.6501 62.6995C74.9701 62.4695 75.3701 62.3795 75.7601 62.4495C76.1501 62.5195 76.4901 62.7295 76.7201 63.0595C77.1901 63.7195 77.6301 64.3595 78.0201 64.9595C78.4601 65.6295 78.8301 66.2295 79.1101 66.7295L82.1601 65.9995C81.8901 65.6695 81.6001 65.3095 81.3001 64.9595C80.9401 64.5295 80.5901 64.1295 80.2601 63.7695C80.0901 63.5795 79.9701 63.3495 79.9201 63.0995C79.8601 62.8495 79.8701 62.5895 79.9501 62.3495C80.0201 62.1095 80.1601 61.8895 80.3401 61.7095C80.5201 61.5295 80.7501 61.4095 81.0001 61.3395C81.4801 61.2095 81.9901 61.0695 82.5101 60.9195C82.9601 60.7895 83.4001 60.6495 83.8001 60.5195L81.6701 58.2395C81.1601 58.4995 80.5301 58.7895 79.7901 59.1095C79.1401 59.3895 78.4301 59.6795 77.6601 59.9795C77.5001 60.0395 77.3401 60.0695 77.1701 60.0795C76.7901 60.0895 76.4001 59.9495 76.1201 59.6895C75.9501 59.5295 75.8201 59.3495 75.7401 59.1295C75.6001 58.7595 75.6101 58.3595 75.7701 57.9995C75.9301 57.6395 76.2201 57.3595 76.5901 57.2195C77.1001 57.0195 77.6501 56.7995 78.1901 56.5695C78.6801 56.3695 79.1501 56.1595 79.5601 55.9695L76.1601 52.3295C75.8901 52.0395 75.7501 51.6595 75.7601 51.2695C75.7701 50.8695 75.9401 50.5095 76.2301 50.2395C76.5201 49.9695 76.9001 49.8295 77.2901 49.8395C77.6901 49.8495 78.0501 50.0195 78.3201 50.3095L81.7101 53.9495C81.9201 53.5495 82.1501 53.0895 82.3801 52.6195C82.6401 52.0895 82.9001 51.5495 83.1201 51.0595C83.2901 50.6995 83.5801 50.4295 83.9601 50.2895C84.3301 50.1495 84.7301 50.1695 85.0901 50.3295C85.4501 50.4995 85.7201 50.7895 85.8601 51.1595C86.0001 51.5295 85.9801 51.9295 85.8201 52.2895C85.4701 53.0495 85.1301 53.7495 84.8201 54.3695C84.4501 55.0995 84.1201 55.7195 83.8301 56.2095L85.9401 58.4695C86.0901 58.0895 86.2401 57.6595 86.4001 57.2395C86.5801 56.7295 86.7501 56.2395 86.9001 55.7895C86.9801 55.5495 87.1201 55.3295 87.3101 55.1595C87.5001 54.9895 87.7301 54.8695 87.9701 54.8095C88.0501 54.7895 88.1301 54.7895 88.1901 54.7995C88.2201 54.7995 88.2401 54.8095 88.2701 54.8095C88.3101 54.8095 88.3401 54.8195 88.3801 54.8195C88.4001 54.8195 88.4301 54.8195 88.4601 54.8195L88.5901 54.8295C88.6201 54.8295 88.6501 54.8395 88.6701 54.8395C88.7201 54.8495 88.7601 54.8595 88.8101 54.8795C88.9401 54.9095 89.0601 54.9595 89.1601 55.0095C89.2901 55.0695 89.3901 55.1495 89.4801 55.2495C89.8101 55.5795 90.1701 55.9395 90.5301 56.2795C90.8501 56.5895 91.1701 56.8795 91.4701 57.1495L92.3601 54.1695C91.8801 53.8595 91.3101 53.4595 90.6601 52.9695C90.0901 52.5395 89.4701 52.0695 88.8401 51.5595C88.5301 51.3095 88.3401 50.9595 88.2901 50.5695C88.2501 50.1795 88.3601 49.7895 88.6101 49.4795C88.8601 49.1695 89.2101 48.9795 89.6101 48.9295C90.0001 48.8895 90.3901 48.9995 90.7001 49.2495C91.1301 49.5895 91.6001 49.9595 92.0601 50.3095C92.4901 50.6295 92.9001 50.9395 93.2601 51.1995L94.7201 46.3495C94.8301 45.9695 95.0901 45.6595 95.4401 45.4695C95.7901 45.2795 96.1901 45.2395 96.5701 45.3595C96.9501 45.4695 97.2601 45.7295 97.4501 46.0795C97.6401 46.4295 97.6801 46.8295 97.5601 47.2095L96.1001 52.0695C96.5501 52.0495 97.0601 52.0195 97.5901 51.9895C98.1801 51.9495 98.7801 51.8995 99.3101 51.8495C99.7001 51.8095 100.09 51.9295 100.39 52.1795C100.69 52.4295 100.88 52.7895 100.92 53.1895C100.96 53.5795 100.84 53.9695 100.58 54.2695C100.33 54.5695 99.9701 54.7595 99.5801 54.7995C98.7801 54.8695 97.9901 54.9295 97.2801 54.9695C96.4701 55.0195 95.7701 55.0395 95.2001 55.0295L94.2901 58.0695C94.7001 57.9995 95.1501 57.9295 95.6001 57.8495C96.1301 57.7495 96.6601 57.6495 97.1301 57.5495C97.2301 57.5295 97.3401 57.5195 97.4601 57.5295C97.5601 57.5395 97.6601 57.5495 97.7801 57.5795C97.7801 57.5795 97.7901 57.5795 97.8001 57.5795C97.8201 57.5795 97.8401 57.5795 97.8501 57.5795C97.8701 57.5895 97.8801 57.5895 97.9001 57.5995C98.1801 57.6695 98.4201 57.8095 98.6101 57.9995C98.8101 58.1995 98.9501 58.4495 99.0001 58.7295C99.0501 58.9495 99.0401 59.1595 98.9901 59.3695C98.9401 59.5595 98.8501 59.7495 98.7301 59.9095C98.6201 60.3095 98.5201 60.7195 98.4301 61.1195C98.3401 61.4795 98.2701 61.8295 98.2001 62.1495L101.43 61.3695C101.46 60.8095 101.53 60.1195 101.62 59.3395C101.7 58.6695 101.8 57.9295 101.93 57.1295C101.99 56.7395 102.2 56.3895 102.52 56.1595C102.84 55.9295 103.23 55.8295 103.62 55.8895C104 55.9395 104.35 56.1495 104.58 56.4695C104.82 56.7895 104.92 57.1895 104.86 57.5795C104.78 58.0995 104.7 58.6595 104.63 59.2095C104.57 59.7095 104.51 60.1995 104.46 60.6395L109.05 59.5395C109.43 59.4495 109.83 59.5095 110.17 59.7195C110.51 59.9295 110.75 60.2495 110.84 60.6395C110.93 61.0295 110.87 61.4195 110.66 61.7595C110.45 62.0995 110.13 62.3295 109.74 62.4295L105 63.5295C105.24 63.9195 105.53 64.3595 105.84 64.8195C106.18 65.3395 106.54 65.8495 106.87 66.3195C107.1 66.6395 107.19 67.0395 107.12 67.4295C107.05 67.8195 106.84 68.1595 106.52 68.3895C106.33 68.5195 106.12 68.6095 105.89 68.6495C105.51 68.7095 105.11 68.6095 104.8 68.3895C104.66 68.2895 104.55 68.1695 104.45 68.0395C103.96 67.3395 103.51 66.6795 103.11 66.0795C102.65 65.3795 102.28 64.7695 102 64.2695L98.7801 65.0395C99.0501 65.3695 99.3401 65.7295 99.6401 66.0795C100 66.4995 100.35 66.9095 100.68 67.2695C100.85 67.4595 100.97 67.6895 101.02 67.9395C101.08 68.1895 101.07 68.4495 100.99 68.6895C100.92 68.9295 100.78 69.1495 100.6 69.3295C100.42 69.5095 100.19 69.6295 99.9401 69.6995C99.4601 69.8195 98.9601 69.9695 98.4301 70.1195C97.9801 70.2495 97.5301 70.3895 97.1301 70.5195L99.3801 72.9295C99.8901 72.6595 100.54 72.3595 101.31 72.0295C101.98 71.7395 102.72 71.4395 103.51 71.1295C103.88 70.9895 104.28 70.9995 104.64 71.1495C105 71.3095 105.28 71.5995 105.43 71.9695C105.57 72.3395 105.56 72.7395 105.41 73.0995C105.25 73.4595 104.96 73.7395 104.59 73.8795C104.06 74.0895 103.48 74.3195 102.92 74.5595C102.41 74.7795 101.92 74.9895 101.5 75.1795L104.78 78.6995C105.05 78.9895 105.19 79.3695 105.18 79.7595C105.17 80.1595 105 80.5195 104.71 80.7895C104.52 80.9695 104.28 81.0995 104.02 81.1495C103.65 81.2295 103.24 81.1695 102.92 80.9695C102.81 80.8995 102.7 80.8195 102.61 80.7195L99.3901 77.2695C99.1901 77.6595 98.9601 78.0995 98.7401 78.5495C98.4901 79.0495 98.2501 79.5695 98.0301 80.0395C97.8801 80.3695 97.6201 80.6295 97.2901 80.7695C96.9301 80.9295 96.5301 80.9295 96.1601 80.7995C96.1301 80.7895 96.0901 80.7695 96.0601 80.7595C95.7001 80.5895 95.4301 80.2995 95.2901 79.9295C95.1501 79.5595 95.1701 79.1595 95.3301 78.7995C95.6701 78.0695 95.9901 77.3895 96.2901 76.7895C96.6401 76.0795 96.9701 75.4795 97.2501 74.9895L95.0001 72.5595C94.8801 72.8695 94.7601 73.1995 94.6301 73.5395C94.4901 73.9295 94.3501 74.3295 94.2101 74.7295C94.2201 74.9395 94.2001 75.1395 94.1301 75.3295C94.0601 75.5395 93.9401 75.7195 93.7901 75.8695C93.6001 76.0595 93.3601 76.1895 93.0901 76.2595C92.8401 76.3195 92.5701 76.3095 92.3201 76.2395C92.3001 76.2295 92.2801 76.2195 92.2701 76.2095C92.1401 76.1695 92.0201 76.1295 91.9001 76.0695C91.7801 75.9995 91.6701 75.9195 91.5701 75.8295C91.2301 75.4895 90.8501 75.1095 90.4701 74.7495C90.1401 74.4295 89.8001 74.1195 89.4901 73.8395L88.5001 77.1195C88.9801 77.4295 89.5501 77.8295 90.2001 78.3195C90.7701 78.7495 91.3801 79.2195 92.0201 79.7295C92.3301 79.9795 92.5201 80.3295 92.5701 80.7195C92.6101 81.1095 92.5001 81.4995 92.2501 81.8095C92.0601 82.0495 91.8101 82.2195 91.5201 82.2995C91.1501 82.4095 90.7401 82.3695 90.4001 82.1895C90.3201 82.1495 90.2301 82.0895 90.1601 82.0295C89.7301 81.6895 89.2601 81.3195 88.8001 80.9695C88.3801 80.6495 87.9601 80.3395 87.6001 80.0795L86.2201 84.6795C86.1101 85.0595 85.8501 85.3695 85.5001 85.5595C85.1601 85.7495 84.7601 85.7895 84.3801 85.6795ZM85.0001 79.0495L83.5501 83.8795C83.4501 84.2195 83.4801 84.5695 83.6501 84.8795C83.8201 85.1895 84.0901 85.4095 84.4301 85.5195C84.7701 85.6195 85.1201 85.5895 85.4301 85.4195C85.7401 85.2495 85.9701 84.9795 86.0701 84.6395L87.5201 79.8095L87.6201 79.8795C88.0101 80.1595 88.4601 80.4895 88.9201 80.8395C89.3801 81.1895 89.8501 81.5595 90.2801 81.8995C90.3501 81.9495 90.4201 81.9995 90.4901 82.0395C90.7901 82.1995 91.1501 82.2295 91.4801 82.1295C91.7301 82.0495 91.9601 81.8995 92.1301 81.6895C92.3501 81.4195 92.4501 81.0695 92.4101 80.7195C92.3701 80.3695 92.2001 80.0595 91.9301 79.8395C91.2901 79.3295 90.6801 78.8595 90.1101 78.4295C89.4401 77.9295 88.8501 77.5195 88.3601 77.2095L88.3101 77.1795L89.4101 73.5295L89.5101 73.6195C89.8501 73.9195 90.2301 74.2695 90.6001 74.6195C90.9801 74.9795 91.3601 75.3595 91.7001 75.6995C91.7801 75.7795 91.8801 75.8495 91.9901 75.9095C92.0901 75.9595 92.2001 76.0095 92.3201 76.0395C92.3501 76.0495 92.3601 76.0595 92.3801 76.0695H92.3901C92.6101 76.1395 92.8401 76.1395 93.0601 76.0895C93.2901 76.0295 93.5101 75.9195 93.6801 75.7495C93.8201 75.6095 93.9201 75.4495 93.9801 75.2695C94.0401 75.0995 94.0601 74.9095 94.0501 74.7195V74.6995L94.0601 74.6795C94.2001 74.2795 94.3401 73.8695 94.4801 73.4695C94.6201 73.0795 94.7601 72.6995 94.9001 72.3595L94.9501 72.2295L97.4901 74.9495L97.4601 74.9995C97.1701 75.4895 96.8401 76.1095 96.4801 76.8495C96.1801 77.4495 95.8601 78.1295 95.5201 78.8595C95.3701 79.1795 95.3601 79.5395 95.4801 79.8695C95.6001 80.1995 95.8401 80.4595 96.1601 80.6095C96.1901 80.6195 96.2201 80.6395 96.2501 80.6495C96.5701 80.7695 96.9301 80.7595 97.2501 80.6195C97.5401 80.4895 97.7701 80.2595 97.9101 79.9695C98.1301 79.4895 98.3801 78.9795 98.6201 78.4795C98.8601 77.9895 99.1001 77.5095 99.3201 77.0895L99.3801 76.9795L102.76 80.6095C102.84 80.6995 102.93 80.7695 103.03 80.8295C103.32 81.0095 103.68 81.0695 104.01 80.9895C104.24 80.9395 104.45 80.8295 104.62 80.6695C104.88 80.4295 105.03 80.0995 105.04 79.7495C105.05 79.3995 104.93 79.0595 104.69 78.8095L101.25 75.1195L101.36 75.0695C101.8 74.8695 102.33 74.6295 102.89 74.3995C103.45 74.1595 104.03 73.9295 104.57 73.7195C104.9 73.5895 105.16 73.3495 105.3 73.0195C105.44 72.6995 105.45 72.3395 105.32 72.0095C105.19 71.6795 104.94 71.4195 104.62 71.2795C104.3 71.1395 103.94 71.1295 103.62 71.2595C102.83 71.5695 102.09 71.8695 101.42 72.1595C100.63 72.4995 99.9601 72.8095 99.4501 73.0795L99.3901 73.1095L96.8801 70.4195L97.0001 70.3795C97.4301 70.2395 97.9201 70.0795 98.4201 69.9295C98.9401 69.7695 99.4501 69.6295 99.9301 69.5095C100.15 69.4495 100.35 69.3395 100.51 69.1895C100.67 69.0295 100.79 68.8395 100.86 68.6195C100.93 68.3995 100.93 68.1695 100.88 67.9595C100.83 67.7395 100.73 67.5395 100.57 67.3695C100.24 66.9995 99.8901 66.5995 99.5301 66.1695C99.2001 65.7795 98.8801 65.3895 98.5901 65.0295L98.5101 64.9295L102.11 64.0595L102.14 64.1195C102.42 64.6295 102.8 65.2495 103.27 65.9795C103.67 66.5795 104.12 67.2395 104.61 67.9395C104.7 68.0595 104.8 68.1695 104.92 68.2495C105.19 68.4395 105.55 68.5295 105.88 68.4795C106.08 68.4495 106.27 68.3695 106.44 68.2495C106.73 68.0495 106.92 67.7395 106.98 67.3995C107.04 67.0495 106.96 66.7095 106.76 66.4195C106.43 65.9595 106.08 65.4395 105.73 64.9195C105.4 64.4195 105.09 63.9395 104.83 63.5295L104.77 63.4295L109.68 62.2495C110.02 62.1695 110.31 61.9595 110.49 61.6595C110.67 61.3595 110.73 61.0095 110.65 60.6695C110.57 60.3295 110.36 60.0395 110.06 59.8595C109.76 59.6795 109.41 59.6195 109.07 59.6995L104.25 60.8595L104.26 60.7395C104.31 60.2695 104.37 59.7295 104.44 59.1895C104.51 58.6395 104.59 58.0695 104.67 57.5595C104.72 57.2095 104.64 56.8595 104.42 56.5795C104.21 56.2995 103.9 56.1095 103.57 56.0695C103.22 56.0195 102.87 56.0995 102.59 56.3095C102.31 56.5195 102.12 56.8195 102.07 57.1695C101.95 57.9595 101.85 58.6995 101.76 59.3695C101.66 60.1795 101.6 60.8795 101.56 61.4495V61.5095L97.9501 62.3795L97.9801 62.2495C98.0501 61.8895 98.1401 61.4995 98.2401 61.0795C98.3401 60.6795 98.4401 60.2595 98.5501 59.8495V59.8295L98.5601 59.8195C98.6801 59.6695 98.7601 59.4995 98.8001 59.3195C98.8501 59.1295 98.8501 58.9395 98.8101 58.7495C98.7601 58.5095 98.6401 58.2795 98.4601 58.1095C98.2901 57.9395 98.0801 57.8095 97.8401 57.7595C97.8201 57.7495 97.8101 57.7495 97.8001 57.7395C97.7801 57.7295 97.7701 57.7295 97.7601 57.7295C97.7401 57.7295 97.7201 57.7295 97.7101 57.7295C97.6001 57.6995 97.5001 57.6895 97.4201 57.6795C97.3201 57.6695 97.2201 57.6795 97.1401 57.6995C96.6701 57.7995 96.1401 57.8995 95.6101 57.9995C95.1101 58.0895 94.6101 58.1795 94.1601 58.2495H94.0001L95.0301 54.8295H95.0901C95.6701 54.8395 96.3901 54.8195 97.2201 54.7695C97.9201 54.7295 98.7201 54.6695 99.5101 54.5995C99.8601 54.5695 100.18 54.3995 100.4 54.1295C100.62 53.8595 100.73 53.5195 100.7 53.1695C100.67 52.8195 100.5 52.4995 100.23 52.2795C99.9601 52.0595 99.6201 51.9495 99.2701 51.9895C98.7301 52.0395 98.1401 52.0895 97.5401 52.1295C96.9701 52.1695 96.4101 52.1995 95.9301 52.2195H95.8101L97.3401 47.1395C97.4401 46.7995 97.4001 46.4495 97.2401 46.1395C97.0701 45.8295 96.8001 45.6095 96.4601 45.4995C96.1201 45.3995 95.7701 45.4295 95.4601 45.5995C95.1501 45.7695 94.9201 46.0395 94.8201 46.3795L93.2901 51.4595L93.1901 51.3895C92.8101 51.1195 92.3601 50.7795 91.8901 50.4295C91.4301 50.0795 90.9601 49.7095 90.5301 49.3695C90.2601 49.1495 89.9101 49.0495 89.5601 49.0895C89.2101 49.1295 88.9001 49.2995 88.6801 49.5695C88.4601 49.8395 88.3601 50.1895 88.4001 50.5395C88.4401 50.8895 88.6101 51.1995 88.8801 51.4195C89.5001 51.9195 90.1301 52.4095 90.7001 52.8295C91.3701 53.3295 91.9601 53.7395 92.4501 54.0495L92.5001 54.0795L91.4901 57.4295L91.3901 57.3395C91.0601 57.0495 90.7001 56.7095 90.3501 56.3695C89.9901 56.0295 89.6301 55.6695 89.3001 55.3395C89.2201 55.2595 89.1301 55.1895 89.0201 55.1295C88.9301 55.0795 88.8201 55.0395 88.7001 55.0095C88.6601 54.9995 88.6201 54.9995 88.5901 54.9895C88.5601 54.9895 88.5401 54.9795 88.5101 54.9795L88.3901 54.9695C88.3701 54.9695 88.3401 54.9695 88.3201 54.9695C88.2701 54.9695 88.2301 54.9595 88.1901 54.9595L88.1201 54.9495C88.0501 54.9395 88.0001 54.9495 87.9601 54.9595C87.7401 55.0095 87.5401 55.1195 87.3701 55.2695C87.2001 55.4195 87.0801 55.6195 87.0101 55.8295C86.8601 56.2795 86.6901 56.7695 86.5101 57.2795C86.3401 57.7495 86.1701 58.2195 86.0001 58.6395L85.9501 58.7695L83.5801 56.2195L83.6101 56.1695C83.9001 55.6795 84.2501 55.0395 84.6301 54.2895C84.9401 53.6695 85.2701 52.9695 85.6201 52.2095C85.7701 51.8895 85.7801 51.5295 85.6601 51.1995C85.5401 50.8695 85.3001 50.6095 84.9801 50.4595C84.6701 50.3095 84.3101 50.2995 83.9801 50.4195C83.6501 50.5395 83.3801 50.7795 83.2301 51.0995C83.0001 51.5895 82.7501 52.1295 82.4801 52.6595C82.2301 53.1695 81.9801 53.6695 81.7501 54.0995L81.6901 54.2095L78.1301 50.3995C77.8901 50.1395 77.5701 49.9995 77.2201 49.9795C76.8701 49.9695 76.5301 50.0895 76.2801 50.3295C76.0201 50.5695 75.8701 50.8995 75.8601 51.2495C75.8501 51.5995 75.9701 51.9395 76.2101 52.1895L79.7701 55.9995L79.6601 56.0495C79.2201 56.2495 78.7101 56.4695 78.1801 56.6995C77.6401 56.9295 77.0901 57.1495 76.5801 57.3495C76.2501 57.4795 75.9901 57.7195 75.8501 58.0495C75.7101 58.3695 75.7001 58.7295 75.8301 59.0595C75.9001 59.2495 76.0201 59.4195 76.1701 59.5595C76.4201 59.7895 76.7701 59.9095 77.1001 59.8995C77.2501 59.8995 77.3901 59.8595 77.5301 59.8095C78.2901 59.5095 79.0101 59.2195 79.6501 58.9395C80.4201 58.6095 81.0601 58.3095 81.5801 58.0395L81.6401 58.0095L84.0301 60.5795L83.9101 60.6195C83.4801 60.7595 82.9801 60.9195 82.4901 61.0695C81.9701 61.2195 81.4601 61.3695 80.9801 61.4895C80.7601 61.5495 80.5601 61.6595 80.4001 61.8195C80.2401 61.9795 80.1201 62.1695 80.0501 62.3895C79.9901 62.6095 79.9801 62.8395 80.0301 63.0495C80.0801 63.2695 80.1801 63.4695 80.3401 63.6395C80.6701 64.0095 81.0201 64.4095 81.3801 64.8395C81.7101 65.2295 82.0301 65.6195 82.3201 65.9795L82.4001 66.0795L78.9701 66.9095L78.9401 66.8495C78.6601 66.3395 78.2801 65.7295 77.8301 65.0395C77.4401 64.4495 77.0101 63.8095 76.5401 63.1495C76.3401 62.8595 76.0301 62.6695 75.6901 62.6095C75.3401 62.5495 74.9901 62.6295 74.7101 62.8295C74.4201 63.0295 74.2301 63.3395 74.1701 63.6795C74.1101 64.0295 74.1901 64.3695 74.3901 64.6595C74.7001 65.0995 75.0401 65.5995 75.3701 66.0895C75.6801 66.5595 75.9901 67.0195 76.2501 67.4395L76.3101 67.5395L71.2301 68.7595C70.8901 68.8395 70.6001 69.0495 70.4201 69.3495C70.2401 69.6495 70.1801 69.9995 70.2601 70.3395C70.3101 70.5695 70.4301 70.7795 70.5901 70.9395C70.8301 71.1795 71.1601 71.3295 71.5001 71.3395C71.6201 71.3395 71.7301 71.3295 71.8501 71.3095L76.9101 70.0895L76.9001 70.2095C76.8501 70.6795 76.7901 71.2395 76.7201 71.8195C76.6501 72.3995 76.5701 72.9895 76.4801 73.5295C76.4301 73.8395 76.5001 74.1695 76.6701 74.4295C76.8601 74.7195 77.1501 74.9195 77.4901 75.0095C77.5201 75.0195 77.5501 75.0195 77.5801 75.0295C77.9301 75.0795 78.2701 74.9995 78.5601 74.7895C78.8401 74.5795 79.0301 74.2795 79.0801 73.9295C79.2101 73.1095 79.3101 72.3395 79.3901 71.6495C79.4901 70.8095 79.5601 70.0895 79.5801 69.5195V69.4595L82.9501 68.6495L82.9201 68.7795C82.8301 69.2095 82.7201 69.6995 82.6001 70.2095C82.4801 70.7195 82.3501 71.2295 82.2201 71.6895C82.1601 71.9095 82.1601 72.1395 82.2101 72.3495C82.2601 72.5695 82.3701 72.7695 82.5301 72.9295C82.5701 72.9695 82.6201 72.9995 82.6601 73.0195L82.7201 73.0495C82.7601 73.0695 82.8001 73.0895 82.8301 73.1095C82.8601 73.1295 82.8801 73.1395 82.9001 73.1595C82.9201 73.1695 82.9501 73.1895 82.9701 73.1995C83.0001 73.2095 83.0201 73.2295 83.0501 73.2495C83.0801 73.2695 83.1001 73.2795 83.1101 73.2895C83.1401 73.2895 83.1701 73.2895 83.2001 73.2895C83.3201 73.3295 83.4301 73.3595 83.5401 73.3695C83.6601 73.3795 83.7701 73.3795 83.8801 73.3495C84.3301 73.2595 84.8201 73.1595 85.3401 73.0695C85.8201 72.9795 86.3001 72.8995 86.7301 72.8295L86.8601 72.8095L85.7701 76.4195H85.7101C85.1301 76.4095 84.4101 76.4295 83.5801 76.4795C82.8701 76.5195 82.1001 76.5795 81.2901 76.6495C80.9401 76.6795 80.6201 76.8495 80.4001 77.1195C80.1801 77.3895 80.0701 77.7295 80.1001 78.0795C80.1301 78.4295 80.3001 78.7495 80.5701 78.9695C80.8401 79.1895 81.1801 79.2995 81.5301 79.2695C82.0601 79.2195 82.6601 79.1695 83.2601 79.1295C83.8401 79.0895 84.3901 79.0595 84.8701 79.0395L85.0001 79.0495ZM85.3001 70.3495L85.3301 70.2295C85.4301 69.8095 85.5101 69.3995 85.5801 69.0395C85.6501 68.6895 85.7001 68.3595 85.7401 68.0495L85.7501 67.9895L88.5301 67.3195L87.7101 70.0495H87.6501C87.3501 70.0695 87.0101 70.0995 86.6501 70.1495C86.2801 70.1995 85.8701 70.2595 85.4301 70.3295L85.3001 70.3495ZM85.9001 68.1295C85.8601 68.4195 85.8101 68.7395 85.7501 69.0695C85.6901 69.4095 85.6101 69.7695 85.5201 70.1495C85.9201 70.0895 86.2901 70.0295 86.6301 69.9895C86.9701 69.9495 87.2901 69.9195 87.5901 69.8995L88.2901 67.5695L85.9001 68.1295ZM92.0901 72.3395L92.0001 72.2495C91.6701 71.9495 91.3601 71.6695 91.0701 71.4295C90.8001 71.1995 90.5301 70.9895 90.2901 70.8095L90.2401 70.7695L91.0501 68.0695L93.0001 70.1695L92.9701 70.2195C92.8401 70.4795 92.7001 70.7795 92.5701 71.1095C92.4301 71.4495 92.2801 71.8195 92.1301 72.2195L92.0901 72.3395ZM90.4301 70.7095C90.6601 70.8795 90.9101 71.0795 91.1701 71.2995C91.4301 71.5195 91.7201 71.7695 92.0201 72.0395C92.1501 71.6795 92.2901 71.3495 92.4201 71.0395C92.5501 70.7295 92.6801 70.4495 92.8001 70.1895L91.1301 68.3995L90.4301 70.7095ZM94.9001 68.3495L92.9401 66.2495L95.7301 65.5795L95.7601 65.6295C95.9301 65.8795 96.1201 66.1595 96.3501 66.4595C96.5801 66.7595 96.8401 67.0895 97.1301 67.4395L97.2101 67.5395L97.0901 67.5795C96.6501 67.7095 96.2501 67.8395 95.9001 67.9695C95.5501 68.0895 95.2301 68.2195 94.9501 68.3395L94.9001 68.3495ZM93.2701 66.3495L94.9501 68.1495C95.2201 68.0395 95.5201 67.9195 95.8501 67.7995C96.1701 67.6895 96.5301 67.5695 96.9301 67.4495C96.6701 67.1395 96.4401 66.8395 96.2301 66.5595C96.0201 66.2795 95.8301 66.0095 95.6701 65.7695L93.2701 66.3495ZM85.1601 65.4295L85.1301 65.3795C84.9601 65.1295 84.7601 64.8495 84.5401 64.5495C84.3101 64.2495 84.0501 63.9195 83.7601 63.5695L83.6801 63.4695L83.8001 63.4295C84.2301 63.2995 84.6301 63.1695 84.9901 63.0395C85.3401 62.9195 85.6601 62.7895 85.9401 62.6695L85.9901 62.6495L87.9501 64.7495L85.1601 65.4295ZM83.9701 63.5595C84.2301 63.8795 84.4701 64.1795 84.6701 64.4495C84.8801 64.7295 85.0701 64.9995 85.2301 65.2395L87.6201 64.6595L85.9401 62.8595C85.6701 62.9695 85.3701 63.0895 85.0401 63.2095C84.7201 63.3195 84.3601 63.4395 83.9701 63.5595ZM92.3701 63.6895L93.1801 60.9895H93.2401C93.5401 60.9795 93.8801 60.9495 94.2301 60.9095C94.6001 60.8695 95.0201 60.8095 95.4601 60.7395L95.5801 60.7195L95.5501 60.8395C95.4501 61.2595 95.3701 61.6495 95.3101 61.9995C95.2401 62.3495 95.1901 62.6695 95.1601 62.9595L95.1501 63.0195L92.3701 63.6895ZM93.3001 61.1495L92.6101 63.4595L95.0001 62.8895C95.0401 62.6095 95.0901 62.2995 95.1501 61.9695C95.2101 61.6495 95.2801 61.2995 95.3701 60.9195C94.9701 60.9795 94.6001 61.0395 94.2501 61.0695C93.9101 61.1095 93.5901 61.1395 93.3001 61.1495ZM89.8501 62.9395L87.9001 60.8495L87.9301 60.7995C88.0701 60.5295 88.2001 60.2195 88.3401 59.8895C88.4901 59.5395 88.6401 59.1595 88.7901 58.7495L88.8301 58.6295L88.9201 58.7195C89.2501 59.0295 89.5601 59.2995 89.8401 59.5495C90.1201 59.7895 90.3801 59.9995 90.6201 60.1795L90.6701 60.2195L89.8501 62.9395ZM88.1001 60.8095L89.7701 62.5995L90.4701 60.2695C90.2401 60.0895 89.9901 59.8895 89.7301 59.6695C89.4701 59.4495 89.1901 59.1995 88.9001 58.9195C88.7601 59.2895 88.6301 59.6295 88.4901 59.9395C88.3601 60.2595 88.2201 60.5495 88.1001 60.8095Z" fill="#BADBE7"></path> <path d="M84.8099 86.2797C84.6099 86.2797 84.4199 86.2497 84.2299 86.1897C83.7099 86.0297 83.2899 85.6897 83.0299 85.2097C82.7799 84.7297 82.7199 84.1897 82.8799 83.6697L84.0499 79.7897C83.8199 79.7997 83.5699 79.8197 83.3299 79.8297C82.7399 79.8697 82.1499 79.9197 81.6199 79.9597C81.0799 80.0097 80.5599 79.8497 80.1499 79.4997C79.7399 79.1597 79.4799 78.6697 79.4299 78.1397C79.3799 77.5997 79.5399 77.0797 79.8899 76.6597C80.2299 76.2497 80.7199 75.9897 81.2599 75.9397C82.0799 75.8597 82.8599 75.7997 83.5699 75.7597C84.2099 75.7197 84.7899 75.6997 85.2799 75.6997L85.8899 73.6697C85.7599 73.6897 85.6199 73.7197 85.4899 73.7397C84.9799 73.8297 84.4899 73.9297 84.0499 74.0197C83.8699 74.0597 83.6899 74.0697 83.4999 74.0497C83.3699 74.0397 83.2399 74.0097 83.1099 73.9697C82.9599 73.9597 82.8099 73.8997 82.6699 73.7997L82.4499 73.6597C82.2699 73.5797 82.1599 73.5097 82.0499 73.3897C81.8199 73.1497 81.6499 72.8397 81.5599 72.4997C81.4799 72.1597 81.4799 71.8097 81.5699 71.4797C81.6899 71.0297 81.8199 70.5297 81.9399 70.0297C81.9799 69.8797 82.0099 69.7297 82.0499 69.5797L80.2699 70.0097C80.2399 70.4997 80.1799 71.0797 80.0999 71.7297C80.0199 72.4297 79.9099 73.1997 79.7799 74.0297C79.6999 74.5597 79.4099 75.0297 78.9799 75.3497C78.5499 75.6697 78.0099 75.7997 77.4799 75.7197L77.3399 75.6897C76.8099 75.5597 76.3699 75.2497 76.0899 74.8097C75.8299 74.3997 75.7199 73.8997 75.7999 73.4197C75.8799 72.8797 75.9599 72.2997 76.0399 71.7297C76.0699 71.4797 76.0999 71.2397 76.1299 71.0097L72.0299 71.9997C71.8499 72.0397 71.6699 72.0597 71.4899 72.0497C70.9699 72.0297 70.4699 71.8097 70.0999 71.4297C69.8499 71.1697 69.6799 70.8497 69.5899 70.4997C69.4699 69.9997 69.5499 69.4597 69.8399 68.9997C70.1199 68.5397 70.5599 68.2197 71.0899 68.0897L75.2099 67.0997C75.0799 66.8997 74.9499 66.6997 74.8099 66.4897C74.4799 65.9997 74.1499 65.5097 73.8399 65.0697C73.5299 64.6297 73.4099 64.0997 73.4999 63.5697C73.5899 63.0397 73.8799 62.5797 74.3199 62.2597C74.7599 61.9497 75.2899 61.8197 75.8299 61.9197C76.3599 62.0097 76.8199 62.2997 77.1299 62.7397C77.5999 63.4097 78.0399 64.0497 78.4399 64.6497C78.7899 65.1797 79.0899 65.6697 79.3499 66.0997L81.1799 65.6597C81.0799 65.5397 80.9699 65.4097 80.8699 65.2897C80.5099 64.8697 80.1699 64.4697 79.8399 64.1097C79.6099 63.8597 79.4499 63.5397 79.3699 63.1997C79.2899 62.8597 79.3099 62.5097 79.4099 62.1797C79.5099 61.8497 79.6899 61.5497 79.9399 61.3097C80.1899 61.0697 80.4999 60.8997 80.8299 60.8097C81.2999 60.6897 81.7999 60.5497 82.3199 60.3897C82.4799 60.3397 82.6399 60.2897 82.7999 60.2397L81.5199 58.8597C81.0699 59.0797 80.5499 59.3097 79.9699 59.5697C79.3199 59.8497 78.5899 60.1497 77.8199 60.4497C77.6099 60.5297 77.3899 60.5797 77.1599 60.5897C76.6499 60.6097 76.1199 60.4197 75.7299 60.0697C75.4999 59.8597 75.3199 59.5997 75.2099 59.3097C75.0099 58.8097 75.0299 58.2597 75.2399 57.7697C75.4599 57.2797 75.8499 56.8997 76.3599 56.6997C76.8699 56.4997 77.4199 56.2797 77.9399 56.0597C78.1699 55.9597 78.3999 55.8697 78.6199 55.7697L75.7299 52.6697C75.3599 52.2797 75.1699 51.7597 75.1899 51.2297C75.2099 50.6897 75.4399 50.1897 75.8299 49.8197C76.2199 49.4497 76.7399 49.2597 77.2699 49.2797C77.8099 49.2997 78.3099 49.5297 78.6699 49.9197L81.5499 52.9997C81.6599 52.7897 81.7599 52.5697 81.8699 52.3497C82.1299 51.8297 82.3799 51.2897 82.6099 50.7997C82.8399 50.3097 83.2399 49.9397 83.7499 49.7497C84.2599 49.5597 84.8099 49.5797 85.2899 49.8097C85.7699 50.0297 86.1499 50.4397 86.3299 50.9397C86.5199 51.4497 86.4999 51.9897 86.2699 52.4797C85.9199 53.2497 85.5799 53.9497 85.2699 54.5797C84.9799 55.1597 84.7099 55.6697 84.4599 56.1097L85.7099 57.4497C85.7599 57.3097 85.8099 57.1697 85.8599 57.0297C86.0399 56.5197 86.2099 56.0397 86.3499 55.5997C86.4599 55.2697 86.6499 54.9697 86.8999 54.7397C87.1499 54.5097 87.4599 54.3397 87.7999 54.2597C87.9599 54.2197 88.0999 54.2297 88.1899 54.2397L88.2899 54.2497L88.2999 54.4197H88.3899L88.4199 54.2497L88.7099 54.2797C88.7799 54.2897 88.8499 54.3097 88.9199 54.3297C89.0499 54.3597 89.2099 54.4197 89.3499 54.4897C89.5299 54.5797 89.6799 54.6897 89.8099 54.8297C90.1299 55.1597 90.4899 55.5097 90.8399 55.8397C90.9399 55.9397 91.0499 56.0297 91.1499 56.1297L91.6899 54.3497C91.2799 54.0697 90.8099 53.7397 90.2899 53.3497C89.7099 52.9197 89.0899 52.4397 88.4499 51.9297C88.0299 51.5897 87.7699 51.1097 87.7099 50.5797C87.6499 50.0497 87.7999 49.5197 88.1399 49.0997C88.4799 48.6797 88.9599 48.4197 89.4999 48.3597C90.0299 48.2997 90.5599 48.4497 90.9799 48.7897C91.3999 49.1297 91.8699 49.4897 92.3199 49.8397C92.5199 49.9897 92.7199 50.1397 92.9099 50.2797L94.1499 46.1497C94.3099 45.6297 94.6499 45.2097 95.1299 44.9497C95.5999 44.6997 96.1499 44.6397 96.6699 44.7997C97.1899 44.9597 97.6099 45.2997 97.8699 45.7797C98.1199 46.2497 98.1799 46.7997 98.0299 47.3097L96.7899 51.4497C97.0299 51.4397 97.2699 51.4197 97.5099 51.4097C98.0999 51.3697 98.6899 51.3197 99.2199 51.2797C99.7499 51.2297 100.28 51.3897 100.69 51.7297C101.1 52.0697 101.36 52.5597 101.41 53.0897C101.46 53.6297 101.3 54.1497 100.95 54.5697C100.6 54.9797 100.12 55.2397 99.5799 55.2897C98.7799 55.3597 97.9799 55.4297 97.2599 55.4697C96.6199 55.5097 96.0499 55.5297 95.5499 55.5297L94.9999 57.3697C95.1499 57.3397 95.3099 57.3197 95.4599 57.2897C95.9799 57.1897 96.5099 57.0897 96.9699 56.9897C97.1299 56.9597 97.2799 56.9497 97.4499 56.9597C97.5599 56.9697 97.6699 56.9797 97.7999 57.0097L97.9099 57.0197C98.0099 57.0397 98.0399 57.0597 98.0799 57.0797C98.3599 57.1397 98.6899 57.3297 98.9499 57.5897C99.2199 57.8597 99.4099 58.2097 99.4899 58.5797C99.5499 58.8697 99.5499 59.1697 99.4699 59.4597C99.4099 59.6897 99.3099 59.8997 99.1799 60.0997C99.0799 60.4697 98.9899 60.8397 98.9099 61.1997C98.8999 61.2597 98.8799 61.3297 98.8699 61.3897L100.89 60.9097C100.93 60.4197 100.98 59.8597 101.06 59.2397C101.14 58.5597 101.25 57.8097 101.37 57.0197C101.45 56.4797 101.74 56.0197 102.17 55.6997C102.6 55.3797 103.13 55.2497 103.67 55.3297C104.18 55.3897 104.66 55.6797 104.98 56.1197C105.31 56.5597 105.44 57.0997 105.35 57.6297C105.27 58.1397 105.19 58.6997 105.13 59.2397C105.1 59.4697 105.07 59.6897 105.05 59.9097L108.9 58.9797C109.42 58.8497 109.96 58.9397 110.42 59.2197C110.88 59.4997 111.2 59.9497 111.33 60.4697C111.46 60.9897 111.37 61.5397 111.09 61.9997C110.81 62.4597 110.37 62.7797 109.84 62.9097L105.88 63.8597C106.02 64.0697 106.16 64.2897 106.31 64.5097C106.65 65.0197 107 65.5297 107.33 65.9897C107.64 66.4297 107.76 66.9597 107.67 67.4897C107.58 68.0197 107.29 68.4897 106.85 68.7997C106.59 68.9797 106.31 69.0997 105.99 69.1497C105.48 69.2297 104.94 69.0997 104.51 68.7997C104.33 68.6697 104.17 68.5097 104.03 68.3197C103.53 67.6197 103.08 66.9497 102.68 66.3397C102.31 65.7797 102 65.2797 101.75 64.8497L99.7499 65.3297C99.8499 65.4497 99.9599 65.5797 100.06 65.6997C100.42 66.1197 100.76 66.5197 101.09 66.8797C101.32 67.1297 101.48 67.4497 101.56 67.7897C101.64 68.1297 101.62 68.4797 101.52 68.8097C101.42 69.1397 101.24 69.4397 100.99 69.6797C100.74 69.9197 100.43 70.0897 100.1 70.1797C99.6299 70.2997 99.1299 70.4397 98.6099 70.5997C98.4499 70.6497 98.2899 70.6997 98.1299 70.7497L99.5299 72.2497C99.9899 72.0197 100.52 71.7797 101.13 71.5197C101.8 71.2297 102.55 70.9197 103.35 70.6197C103.84 70.4297 104.39 70.4397 104.89 70.6497C105.39 70.8697 105.77 71.2597 105.96 71.7697C106.16 72.2697 106.14 72.8197 105.93 73.3097C105.71 73.7997 105.32 74.1797 104.81 74.3697C104.28 74.5797 103.71 74.8097 103.15 75.0397C102.9 75.1497 102.66 75.2497 102.43 75.3497L105.2 78.3197C105.57 78.7097 105.76 79.2297 105.74 79.7697C105.72 80.3097 105.49 80.8097 105.1 81.1697C104.84 81.4097 104.52 81.5897 104.17 81.6597C103.66 81.7697 103.12 81.6797 102.67 81.4097C102.52 81.3197 102.38 81.1997 102.25 81.0697L99.5499 78.1697C99.4499 78.3597 99.3499 78.5697 99.2499 78.7697C99.0099 79.2697 98.7599 79.7797 98.5499 80.2497C98.3499 80.6897 97.9899 81.0497 97.5399 81.2497C97.0599 81.4597 96.5199 81.4797 96.0199 81.2997L95.8799 81.2397C95.3899 81.0097 95.0199 80.6097 94.8299 80.1097C94.6399 79.6097 94.6599 79.0597 94.8899 78.5697C95.2299 77.8297 95.5599 77.1497 95.8599 76.5397C96.1399 75.9797 96.3999 75.4797 96.6399 75.0497L95.2199 73.5297C95.1999 73.5897 95.1799 73.6397 95.1599 73.6997C95.0299 74.0497 94.8999 74.4197 94.7799 74.7797C94.7799 75.0197 94.7399 75.2497 94.6699 75.4697C94.5699 75.7497 94.4099 76.0097 94.1999 76.2197C93.9399 76.4797 93.6099 76.6597 93.2499 76.7497C92.9099 76.8297 92.5399 76.8197 92.1999 76.7197L92.0699 76.6697C91.9299 76.6297 91.7999 76.5697 91.6799 76.5097C91.5099 76.4197 91.3499 76.2997 91.2199 76.1697C90.8799 75.8297 90.5099 75.4597 90.1299 75.1097C90.0099 74.9997 89.8999 74.8897 89.7799 74.7797L89.1499 76.8597C89.5699 77.1397 90.0299 77.4697 90.5499 77.8597C91.1299 78.2897 91.7399 78.7697 92.3899 79.2797C92.8099 79.6197 93.0699 80.0997 93.1299 80.6297C93.1899 81.1597 93.0399 81.6897 92.6999 82.1097C92.4399 82.4297 92.0999 82.6597 91.7099 82.7797C91.2099 82.9297 90.6499 82.8797 90.1899 82.6397C90.0799 82.5797 89.9699 82.5097 89.8699 82.4297C89.4399 82.0897 88.9799 81.7197 88.5199 81.3797C88.3199 81.2297 88.1199 81.0797 87.9299 80.9397L86.7599 84.8197C86.5999 85.3397 86.2599 85.7597 85.7799 86.0197C85.4699 86.1897 85.1399 86.2797 84.8099 86.2797ZM85.7299 78.4797L84.0599 84.0297C83.9999 84.2297 84.0199 84.4397 84.1199 84.6297C84.2199 84.8097 84.3799 84.9497 84.5799 85.0097C84.7799 85.0697 84.9899 85.0497 85.1799 84.9497C85.3599 84.8497 85.4999 84.6897 85.5599 84.4897L87.2299 78.9497L87.9299 79.4497C88.3199 79.7297 88.7799 80.0697 89.2399 80.4197C89.7099 80.7697 90.1799 81.1397 90.6099 81.4897C90.6499 81.5197 90.6899 81.5497 90.7399 81.5697C90.9199 81.6597 91.1299 81.6797 91.3299 81.6197C91.4799 81.5697 91.6199 81.4797 91.7199 81.3597C91.8499 81.1997 91.9099 80.9897 91.8899 80.7897C91.8699 80.5797 91.7699 80.3997 91.5999 80.2697C90.9699 79.7597 90.3599 79.2897 89.7999 78.8697C89.1299 78.3697 88.5599 77.9697 88.0899 77.6697L87.7499 77.4497L87.8099 77.0297L89.1499 72.5697L89.8699 73.2197C90.2099 73.5297 90.5899 73.8797 90.9699 74.2297C91.3599 74.5997 91.7399 74.9697 92.0899 75.3197C92.1299 75.3597 92.1899 75.3997 92.2499 75.4397C92.3199 75.4797 92.3899 75.4997 92.4599 75.5197L92.6199 75.5797C92.7299 75.5997 92.8399 75.5997 92.9499 75.5697C93.0899 75.5397 93.2099 75.4697 93.3199 75.3597C93.3999 75.2797 93.4499 75.1897 93.4899 75.0897C93.5299 74.9797 93.5399 74.8697 93.5299 74.7497L93.5199 74.6497L93.5499 74.5397C93.6999 74.0997 93.8399 73.6897 93.9899 73.2897C94.1299 72.8897 94.2799 72.5097 94.4099 72.1697L94.7699 71.2497L98.1599 74.8797L97.9599 75.2197C97.6499 75.7497 97.3199 76.3597 96.9599 77.0897C96.6599 77.6897 96.3399 78.3597 96.0099 79.0797C95.9199 79.2697 95.9099 79.4797 95.9899 79.6797C96.0599 79.8697 96.2099 80.0297 96.3999 80.1197C96.6399 80.2097 96.8599 80.1997 97.0499 80.1197C97.2199 80.0397 97.3599 79.9097 97.4399 79.7297C97.6599 79.2497 97.9099 78.7297 98.1599 78.2197C98.3999 77.7197 98.6499 77.2397 98.8699 76.8197L99.2799 76.0497L103.17 80.2197C103.22 80.2697 103.27 80.3097 103.33 80.3497C103.5 80.4497 103.71 80.4897 103.91 80.4497C104.04 80.4197 104.17 80.3497 104.27 80.2597C104.42 80.1197 104.51 79.9197 104.52 79.7197C104.53 79.5097 104.45 79.3097 104.31 79.1597L100.37 74.9397L101.14 74.5797C101.59 74.3697 102.12 74.1397 102.68 73.8997C103.25 73.6597 103.83 73.4197 104.37 73.2097C104.56 73.1297 104.72 72.9897 104.8 72.7997C104.88 72.6097 104.89 72.3997 104.81 72.1997C104.73 72.0097 104.59 71.8497 104.39 71.7697C104.2 71.6897 103.99 71.6797 103.8 71.7597C103.02 72.0597 102.29 72.3597 101.62 72.6497C100.84 72.9797 100.19 73.2897 99.6799 73.5597L99.3199 73.7497L98.9899 73.4797L95.9099 70.1797L96.8199 69.8797C97.2499 69.7297 97.7499 69.5797 98.2599 69.4297C98.7899 69.2697 99.2999 69.1297 99.7899 68.9997C99.9199 68.9697 100.04 68.8997 100.13 68.8097C100.23 68.7197 100.3 68.5997 100.34 68.4697C100.38 68.3397 100.38 68.1997 100.35 68.0697C100.32 67.9397 100.26 67.8197 100.17 67.7197C99.8399 67.3497 99.4799 66.9397 99.1199 66.5097C98.7899 66.1197 98.4599 65.7197 98.1699 65.3597L97.5599 64.5997L102.38 63.4397L102.58 63.7997C102.89 64.3597 103.26 64.9697 103.72 65.6697C104.11 66.2697 104.56 66.9197 105.05 67.6097C105.1 67.6797 105.16 67.7497 105.24 67.7997C105.4 67.9197 105.62 67.9597 105.81 67.9397C105.93 67.9197 106.04 67.8797 106.14 67.8097C106.31 67.6897 106.42 67.5097 106.46 67.3097C106.5 67.0997 106.45 66.8997 106.33 66.7297C106 66.2597 105.64 65.7397 105.29 65.2197C104.95 64.7197 104.64 64.2297 104.38 63.8097L103.92 63.0797L109.56 61.7197C109.76 61.6697 109.94 61.5497 110.05 61.3697C110.16 61.1897 110.19 60.9797 110.14 60.7797C110.09 60.5797 109.97 60.3997 109.79 60.2897C109.61 60.1797 109.4 60.1497 109.2 60.1997L103.65 61.5297L103.74 60.6697C103.79 60.1897 103.85 59.6497 103.92 59.0997C103.99 58.5397 104.07 57.9797 104.15 57.4497C104.18 57.2397 104.13 57.0397 104 56.8597C103.88 56.6897 103.7 56.5797 103.5 56.5597C103.29 56.5297 103.08 56.5797 102.91 56.6997C102.74 56.8197 102.63 56.9997 102.6 57.2097C102.48 57.9897 102.38 58.7297 102.3 59.3997C102.2 60.1997 102.14 60.8797 102.11 61.4497L102.09 61.8497L101.7 62.0097L97.2799 63.0697L97.4699 62.1197C97.5499 61.7497 97.6299 61.3597 97.7299 60.9397C97.8299 60.5297 97.9299 60.1097 98.0399 59.6997L98.1399 59.4897C98.2199 59.3897 98.2699 59.2797 98.2999 59.1797C98.3299 59.0697 98.3299 58.9697 98.3099 58.8597C98.2799 58.7197 98.2099 58.5897 98.1099 58.4797C97.9999 58.3797 97.8799 58.2997 97.7499 58.2697L97.6899 58.2597C97.6799 58.2597 97.6599 58.2597 97.6499 58.2497C97.5399 58.2197 97.4699 58.2097 97.3999 58.2097C97.3499 58.2097 97.2999 58.2097 97.2599 58.2197C96.7899 58.3197 96.2499 58.4197 95.7199 58.5197C95.2199 58.6097 94.7099 58.6997 94.2599 58.7697L93.2899 58.9197L94.6799 54.2997L95.0799 54.3097C95.7199 54.3197 96.4199 54.2997 97.2399 54.2497C97.9399 54.2097 98.7199 54.1497 99.5099 54.0797C99.7199 54.0597 99.9099 53.9597 100.04 53.7997C100.17 53.6397 100.24 53.4397 100.22 53.2297C100.2 53.0197 100.1 52.8297 99.9399 52.6997C99.7799 52.5697 99.5799 52.5097 99.3699 52.5297C98.8299 52.5797 98.2199 52.6297 97.6199 52.6697C97.0399 52.7097 96.4799 52.7397 95.9999 52.7597L95.1299 52.7997L96.8699 46.9997C96.9299 46.7997 96.9099 46.5897 96.8099 46.3997C96.7099 46.2197 96.5499 46.0797 96.3499 46.0197C96.1499 45.9597 95.9399 45.9797 95.7599 46.0797C95.5799 46.1797 95.4399 46.3397 95.3799 46.5397L93.6399 52.3297L92.9399 51.8297C92.5499 51.5497 92.0999 51.2197 91.6199 50.8597C91.1599 50.5097 90.6799 50.1397 90.2499 49.7897C90.0899 49.6597 89.8799 49.5997 89.6799 49.6197C89.4699 49.6397 89.2899 49.7497 89.1499 49.9097C89.0199 50.0697 88.9599 50.2797 88.9799 50.4797C88.9999 50.6797 89.0999 50.8697 89.2699 50.9997C89.8899 51.4997 90.5099 51.9797 91.0699 52.3997C91.7299 52.8897 92.3099 53.2997 92.7799 53.5997L93.1199 53.8197L93.0599 54.2397L91.8099 58.3897L91.0899 57.7397C90.7599 57.4497 90.3999 57.1097 90.0299 56.7597C89.6699 56.4197 89.2999 56.0597 88.9699 55.7197C88.9299 55.6797 88.8799 55.6397 88.8199 55.6197C88.7599 55.5897 88.6899 55.5597 88.6099 55.5397V55.3697L88.5099 55.3497L88.4599 55.5097L88.3699 55.4997C88.2599 55.4997 88.2099 55.4897 88.1599 55.4897C87.9799 55.5097 87.8599 55.5697 87.7599 55.6597C87.6599 55.7497 87.5899 55.8597 87.5499 55.9897C87.3999 56.4497 87.2299 56.9397 87.0499 57.4597C86.8799 57.9397 86.6999 58.4097 86.5399 58.8297L86.1899 59.7497L82.9599 56.2897L83.1699 55.9497C83.4899 55.4097 83.8299 54.7897 84.1999 54.0497C84.5099 53.4397 84.8399 52.7497 85.1899 51.9897C85.2799 51.7997 85.2899 51.5897 85.2099 51.3897C85.1399 51.1897 84.9899 51.0397 84.7999 50.9497C84.6199 50.8697 84.4099 50.8597 84.2099 50.9297C84.0099 50.9997 83.8499 51.1497 83.7699 51.3297C83.5399 51.8297 83.2799 52.3697 83.0199 52.8997C82.7699 53.4197 82.5099 53.9197 82.2899 54.3497L81.8799 55.1197L77.8099 50.7597C77.6699 50.6097 77.4799 50.5197 77.2599 50.5097C77.0199 50.5097 76.8499 50.5797 76.6999 50.7197C76.5499 50.8597 76.4599 51.0597 76.4499 51.2697C76.4399 51.4797 76.5199 51.6797 76.6599 51.8297L80.7199 56.1797L79.9499 56.5397C79.4999 56.7397 78.9899 56.9697 78.4499 57.1997C77.9099 57.4297 77.3499 57.6497 76.8299 57.8597C76.6299 57.9397 76.4799 58.0797 76.3999 58.2697C76.3199 58.4597 76.3099 58.6697 76.3899 58.8697C76.4299 58.9797 76.4999 59.0797 76.5899 59.1697C76.7399 59.2997 76.9499 59.3697 77.1399 59.3697C77.2299 59.3697 77.3099 59.3497 77.3899 59.3197C78.1499 59.0297 78.8599 58.7397 79.4999 58.4597C80.2499 58.1397 80.8899 57.8397 81.3999 57.5797L81.7599 57.3897L82.0899 57.6597L85.0499 60.8297L84.1399 61.1297C83.6999 61.2797 83.1999 61.4297 82.6999 61.5797C82.1699 61.7397 81.6599 61.8797 81.1699 62.0097C81.0399 62.0397 80.9199 62.1097 80.8199 62.1997C80.7199 62.2897 80.6499 62.4097 80.6099 62.5397C80.5699 62.6697 80.5699 62.7997 80.5999 62.9297C80.6299 63.0597 80.6899 63.1797 80.7799 63.2797C81.1099 63.6497 81.4599 64.0597 81.8299 64.4897C82.1599 64.8797 82.4899 65.2797 82.7799 65.6397L83.3899 66.3997L78.7499 67.5197L78.5499 67.1697C78.2399 66.6197 77.8699 66.0197 77.4199 65.3297C77.0299 64.7397 76.5999 64.1097 76.1399 63.4497C76.0199 63.2797 75.8399 63.1597 75.6299 63.1297C75.4299 63.0897 75.2199 63.1397 75.0499 63.2597C74.8799 63.3797 74.7599 63.5597 74.7299 63.7697C74.6999 63.9797 74.7399 64.1797 74.8599 64.3497C75.1799 64.7997 75.5199 65.2997 75.8499 65.7897C76.1699 66.2597 76.4699 66.7297 76.7399 67.1497L77.1999 67.8797L71.3999 69.2797C71.1999 69.3297 71.0299 69.4497 70.9199 69.6297C70.8099 69.8097 70.7799 70.0197 70.8299 70.2197C70.8599 70.3597 70.9299 70.4797 71.0299 70.5797C71.1699 70.7197 71.3699 70.8097 71.5699 70.8197C71.6499 70.8197 71.7099 70.8197 71.7799 70.7997L77.5599 69.4097L77.4799 70.2697C77.4299 70.7497 77.3699 71.3097 77.2999 71.8997C77.2299 72.4797 77.1399 73.0797 77.0599 73.6197C77.0299 73.8097 77.0699 73.9997 77.1699 74.1597C77.2799 74.3297 77.4599 74.4497 77.6599 74.5097C77.9099 74.5497 78.1199 74.4997 78.2899 74.3797C78.4599 74.2597 78.5699 74.0697 78.5999 73.8697C78.7199 73.0497 78.8299 72.2897 78.9099 71.6097C79.0099 70.7697 79.0699 70.0697 79.0999 69.5197L79.1199 69.1197L79.5099 68.9597L83.6899 67.9497L83.4999 68.8997C83.4099 69.3397 83.2999 69.8397 83.1699 70.3497C83.0499 70.8597 82.9099 71.3797 82.7899 71.8397C82.7499 71.9697 82.7499 72.1097 82.7899 72.2397C82.8199 72.3697 82.8899 72.4897 82.9799 72.5797C83.0699 72.6197 83.1199 72.6397 83.1699 72.6697L83.1499 72.7697C83.1699 72.7697 83.2099 72.7597 83.2399 72.7697L83.2599 72.7297L83.3499 72.7797C83.3599 72.7797 83.3699 72.7797 83.3899 72.7897C83.5199 72.8297 83.5999 72.8497 83.6599 72.8497C83.7199 72.8597 83.7799 72.8497 83.8299 72.8397C84.2899 72.7397 84.7799 72.6497 85.2999 72.5497C85.7899 72.4597 86.2699 72.3797 86.7099 72.3097L87.6799 72.1597L86.2299 76.9697L85.8199 76.9597C85.1999 76.9497 84.4899 76.9697 83.6699 77.0197C82.9699 77.0597 82.1999 77.1197 81.3999 77.1897C81.1899 77.2097 80.9999 77.3097 80.8699 77.4697C80.7399 77.6297 80.6699 77.8297 80.6899 78.0397C80.7099 78.2497 80.8099 78.4397 80.9699 78.5697C81.1299 78.6997 81.3299 78.7597 81.5399 78.7497C82.0699 78.6997 82.6799 78.6497 83.2799 78.6097C83.8599 78.5697 84.4199 78.5397 84.8999 78.5197L85.7299 78.4797ZM83.0899 72.8397L83.1099 72.8497V72.7697L83.0899 72.8397ZM92.3099 73.2697L91.6299 72.6397C91.3099 72.3397 90.9999 72.0697 90.7199 71.8397C90.4599 71.6197 90.1999 71.4197 89.9599 71.2497L89.6599 71.0297L89.7199 70.6297L90.7999 67.0397L93.6299 70.0797L93.4699 70.4097C93.3199 70.7197 93.1899 71.0097 93.0499 71.3297C92.9099 71.6597 92.7699 72.0297 92.6199 72.4197L92.3099 73.2697ZM91.0499 70.5097C91.1999 70.6297 91.3599 70.7597 91.5199 70.8897C91.6099 70.9697 91.7099 71.0497 91.8099 71.1297C91.8499 71.0297 91.8899 70.9297 91.9299 70.8397C92.0099 70.6497 92.0899 70.4697 92.1699 70.2997L91.3799 69.4497L91.0499 70.5097ZM84.5999 71.0097L84.8099 70.1097C84.9099 69.6897 84.9899 69.2997 85.0599 68.9397C85.1199 68.5997 85.1799 68.2797 85.2099 67.9897L85.2599 67.6197L85.6299 67.4797L89.3199 66.5897L88.1299 70.5597L87.7599 70.5797C87.4099 70.5997 87.0799 70.6297 86.7299 70.6797C86.3599 70.7297 85.9599 70.7897 85.5299 70.8597L84.5999 71.0097ZM86.3699 68.5597C86.3399 68.7497 86.3099 68.9497 86.2699 69.1597C86.2499 69.2697 86.2299 69.3797 86.1999 69.4997C86.3199 69.4797 86.4399 69.4697 86.5599 69.4497C86.7699 69.4197 86.9799 69.3997 87.1699 69.3797L87.4999 68.2797L86.3699 68.5597ZM94.8199 68.9697L94.5099 68.7197L91.9299 65.9597L95.9699 64.9897L96.1799 65.2997C96.3799 65.5997 96.5699 65.8697 96.7899 66.1497C97.0099 66.4497 97.2699 66.7697 97.5499 67.1097L98.1399 67.8297L97.2499 68.0997C96.8199 68.2297 96.4299 68.3597 96.0799 68.4797C95.7399 68.5997 95.4299 68.7197 95.1599 68.8297L94.8199 68.9697ZM94.2799 66.6597L95.0799 67.5197C95.2599 67.4497 95.4599 67.3797 95.6699 67.2997C95.7799 67.2597 95.8999 67.2197 96.0199 67.1797C95.9399 67.0797 95.8599 66.9797 95.7899 66.8797C95.6599 66.6997 95.5299 66.5397 95.4199 66.3697L94.2799 66.6597ZM84.9199 66.0297L84.6799 65.6697C84.5199 65.4297 84.3299 65.1597 84.1099 64.8697C83.8899 64.5797 83.6299 64.2497 83.3499 63.9097L82.7599 63.1997L83.6399 62.9297C84.0599 62.7997 84.4599 62.6697 84.8099 62.5497C85.1499 62.4297 85.4599 62.3097 85.7299 62.1997L86.0699 62.0497L86.3799 62.2997L88.9599 65.0697L84.9199 66.0297ZM84.8699 63.8297C84.9499 63.9297 85.0299 64.0297 85.0999 64.1297C85.2299 64.2997 85.3599 64.4697 85.4699 64.6297L86.6199 64.3497L85.8099 63.4897C85.6299 63.5597 85.4299 63.6297 85.2199 63.7097C85.1099 63.7497 84.9899 63.7897 84.8699 63.8297ZM91.5899 64.4297L92.7799 60.4797L93.1599 60.4597C93.5099 60.4397 93.8299 60.4197 94.1799 60.3797C94.5499 60.3397 94.9499 60.2797 95.3799 60.2097L96.2899 60.0597L96.0799 60.9597C95.9899 61.3697 95.8999 61.7597 95.8399 62.0997C95.7799 62.4397 95.7299 62.7497 95.6899 63.0297L95.6399 63.3897L95.2799 63.5297L91.5899 64.4297ZM93.7099 61.6597L93.3899 62.7197L94.5199 62.4497C94.5499 62.2697 94.5799 62.0697 94.6199 61.8697C94.6399 61.7697 94.6599 61.6597 94.6799 61.5597C94.5499 61.5797 94.4299 61.5897 94.2999 61.6097C94.0999 61.6297 93.8999 61.6497 93.7099 61.6597ZM90.0899 63.9797L87.2499 60.9397L87.4099 60.6097C87.5699 60.2897 87.6999 59.9897 87.8399 59.6697C87.9799 59.3297 88.1299 58.9597 88.2799 58.5597L88.6099 57.6897L89.2799 58.3197C89.5999 58.6197 89.8999 58.8897 90.1799 59.1297C90.4499 59.3597 90.6999 59.5697 90.9399 59.7397L91.2399 59.9597L91.1799 60.3497L90.0899 63.9797ZM88.7299 60.7097L89.5199 61.5597L89.8499 60.4597C89.6999 60.3397 89.5399 60.2097 89.3699 60.0697C89.2799 59.9897 89.1899 59.9197 89.0999 59.8297C89.0599 59.9397 89.0099 60.0397 88.9699 60.1497C88.8999 60.3497 88.8099 60.5397 88.7299 60.7097Z" fill="#696969"></path> <path d="M85.9 68.1298C85.86 68.4198 85.81 68.7398 85.75 69.0698C85.69 69.4098 85.61 69.7698 85.52 70.1498C85.92 70.0898 86.29 70.0298 86.63 69.9898C86.97 69.9498 87.29 69.9198 87.59 69.8998L88.29 67.5698L85.9 68.1298Z" fill="white"></path> <path d="M84.8799 70.7399L85.0399 70.0299C85.1199 69.6499 85.1999 69.2999 85.2599 68.9699C85.3199 68.6499 85.3699 68.3399 85.4099 68.0599L85.4499 67.7299L88.9999 66.8799L87.9599 70.3499L87.6199 70.3699C87.3399 70.3899 87.0299 70.4199 86.6899 70.4599C86.3599 70.4999 85.9899 70.5599 85.5999 70.6199L84.8799 70.7399ZM86.3299 68.5199C86.2999 68.7199 86.2599 68.9299 86.2199 69.1499C86.1999 69.2799 86.1699 69.4099 86.1399 69.5499C86.2799 69.5299 86.4199 69.5099 86.5599 69.4899C86.7799 69.4599 86.9999 69.4399 87.1999 69.4199L87.5599 68.2199L86.3299 68.5199Z" fill="#696969"></path> <path d="M90.4297 70.7099C90.6597 70.8799 90.9097 71.0799 91.1697 71.2999C91.4297 71.5199 91.7197 71.7699 92.0197 72.0399C92.1497 71.6799 92.2897 71.3499 92.4197 71.0399C92.5497 70.7299 92.6797 70.4499 92.7997 70.1899L91.1297 68.3999L90.4297 70.7099Z" fill="white"></path> <path d="M92.2199 72.8897L91.6899 72.3997C91.3999 72.1297 91.1199 71.8897 90.8599 71.6697C90.6099 71.4597 90.3699 71.2697 90.1399 71.0997L89.8599 70.8997L90.8999 67.4497L93.3799 70.1097L93.2299 70.4097C93.1099 70.6597 92.9799 70.9297 92.8599 71.2297C92.7299 71.5297 92.5999 71.8597 92.4699 72.2097L92.2199 72.8897ZM90.9999 70.5297C91.1599 70.6497 91.3199 70.7897 91.4899 70.9297C91.5999 71.0197 91.7099 71.1097 91.8199 71.2097C91.8699 71.0897 91.9199 70.9697 91.9699 70.8597C92.0499 70.6597 92.1399 70.4697 92.2199 70.2897L91.3499 69.3597L90.9999 70.5297Z" fill="#696969"></path> <path d="M93.27 66.3495L94.95 68.1495C95.22 68.0395 95.52 67.9195 95.85 67.7995C96.17 67.6895 96.53 67.5695 96.93 67.4495C96.67 67.1395 96.44 66.8395 96.23 66.5595C96.02 66.2795 95.83 66.0095 95.67 65.7695L93.27 66.3495Z" fill="white"></path> <path d="M94.8198 68.7395L92.3398 66.0795L95.8798 65.2295L96.0698 65.5095C96.2298 65.7395 96.4099 65.9995 96.6199 66.2795C96.8299 66.5495 97.0598 66.8395 97.3098 67.1495L97.7698 67.7095L97.0698 67.9295C96.6798 68.0495 96.3298 68.1695 96.0098 68.2795C95.6798 68.3895 95.3898 68.5095 95.1298 68.6195L94.8198 68.7395ZM94.1898 66.6295L95.0698 67.5695C95.2598 67.4995 95.4698 67.4195 95.6898 67.3395C95.8198 67.2895 95.9598 67.2495 96.0998 67.1995C96.0098 67.0795 95.9198 66.9695 95.8298 66.8495C95.6898 66.6695 95.5598 66.4895 95.4398 66.3195L94.1898 66.6295Z" fill="#696969"></path> <path d="M93.2402 61.0693C93.5402 61.0593 93.8702 61.0293 94.2402 60.9893C94.6102 60.9493 95.0202 60.8893 95.4702 60.8193C95.3702 61.2393 95.2902 61.6293 95.2202 61.9893C95.1502 62.3493 95.1002 62.6693 95.0702 62.9593L93.7802 63.2693L92.4902 63.5793L92.8702 62.3293L93.2402 61.0693Z" fill="white"></path> <path d="M91.77 64.2495L92.87 60.5995L93.21 60.5795C93.5 60.5695 93.82 60.5395 94.18 60.4995C94.54 60.4595 94.94 60.3995 95.39 60.3295L96.11 60.2095L95.95 60.9195C95.85 61.3395 95.77 61.7195 95.71 62.0695C95.65 62.4095 95.6 62.7295 95.56 63.0095L95.52 63.3495L91.77 64.2495ZM93.61 61.5395L93.2 62.8995L94.63 62.5595C94.66 62.3495 94.7 62.1295 94.74 61.8995C94.77 61.7395 94.8 61.5795 94.84 61.4095C94.65 61.4395 94.46 61.4595 94.29 61.4795C94.05 61.4995 93.82 61.5195 93.61 61.5395Z" fill="#696969"></path> <path d="M88.0996 60.8099L89.7696 62.5999L90.4696 60.2699C90.2396 60.0899 89.9896 59.8899 89.7296 59.6699C89.4696 59.4499 89.1896 59.1999 88.8996 58.9199C88.7596 59.2899 88.6296 59.6299 88.4896 59.9399C88.3596 60.2599 88.2196 60.5499 88.0996 60.8099Z" fill="white"></path> <path d="M89.9898 63.5598L87.5098 60.8998L87.6598 60.5998C87.7798 60.3398 87.9098 60.0598 88.0398 59.7598C88.1698 59.4498 88.2998 59.1098 88.4398 58.7498L88.6998 58.0698L89.2298 58.5698C89.5198 58.8398 89.7898 59.0898 90.0498 59.2998C90.3098 59.5098 90.5498 59.7098 90.7698 59.8898L91.0398 60.0998L89.9898 63.5598ZM88.6798 60.7198L89.5498 61.6498L89.9098 60.4498C89.7498 60.3198 89.5798 60.1798 89.4098 60.0398C89.3098 59.9498 89.1998 59.8598 89.0898 59.7598C89.0398 59.8898 88.9898 60.0098 88.9298 60.1398C88.8498 60.3398 88.7698 60.5398 88.6798 60.7198Z" fill="#696969"></path> <path d="M85.1602 65.4299L85.1302 65.3799C84.9602 65.1299 84.7602 64.8499 84.5402 64.5499C84.3102 64.2499 84.0502 63.9199 83.7602 63.5699L83.6802 63.4699L83.8002 63.4299C84.2302 63.2999 84.6302 63.1699 84.9902 63.0399C85.3402 62.9199 85.6602 62.7899 85.9402 62.6699L85.9902 62.6499L87.9502 64.7499L85.1602 65.4299Z" fill="white"></path> <path d="M84.9401 65.9799L84.7201 65.6399C84.5601 65.3999 84.3701 65.1299 84.1501 64.8399C83.9301 64.5499 83.6701 64.2199 83.3801 63.8799L82.8301 63.2199L83.6501 62.9699C84.0701 62.8399 84.4701 62.7099 84.8201 62.5899C85.1601 62.4699 85.4701 62.3499 85.7401 62.2399L86.0601 62.1099L86.3501 62.3399L88.8801 65.0499L84.9401 65.9799ZM84.5101 63.7199C84.6601 63.9099 84.8001 64.0799 84.9201 64.2499C85.0801 64.4699 85.2301 64.6699 85.3701 64.8699L87.0101 64.4699L85.8601 63.2299C85.6301 63.3199 85.3901 63.4099 85.1501 63.4999C84.9501 63.5799 84.7401 63.6499 84.5101 63.7199Z" fill="#696969"></path> <path d="M61.9595 58.8198C62.1895 59.5798 62.3295 60.4198 62.3895 61.3698C62.5495 63.8298 61.2495 65.9498 60.6795 66.7398C59.4795 68.5298 58.8195 70.6098 58.7395 72.7598L58.7295 73.1598C58.7295 79.5698 63.9195 84.7598 70.2995 84.7598C76.6795 84.7598 81.8695 79.5698 81.8695 73.1898L81.8595 72.7698C81.7895 70.6198 81.1195 68.5398 79.9295 66.7498C79.3495 65.9398 78.0495 63.8298 78.2095 61.3698L78.3395 59.8198C78.4095 59.4598 78.4895 59.1098 78.5995 58.7698C77.7195 59.1298 76.9095 59.6398 76.2495 60.2598L75.4995 60.9998L74.9795 60.0698C73.4895 57.4098 72.7095 54.3898 72.7095 51.3398C72.7095 50.0698 72.8395 48.8198 73.0995 47.5898C69.4195 51.2698 67.2495 56.1898 67.0595 61.4598L66.9495 64.5198L65.5095 61.8198C64.8095 60.5098 63.5095 59.4298 61.9595 58.8198Z" fill="white"></path> <path d="M70.3096 86.4099C63.0196 86.4099 57.0796 80.4799 57.0796 73.1799L57.0896 72.6899C57.1696 70.2399 57.9396 67.8599 59.2896 65.8199C59.7896 65.1199 60.8596 63.3999 60.7296 61.4699C60.6396 60.0299 60.3296 58.8899 59.7996 57.9699L58.9096 56.4399L60.6596 56.7399C62.5596 57.0699 64.3096 57.9699 65.5796 59.2099C66.3596 53.3499 69.4296 48.0399 74.1996 44.4099L76.5396 42.6299L75.4696 45.3699C74.7296 47.2699 74.3496 49.2799 74.3496 51.3199C74.3496 53.7599 74.8996 56.1699 75.9496 58.3599C77.0896 57.5199 78.4596 56.9299 79.9096 56.6699L81.6596 56.3599L80.7796 57.8999C80.3996 58.5699 80.1296 59.2799 79.9896 60.0399L79.8696 61.4899C79.7496 63.3999 80.8096 65.1199 81.2796 65.7699C82.6796 67.8599 83.4396 70.2399 83.5196 72.6999V72.8399C83.5196 72.9399 83.5196 73.0499 83.5196 73.1599V73.1799C83.5296 80.4799 77.5996 86.4099 70.3096 86.4099ZM61.9596 58.8199C62.1896 59.5799 62.3296 60.4199 62.3896 61.3699C62.5496 63.8299 61.2496 65.9499 60.6796 66.7399C59.4796 68.5299 58.8196 70.6099 58.7396 72.7599L58.7296 73.1599C58.7296 79.5699 63.9196 84.7599 70.2996 84.7599C76.6796 84.7599 81.8696 79.5699 81.8696 73.1899L81.8596 72.7699C81.7896 70.6199 81.1196 68.5399 79.9296 66.7499C79.3496 65.9399 78.0496 63.8299 78.2096 61.3699L78.3396 59.8199C78.4096 59.4599 78.4896 59.1099 78.5996 58.7699C77.7196 59.1299 76.9096 59.6399 76.2496 60.2599L75.4996 60.9999L74.9796 60.0699C73.4896 57.4099 72.7096 54.3899 72.7096 51.3399C72.7096 50.0699 72.8396 48.8199 73.0996 47.5899C69.4196 51.2699 67.2496 56.1899 67.0596 61.4599L66.9496 64.5199L65.5096 61.8199C64.8096 60.5099 63.5096 59.4299 61.9596 58.8199Z" fill="#48515A"></path> <path d="M70.3096 86.4099C63.0196 86.4099 57.0796 80.4799 57.0796 73.1799L57.0896 72.6899C57.1696 70.2399 57.9396 67.8599 59.2896 65.8199C59.7896 65.1199 60.8596 63.3999 60.7296 61.4699C60.6396 60.0299 60.3296 58.8899 59.7996 57.9699L58.9096 56.4399L60.6596 56.7399C62.5596 57.0699 64.3096 57.9699 65.5796 59.2099C66.3596 53.3499 69.4296 48.0399 74.1996 44.4099L76.5396 42.6299L75.4696 45.3699C74.7296 47.2699 74.3496 49.2799 74.3496 51.3199C74.3496 53.7599 74.8996 56.1699 75.9496 58.3599C77.0896 57.5199 78.4596 56.9299 79.9096 56.6699L81.6596 56.3599L80.7796 57.8999C80.3996 58.5699 80.1296 59.2799 79.9896 60.0399L79.8696 61.4899C79.7496 63.3999 80.8096 65.1199 81.2796 65.7699C82.6796 67.8599 83.4396 70.2399 83.5196 72.6999V72.8399C83.5196 72.9399 83.5196 73.0499 83.5196 73.1599V73.1799C83.5296 80.4799 77.5996 86.4099 70.3096 86.4099ZM61.9596 58.8199C62.1896 59.5799 62.3296 60.4199 62.3896 61.3699C62.5496 63.8299 61.2496 65.9499 60.6796 66.7399C59.4796 68.5299 58.8196 70.6099 58.7396 72.7599L58.7296 73.1599C58.7296 79.5699 63.9196 84.7599 70.2996 84.7599C76.6796 84.7599 81.8696 79.5699 81.8696 73.1899L81.8596 72.7699C81.7896 70.6199 81.1196 68.5399 79.9296 66.7499C79.3496 65.9399 78.0496 63.8299 78.2096 61.3699L78.3396 59.8199C78.4096 59.4599 78.4896 59.1099 78.5996 58.7699C77.7196 59.1299 76.9096 59.6399 76.2496 60.2599L75.4996 60.9999L74.9796 60.0699C73.4896 57.4099 72.7096 54.3899 72.7096 51.3399C72.7096 50.0699 72.8396 48.8199 73.0996 47.5899C69.4196 51.2699 67.2496 56.1899 67.0596 61.4599L66.9496 64.5199L65.5096 61.8199C64.8096 60.5099 63.5096 59.4299 61.9596 58.8199Z" fill="#696969"></path> <path d="M64.0194 62.5499C63.7994 64.9599 62.5994 66.8999 62.0194 67.6999C61.0194 69.1899 60.4494 70.9799 60.3894 72.8199L60.3794 73.2699C60.3794 78.6599 64.8294 83.1099 70.2994 83.1099C75.7694 83.1099 80.2194 78.6599 80.2194 73.1899L80.2094 72.8299C80.1494 70.9799 79.5794 69.1999 78.5594 67.6699C77.9794 66.8699 76.7094 64.8099 76.5594 62.2599L75.0794 63.6699L73.5194 60.8799C72.1494 58.4299 71.3294 55.7099 71.0994 52.9199C69.6394 55.5199 68.8094 58.4599 68.6994 61.5199L68.3694 70.6999L64.0394 62.5999C64.0394 62.5799 64.0294 62.5599 64.0194 62.5499Z" fill="#696969"></path> <path d="M18.1099 60.39L29.9699 63.35L30.0799 51.3L18.4499 48.79L18.1099 60.39Z" fill="white"></path></svg>