<svg width="86" height="81" viewBox="0 0 86 81" fill="none" xmlns="http://www.w3.org/2000/svg" style="height: 100px;"><path d="M23.8098 11.1004L46.7098 46.8304L85.2198 36.7404L62.9298 1.4104L23.8098 11.1004Z" fill="#E0E0E0"></path> <path d="M43.3699 48.0803L43.6399 80.0903L79.7199 70.5803L79.5899 38.2903L43.3699 48.0803Z" fill="#E0E0E0"></path> <path d="M43.6399 81.0304C43.5599 81.0304 43.4798 81.0204 43.3998 81.0004L6.78984 71.3504C6.36984 71.2404 6.08984 70.8604 6.08984 70.4304L6.42984 36.5704C6.42984 36.0504 6.84984 35.6404 7.36984 35.6404H7.37985C7.89985 35.6404 8.30984 36.0704 8.30984 36.5904L7.97984 69.7204L43.8799 79.1804C44.3799 79.3104 44.6798 79.8304 44.5498 80.3304C44.4298 80.7504 44.0499 81.0304 43.6399 81.0304Z" fill="#696969"></path> <path d="M41.6999 49.0503C41.3899 49.0503 41.0899 48.8903 40.9199 48.6303L22.8999 21.1703L5.47989 40.0203C5.12989 40.3903 4.54989 40.4203 4.16989 40.0903L0.649891 37.0103C0.459891 36.8503 0.349899 36.6103 0.329899 36.3603C0.309899 36.1103 0.399904 35.8603 0.569904 35.6803L23.1299 10.4803C23.2599 10.3403 23.4199 10.2403 23.5999 10.1903L62.7199 0.50031C63.1099 0.41031 63.5199 0.57031 63.7399 0.91031L86.0299 36.2403C86.1899 36.4903 86.2199 36.8103 86.1099 37.0903C85.9999 37.3703 85.7599 37.5803 85.4699 37.6503L41.9399 49.0203C41.8599 49.0403 41.7799 49.0503 41.6999 49.0503ZM23.0199 18.7103C23.0499 18.7103 23.0699 18.7103 23.0999 18.7103C23.3899 18.7303 23.6499 18.8903 23.8099 19.1303L42.1199 47.0303L83.7499 36.1603L62.4999 2.49031L24.3199 11.9503L2.58989 36.2303L4.7099 38.0903L22.3299 19.0203C22.5099 18.8203 22.7599 18.7103 23.0199 18.7103Z" fill="#696969"></path> <path d="M43.64 81.0302C43.44 81.0302 43.2399 80.9602 43.0699 80.8402C42.8399 80.6602 42.7 80.3902 42.7 80.1002L42.4399 48.0902C42.4399 47.6602 42.7199 47.2902 43.1299 47.1802L79.3399 37.3902C79.6199 37.3102 79.9199 37.3702 80.1499 37.5502C80.3799 37.7302 80.5199 38.0002 80.5199 38.2902L80.6499 70.5802C80.6499 71.0102 80.36 71.3802 79.95 71.4902L43.8799 81.0002C43.7999 81.0202 43.72 81.0302 43.64 81.0302ZM44.3199 48.8002L44.5699 78.8802L78.7799 69.8602L78.6599 39.5202L44.3199 48.8002Z" fill="#696969"></path> <path d="M31.2098 65.9603C31.1298 65.9603 31.0598 65.9503 30.9798 65.9303L17.2398 62.4903C16.8098 62.3803 16.5198 61.9903 16.5298 61.5503L16.9298 48.0703C16.9398 47.7903 17.0698 47.5303 17.2898 47.3603C17.5098 47.1903 17.7898 47.1203 18.0698 47.1803L31.5498 50.0903C31.9898 50.1803 32.2898 50.5703 32.2898 51.0203L32.1598 65.0303C32.1598 65.3203 32.0198 65.5903 31.7998 65.7603C31.6198 65.9003 31.4198 65.9603 31.2098 65.9603ZM18.4298 60.8603L30.2898 63.8203L30.3998 51.7703L18.7698 49.2603L18.4298 60.8603Z" fill="#696969"></path> <path d="M43 80.7202C43.5578 80.7202 44.01 80.268 44.01 79.7102C44.01 79.1524 43.5578 78.7002 43 78.7002C42.4422 78.7002 41.99 79.1524 41.99 79.7102C41.99 80.268 42.4422 80.7202 43 80.7202Z" fill="#6A6A6A"></path> <path d="M18.4299 60.8603L30.2899 63.8303L30.3999 51.7703L18.7699 49.2603L18.4299 60.8603Z" fill="none"></path></svg>